<mxfile host="app.diagrams.net" modified="2021-04-20T23:51:01.990Z" agent="5.0 (Windows NT 10.0; Win64; x64) AppleWebKit/537.36 (KHTML, like Gecko) Chrome/89.0.4389.128 Safari/537.36" etag="6M2ORSicMmJPPp8OTFlh" version="14.6.1" type="github">
  <diagram id="dJ589d0U2ce0Pd3LbvDR" name="Page-1">
    <mxGraphModel dx="1422" dy="794" grid="0" gridSize="10" guides="1" tooltips="1" connect="1" arrows="1" fold="1" page="1" pageScale="1" pageWidth="850" pageHeight="1100" math="0" shadow="0">
      <root>
        <mxCell id="0" />
        <mxCell id="1" parent="0" />
        <mxCell id="DSYIpopSQqV4eHAveuQ3-9" value="" style="edgeStyle=orthogonalEdgeStyle;rounded=0;orthogonalLoop=1;jettySize=auto;html=1;" edge="1" parent="1" source="DSYIpopSQqV4eHAveuQ3-7" target="DSYIpopSQqV4eHAveuQ3-4">
          <mxGeometry relative="1" as="geometry" />
        </mxCell>
        <mxCell id="DSYIpopSQqV4eHAveuQ3-7" value="" style="rounded=0;whiteSpace=wrap;html=1;" vertex="1" parent="1">
          <mxGeometry x="289" y="43" width="194" height="89" as="geometry" />
        </mxCell>
        <mxCell id="YTty48DpWNWT5Ns5Sw20-15" value="" style="rounded=0;whiteSpace=wrap;html=1;" parent="1" vertex="1">
          <mxGeometry x="215" y="283" width="378" height="57" as="geometry" />
        </mxCell>
        <mxCell id="YTty48DpWNWT5Ns5Sw20-2" value="" style="rounded=0;whiteSpace=wrap;html=1;" parent="1" vertex="1">
          <mxGeometry x="160" y="600" width="520" height="130" as="geometry" />
        </mxCell>
        <mxCell id="YTty48DpWNWT5Ns5Sw20-3" value="&lt;font style=&quot;font-size: 18px&quot;&gt;&lt;b&gt;Network&lt;/b&gt;&lt;/font&gt;" style="rounded=0;whiteSpace=wrap;html=1;" parent="1" vertex="1">
          <mxGeometry x="180" y="530" width="480" height="60" as="geometry" />
        </mxCell>
        <mxCell id="YTty48DpWNWT5Ns5Sw20-4" value="" style="rounded=1;whiteSpace=wrap;html=1;align=center;" parent="1" vertex="1">
          <mxGeometry x="210" y="361" width="120" height="140" as="geometry" />
        </mxCell>
        <mxCell id="YTty48DpWNWT5Ns5Sw20-5" value="" style="rounded=1;whiteSpace=wrap;html=1;" parent="1" vertex="1">
          <mxGeometry x="351.5" y="363" width="120" height="140" as="geometry" />
        </mxCell>
        <mxCell id="YTty48DpWNWT5Ns5Sw20-6" value="" style="rounded=1;whiteSpace=wrap;html=1;" parent="1" vertex="1">
          <mxGeometry x="490" y="361" width="120" height="140" as="geometry" />
        </mxCell>
        <mxCell id="YTty48DpWNWT5Ns5Sw20-8" value="" style="shape=image;verticalLabelPosition=bottom;labelBackgroundColor=#ffffff;verticalAlign=top;aspect=fixed;imageAspect=0;image=data:image/png,iVBORw0KGgoAAAANSUhEUgAAARsAAAB0CAYAAAC1+JYaAAAgAElEQVR4Ae2d3e9m1VXH+Q9MuPDCTLSJ0As1gNJMaFPLYIDQ0hEYXgYGwpvTgjKNDKUoCBEkystMS4sahRhMldTQGhsM0QtotA0xbRQSRNMWalqiNZhelGQu5vKYz4Hv0zXrt/bLOc95nt/zsi929j777L32y1nrc9be5zznOe3EiRNdC20Omg40HVikDnRd1522yAaa7KbATQeaDqADDTbNq2tebdOBpehAg01TtKUoWvNumnfTYNNg02DTdGApOtBg0xRtKYrWPJvm2TTYNNg02DQdWIoONNg0RVuKojXPpnk2DTYNNg02TQeWogMNNk3RlqJozbNpnk2DTYNNg03TgaXoQINNU7SlKFrzbJpn02DTYNNg03RgKTrQYNMUbSmK1jyb5tk02DTYNNg0HViKDjTYNEVbiqI1z6Z5NoNg884773TbGpqxNGNpOjCfDhRhI7i8/fbbHeH111/vXn75G92X/+6FjQ8vvfRS98orr3Rv/eAH/dg1F03p5lO6Nn/bOX9J2MiwMDTAcvS+x7q9l9zSve/Dt/bhV/bf3W1DYLxnfOhQP37m4Y033piBpxnNdhpNu+7jrvsO2HjIHLj6cA+Xjxx6tLv8yJ93V975F1sZfu3mz/VwBbhPPfM3vbejuWrKN0752rxt17ydAhuMh6USd288Ge7q2wyYCKzMBx4dEGaJxXwxb81wtstw2vUefr1nsBFo2I/h7n3egXu30oOJABPl4emwvGJpxVKzAWe48jWD3a4562HjQcOSKTKwlnfqEhIvB+CwrGoeznYZTgPl8Os9gw1Lp+bRnAqTGrhe8amnZh5OA85wBWxGuz1z1sOGZcBnHni834vAwDAghRqD2/YyeDiAWns4zYC2x4Data6/1j1seJ+E5YAA4+Nth0nN+NnjAtht/6Ze+Zqhbtdc9bDhyZM2hD1oOMbYFNcY3raWAdhssLOcaoa0XYbUrnf5evewwUhYCkSgsXnLgIhtrya9jD7VtsEj8ceOP1nl3Zw8ebKzYWpltbJ9urYtX88f18jxdfxxjQzKUK+2bK6c2s+VqT03Rpbq2Li2vVw55OXO23Nq2+bVplVXcW09yvWwwUgwqGUb92V3/GVHoF3aP3Dn8e62Rz6fDNfed6xbRKBd+gBw1adawNhyPA7n/Rs221OPwrlInHviiSe6ffv29eEPHn64z+PckIsXlZUS8LOSp59+ujt48OCsnUOHDnXPPfdcsS318fnnn+/uuuuuWX36e+TIke7ZZ5/tf7aitnL9YB+L8tTTePfv398xZs7lZCCX83iKjId01FZtHvW5NoSpZLFszsninIKe+tI+42H8dtmtcrXjsfODR438VF+sbNqk/Vx59cHW4zrQZ9oiqO+2jOr5mDI9bHjULWOrAY7gYA1tSJr6GPWjX/ps95V/f7B79s0j3Zd+9FuDw9P//ZtdFP74e7d1Phx77Tc6wmOv3rIjPPjyjR3h7hcOdnd88UB36xeO9OCjj0PGRVk2ilNLKSacC3T66ad3p5122ilhz549vVFRxl+o2mPqosgYs5fvj++9994dyqa2AaEvHx0DD8aqevSTNAFQ7d27tyjnrLPO6suqnh2r5KhtxmXPD0kjC8BZWeQNkaGy1GP+JAuoe1kcY8zMA6AtzcWZZ57Zg539U+p6eWrbxpQBGuoHMfpl60oWkODGYXWPNACx5SVf9ZDPWOmfbcemuYkxTtWRDMXkM0c9bLSEUlwDnKFGqPIYMN6JABPBIpcHRDjvYaJjQSUCi6BSE3/6xcu6qx+4qsNbUd9rYrxEJj7at2HSUTx7oWyac5TRRRoSU492rbyatGAxtj5tYMTUJ6CcgLOmbVvmpptuCuEHjGw5PDPaGTo3QNjKIS0DGSrLGziy7PUGMhZsvt3SMRCo6Rvz4PVJ14IxcZ5+4d2m2uTG4ueTY6DFNUnVi/KjfksWEJ3BBtAolGCD0Y3xbqgj0OSAkjsnqKRiwcZ7MDWAwbOxgTpX3HNNd9En/qQaOMAm95JfdJFsnr8z1RgCF5SLaeUMSQOceYyDtlDaMbCz/cRTsopPmjxbBsOxZWrnJ/LWuCNPIQsgqh/Is16P7fvQdOnmQ1seCLRNPqEG/N4ro948usQYLfCYF3Qa3QhhsygPB6/mb9/4vXDpkwOMzqUAo3yBxns1Y0BjocPSqMaroQxP9VKbxNzxSgoX3WmkyFGMcnD3Ksldl/MyFsbK2DAG33fGy7loPqI8yqaWMWNkeW/LGhdtpTwJwMn4bAAodmnjx5oDIm2lYMMNxMvyx4wDndScIY/9NV9Ox/QVaCAbIKGr/mZgyyJP13ES2NR6OJRj85e9GcFjSAxQKC+w+DgFGjycEmwsWKI03g0ArgFODjZMfkrpdZGIdZGkBLmYsqzFbf11T9uN4wikGETtHFEuWvZojoYsy1Ky7IazymgpiYFimOTnAn2krPpl49R4kedhA/hSNzWghq7QH/UZGRYItl2l5f2k+k/fI732EE56NkO8mxrgaEN4DGx2EzTA54Y/vXL2HlIJOCXYoNy6iKmYu4CUoASayBhTctclHwPS+Im9p8BGsc7n5kdGhNKnxj6vLIzM94VjDF5ekz8f9ZkyhGgJAySsB6L6lI9gE0ELYCBD7RBbOSx1/Bzh+QhKKhvFkun7gjzdOKiXhc1Q4OSgA2w+97VxSyjvxdhj69EMXT5FXkyUxxMqvR4wD2yY8NRdx15ov3cRXWDyuMjRXoSVRRolwB33+blj+oCREiIlytW151gyIIPY5pfSMi7GCHx9+dq9LernlinIrZXFnPsllO76qWs0ND813sgDo6y/Nr5/wLA0vkjO0HlBBsEvq+gP+cxDETZDgZMyRmDzxNc+Vb2Esh6QhYtNCzR+M7hm6aSlVQQXn3fky1f1P+dIjc3m5zwbJpyJrwEErqkuUkphMciSIenOjSyviN6AdSzPijoKKGzkKquOjwGM6ipmHLVLPjv+CNA1Rk673Flt34Cu70NqmWLnPZKF3JIhWxm1adriutl+AxXyrQyOPWxsHQyfufP1vAw/R8jQ0s+WLaVpJ3rqJ1lVsAE4tdCxhmfTwObxb9bBBuNmn+TiG/Z3F19/U3fRodsmDchENo+2PVhSx7xlbceTStfABgW1ShGlcYVLShLd8b0sXWhk+buOL8txdAdFyahfu2SLDEMyavth3W/q+KVBtHzxxkA9oGfHyfj8UkVA9vXtMbK8d1ZTz8qoTdNWdG3JtzI4zsFGyzhbx6eR4ecWPfFt+Xqp40ieniBWwYbl0RDgRMupGtjgzQCAvftu7x83R3JSRj40H9n0ad+ND/QeVwoyyj/7g/sngQ0XiQvi767WIJTOKQsySp6GdWEpX4INm5opJVK/vWKqrza2oPDy6EdkSLY+aSuDOh4QlKnZT/CeH3NKn3x7JQ+FPvg68gD9GOc9pq3ohqS+Sz7lUrBJ3TRUVzEy/bh0g1KZITF9ijwl2qmCjUBT691gyB4UNbDBsAHNUHDMU55+3fPk8dkbxIKLj6eGTeRu+oueWiqkLqivbxWOOiXYpDwSKRsyapaAlFMdH9f23cIGGSwH9IRH46QvqbbI949/9RiZcx72qbmmbcpHsMOAUu3bcVNmaEC2B6WHKzIj2DBPzJftQ5Smvp8j2qypG8mzef5acT0Hw2YIcCwEamBz48Mf7XbjK4GMiT0cDxiWcwTyp4QNF4ULXdq05cJTzl5E1a3xMGxd0qsCG/ZjBIxU7GFD//0yxnpu0Rx5oMgTQZY3stzSgfJeVg2YqYfhAirASB2WXrSlwDF6wHKPmwP9oh7j8T8RqIWN9sv8nPhj2vE3jymWhsj1TxCB+SjYyNORB5OKBRvO18BmyPsskj1FTN/YvF42bCJ30xufd2m5kJHr6+v5OzX11h020Xx5A5RBYeTeM2DedJ758HOWkkUdX9ZfF8klRjbLIL9f5GXkjjF633/fP9qJPBu7uW775dPU9wAHPswdczU2UN+PnXbmgs0QL6cGNh+79dLky3MCFnL23fhns19nc1wT6GsKTNS3sLEejdJTezZSyhIA/J0GBfF3o0hpURTKSsFIl9qquVvXtG3bVfuKOTfGs9F8+Sdq9Me3x7Ff9vixUcYbhAe02vSymG/fph0fcqJrMm9eLWzUl1LMGNCveftVUx9PfKVgwxOiCArAgK/gfeNfjnff/6+Huu9/98i7MWkT3nrtaBeFb339/u7YEw8mf+OE/Ef/8Ujv2QguNl7EMiqnyP7ieSXz7rUvH7nRKNYmwMbDjk1yb1SM1S8zvSdCGe8pRcsyynnvgbs0+VG73lOw14alBf1nOUd/iAnAiWtWMnyvB1Hf/M3J99EeU7+kE7b/86QngQ1wqPEs8EZSj755d4afIqRgw/dmTp743e7kjw50J//vmu7kD69/N/zv7d1JG968qjtJ+M51O8MPr+8e+J3DSZjtBmy48Fzw0lMlKTdlo7usV4LoyUqNYvm7v1VM9dUbu2+bY9rydXXMuXk8GwzOt+mXDbjxtkxu09N7SlYWfcVDtLJI+/0kzU3k0dA2+SqDzFJgjEBozDKKvSXka75zMeWWBRvmdbRnwy+hCXxS9KFnjvXfpuEN4VyIfgsl0KRgA8i++g+Pl0ETAcbl/etXzw9/drBbno0UkI1Br9D+WMui0t2PO0ikbDWKteqw0Xx5OFtPjnFiqHb+UgZIWb+UssuySBZeJfnWiDmOoEQ/dd1s+VJa8r0HW+PZpMYatUk73gNk/JQF2FMF5NHWKNhgnACGX3DzboxCBJNcnn0bmHTk2dDWf/7HQ3mPBu/GgSU6/vGr1/Qft/J7NxY2LJnsEor0opZRUgAuhDWOKA2Qoru6L2vvzJKvi126i9XAJrp7+z7IWGz7SnOOPvo6/jjyHjQO/8tkHrOqTWK/7LFPeNQPyfJ9sUspZPmnKhZGkkW5aF48HFS+JsbQlwEb76nqBbyaPg4tMxg2GCbei/05QQ4oqXMeNHPBBtCklk8GQiXYeMjY40VsEOtipZTVGiBGkNsPoGxuvU4bmwKb6IU3ASXyMBi75trHnPOekoAdyYoAggzvcaY8TN9+6nhZsPHL8tp3dFL9zuUPgg3LJjyaKUADhDxwqjwbu0ejdG6vZk1gEym2hU1NWgYXXfBNgQ1jYyze49C+ll+S2iVWal783V11vAeVg7kHVs3vraL+KA99GLNno3mQnFzMPEZ6l/Iqc7Jqzg2CDZu8fM4z5a3U5HvA2ONRsJFXs8aeDReKC1/yXHLAQdmRkbronNsEz0Zz5fdlmBvG6CFUMhzq+OWpllLeW8kBxG8058qmrpHy6RM3Dn+9vVdFOb9kHAIbzaWfM71prf6MjemfrTsINnzScx6vxoIlShdhI0/GxvJqNgA20fLAK1zqGOPzF9deaM5tCmwYF8sMPxfeq4k2c+2cKM3ceM8kghleQDTHUf1ob0ftlWLkeQAw1kXBJgKbf1Wg1Gd/njHoqajmrBo2LKH4N4Rdgw2Puy1kSFuvZs1hw8XiovinA96gomOMyl9sf4zsTYJNNFd+2VFr8MiKNnjtXOc2z6nvf3pCX8j316F0TB0PTfVjEbChP7TpvTja1N5Vqc/2vMYsPQbiQJoy1bDRxnDNUqlUJvJqyMt6NhFsrFejtNmj8U+kVnWDWBeLC+WfjkjRcnGNy47sTYON39z0c+SNU/PsY+aGsr6+Pc55jtSPAAHAOOfbi44pR4g8KvXDj4fy8y6j6AtyIq+azWIBhzJRv5XHecnxXqL0s4cNP37Ec+EFvVTg/D997w+r9mvwfviwlf1xox4h+98f2ePzr/j4jpfuZo++S17NisCGL/qlPniuC5OLuWCRCy2Fi+KcPJ1D7ibBhnExpmg+yGOsnNf4SzFlo7u75LNsy8mgvvesqCvvivO+P8oj5u7vf+zp5S0KNprLCJiMgX0gLSFtn20aWPl3ljR3enAxgw3A4T+S5oUNX8nDQ+EfCfiQ1K9e+0fVgbajd2D692w8bAQXH++SZ0PfAfIUsInW0LpwPq69e6IYOWNCbm6pIIUsLTeQQ1spw+RcyYtARmljV/1JKXjtvKif9Is7sJ9fjmtelKN+ytNimUt/GDdGC7iIMVA8GS05bNvowJj3bIZuEGv8mk//ZM72Cf1hHIyT/tF3jnN6BcCkD6fABuCkoIMhlf6GhaXQOede0MvA+FK/Brf5Hi46p/zQs/GAscdLho0gw/xMARtddO8e24uu9JB3InLGJHklA0UGEFD5KEbxpFxWkW2a81Fdm4cx2jpRGjmpZac2J6N6qTzatH1QWnfmVD3l05+UdyBZxN5j8ecYE0Di+tpzkWfj94rmgQ3jYAy5pZztTynt5y2ETQSdGtjoXwgABkbog/IFlFy86rDxkJkaNii+VzZ/cf3FlNJHMUqUMibJLS0VpIy5O1nNUwz6kruDDjEYZPnlYQ3wUnPklzI1m+9WFv0BFr5PmuNcTNtcA2REsPEApZz3irRss30amkYubQ1dzmtsXD+Nw7adhY2FTgk27NPwiYjcUszCJwcae452T1lGWS8mSi/Ys0lBZkrYcIF0wSOlBUI1Rm0vtGRGrj532lpwqV9+ExBFK3lGvj/eUJCBR1cDPcmiP97b0qamytTGyPJLvNp5sW0gh4CHkAMz4+VaApnIa2E+ZcDMFTJ9O0BBNyU9+fHlbJ3atMZAv1iq+iWd+qWY94wAnQeiba8KNkCHvRde6HvyrRvCTWJgo6dJFiqptIyTOFWGfF4knMEGkESAsXkLgs2e95/fL5Nsv6P0vHs29uLogmNMKB4BWER3DVsvl0YmHg7uPvIwiKHypMz0BRnsdeSULNUf5NixkZbsVJ0oX2MCMoxtjAzJpS7zMZUs5DE3jI05Z66ImTva0NxHfSYPY8/BU/2lHGOI5GhsY2LkKdAG8NUY0B3GpWuvcql2RsEG4ETQ0dOkCB4YJksjvktz/2efHBT4Zk3/jo2FSiqdgQ2/+o7+Spd9IT4xYX8LRfr6Zy7sw01/fXG3G7DRRdNFVKz8sbHkKN5NOeqD4rF9oR4y5qlv604tS+PzsW0zSqt8dM7mTdlfK9em1ZcotuVS6blgI+goTsEG0PSfieCbNHyPpib4p09zejW8c/P3T12S/cSEYANcBBrFuwmb1MVr+Scmg0uby8XP5aSwOefCC/o9G+Ai74Y0X8mbffiqBJrSh7H+58ruZC6ovjwfjt+8qsOrufDSg32/tPlMzP4QSzU8GyATgQbgNNgsXhmbwW/2HE8OGz06Z6OYMNtz0Vf2crARKLxXwzHw+M51/YbbgasPd0MCSyf2UiwAgaBCg81mK3mD2Gpc3x42bP7qyVMqthvEWjb5GM/Gw+aXLj/Wfye492wAjg8WPinYvOel8HOD93341n7vxz6xUjoFE0ElFQMbllApr6Z5NquhrA0a630dlgOb7x7ZCZka6Ly3BDr57Y92hB//24XdT5117cwjScFjaD6w4acV2p+J4raMWryiL2OTswFr8dcxNceTL6PwgLSEIu49myGwkXfjQLNI2Nz2yOf7T39GkFHeJsAmeoqwKgaux82r0p+UwbT88bCaBDaPfPu6/lF4chlVgo2WUhY0S4INXg2fOc0toTi354yLqjyqKd+zmUqxMWCM2b7rwbsSvCdh38/YLUOnXb3mT392qx9TzXeTEwNpbtgAGoVJYcM+zXvLJ8W5ZRTQGBr4GBig+cRzl2SXUHg36wgbQSb30wDeAOUNYt4SnfeFuLFGRj+BH30Z+2Lf2LZbvRgMi5iXuWAjyCgeBZtKrya3jGK5dtdffbLjt1k14Y4vHuiXTZ9+8bKsR6Ml1DrCBgPGS9Dr5Lw2j/eAMZNPzFus/I7FvorOG8HL9iwabJZn8IuASK3M0bARYGwMbAbv2USwCbyaEmz4Lg4eShRYBvlgQVJKX/L75/ZPwWo2nldlGcWySaBhuYRBpwJlKaPyU/yYr1YBKddg02BzyuNw++jbAsamBRv7+Du7QRyBJtirKS2j8GwsbDxYouMSYHSeuhf89gf693TWBTYYr77zItCUjJ86LKOol/stTknOmPMNNg02c8FG7+sMhk3Cq4k8G/vUC9hEUEnlCSalmPo/d+7P93OxLrDBU+GXwPqXgFoAYPQKtXWmKNdg02CzWNgM9Go8bCxo5NmkwOLzS4DReeqxhKrdHAZGY5ZRYw08qkceHgpLouizBPPCIdUm+cgGdASVU36uXcpEG8SSIZnIUF5OXuqcrSuZNi9VT/mpsspXrPJRrDLE6gPllB/V2ZS8fs+GJZKCPBIfaxlll00+bZdRqh96NgINsX3cnfFqpoKNQFKKAQ1lfub951R7NWNgg8IBhaHfTUE5qeOBQr5gU/rM51AlRjbfXmFjWcZh+6HvqgA6vsPDkkyfH8i1hQwPG+X578FwTFnkUSYnV+coR2CD3H8QCnlsinMdcvI4x6Y68y256gP5bLTzPRnm3J63aWRwbdgTs98p4mkg9ey82nqbkp7BBjgAFEHCxwuBjQVNZq8m2rOZx7Oxno6g4/PYp/npPb/cz0nN8kllhno2AsOYJY/+GA1DsQrJsZ4wlYzI1iulMRZAIogh236WEkMGRpxX3yhf2nBGroUNgFL/MUpkAi4MXUDDQGveyUE2e1CSR4wcybP9lLFH84AcvUKgPS3Gz1gZowLwStXXGCnLuAAU/bAyqI9O0F4kZ53zZrBZpGfz1mtHf/JzhZFeTe/ZvHrN7OcKQ2ADUIBHLpx387ndOQc+0OGdnfGhQ/1yiDYEkdp4KGxQKpQfBaz1bqhDWeqgsF4xOUaJOY9sjn2ZMUqLDCtThooRCWpqi5g7vr7ol/uXRcrKEDF4gEI9GbWVSb/xROgHIWeY1EOGyrJZTn0rjzRtqkwKOJQTbIAc47Vjo16qL7YukInGhTzJZ141n2Ou06rWOQU21rvxXs48ns23vn7/TtgM9GqADZ+J4IeYGL6HjX5IaT0UpYEN+y4Caipm/GMAY0E0BjYyCHkMJWVBeXU3zN3ddTdHwQUy6iqU2vHnqYdRAjDggXeRWyapHfU1AiNtUE6wATT0V3V9H1RebxwLplE5DJY+0mcZeFSOthiHgBNBgzKCAWXxQCgvOKX6S75gRp1UOY1L85AbVzSGdcibwcYumyLQ5GDzmX++vH+LONqzod7R+x77CWz0qQkPG/e2sJZONr7z5rNnHkctbLRMqv1tkwXHmPRQ2EjJpLw5eKisDCMHJ5QaY5OhYxgYMh4P4JFB5ZTfKzBlZZDEkuHL2WPJlxeAt0OeLyMjGyJXcxb1gzbk3dU8/qe83jWiXtRHwUZycwCz42NMQC/qpy1Hmna1NI3mypdfp+MQNhY8SrPRyy+j/aYwoFGIYEN9fkYAqV/4yq9333xx/46Ax1IKh687r/dqPGR0HD36Fmh6z6byG8JjAGPrjIWN7n4otFd0q1Cck7KXlJGyBOAiBbawwINAluTk2pUhqP6QN42Rq/FFgOS8YMP+TKkf6ovqyLvQPFEfw6av8pJ0LhdTT0tD6tuynBNskEvbpX5yXgCrnS/qcD1oY9O8myRs5N3Y2MNGkFGcgg3AQQ7AOvPie0YF6gssUexhI9CwlFp12KDUKJmWPTklxlsZY0TIxIAwTAAjrwBZBIys5AEgQ+Vr7tLeWFWXMfhzAkepD6pHX7Rv5Q2fc4KbP6f6UUw9gVzLTpXjnIUNxzqXiikjz3LIfFFPy7+adlLtr1r+DDaCisAgj0bHnLewEWBsnION5EWgmCLPwkagsfEqL6NQCpRK+xDEkZLZMrVG6RUOGQqcwyi5gwoEkechGdSjnPYelF8TU1ft+OUH5wQbb+Qp2dSRB+C9Bs4JDFqWklcTBLCczNTeU9RXIE6oaduWEaRye2JRe6ucN4ONYGBjD6ASbHiiY+tYWan0FKDhC336UaU8GQuadfBsUJKS14Iyau+D9BSKJQVHqVlyAJOUMVGW87VLHds/6goAWrbpPOcEG39OZXxMHW2sR2BgDAIjj+Rrgzw++kobatf2vxb0eDN4KOyVsYyt7QNltZyrnQ/1c5XjGWyARAQK5ds9G+vN2DRGzTIpBZZU/jzAYT/ooWeO9T/ATIFmXWBjFdorGedSd90pFEyGpaVcdEelTA5GuX7YsXnvhXNTw0ZeFHAeE6J9oBQso3EzJmDDfAGcMX0AfMiI5K9j3g7YCC4WDOQBG5YqbBBbwPg0/4pJ2QhcVmaUHgod2uGbNKUl1DrBRgrqNwdRXrnWlOF4aoWzRh/dvTmP8XCHHto+5bUfkltGecimxoi8nGfj26L80GDbpq5g4/tvy9k0nqreGRratspbeeueHgQbvgOTgg3LGALw4Zsyl979ye6iQ7d1+258YJJw4M7jPViAC5/xvOfJ4/03bGpAM/T3Tfbp0tD0mKdRVolQMt2V5V2QRxpDx4g4tnWmSiNXG6t+GUEbnKcPGNDQNqmrpYG/W3Nuas9G8iJoDu27xj4UNoxLyzLAw/GYtjelThI23jNhuXLrF46EsBFofAx4fF7qOPoOjc3z9ThnX9rDe0mFId+jGQoXX34K2OiOLYNHSXWnFoByCkj5MYpNHYwToESb1JznHMEvM0r9ESyjzWXkCg5TeTZsDNPPMV5YNBb6OAY27CfRj6mgF/VtXfKysLHAIf3xo0d3wMZDwB9bYIxJCyi5OAUZ8qnHzxT27rv9lDePPSSmOp4XNigOiq07ImltHOeeFEnhZLjygDjWuVJMWTZ/MY5oqcB5zhHY26mVTTlt2EaQ4vyUsNEc6t2iWoCpXjQu8sbARstivLrS/Os8bSkobxPiImw8cPwejYeLPx4DGNXJAUbncqARbH7xYz/b/+0uQLH7QlMBxsqZCjZazhDL26gxGpRUoCLW/g75OYXlvDagUy/CUQbQSL7gl5PNOfWfelFZ8hYBG3k3gFHzkJoD+kAAtkDK95PjoXqiG3kAAAWCSURBVLChLVtPT/G8bNsnztFv4BR5l7bsuqWrYQN02JBlP0bA8WDxx4LGmFgwKcUl2HCeX29byNi0BcUU6SlgIyVF4VgG6ElGTkm94slDAQ4YiZZfyIiC3vGhvN5N8TKpx3n2lAAfacCk8pFcGWjudX3qTQ0bzaFAR1/1FCzqJ56cHv3LK7Tjp47GEnl9tqxPU1eb+4BM4Iv6Ya+D+uvlretxFWwAjQIbvkCltB8zBjCqUwKMzpdAQzm8Gr+EsrAhPQVkJIMfirJOx7hZ/oxVDBRRBoihDF3zUx9lBVTUJ5DGkOgfsolZ3uhtVeCWMyRkIkcejTwh8oAi8ugnBkM7kss5GVg0H3astQZGHQGPdjlOyZaXSD8BivpJPmn6xzlCShbyx8KGflGfOVE7AJt5kueKbL12QJy7DtE41yGvhw13Y8GkJuYpE2BIAUfQGBsLJqm4BjICDb/29nDxxwLFFDGfp0CJ5oWNlAflHLLeVz1iFJyAAVtPRwqvGAgBH9WxMmwaWdQRbDgGItaIJJMYuYIkZa0sm+acgJCDkq1DmrK0ozb8eR2X+okM5kcemurZGBnyOmjXnqtNIwNAWrjZ+eIpH7BDHmVr5a5LuR423I1rIEMZ3o8h5uW9K+65pn8CJKj4ZZQ/VrkpYg8iAYgnT2wI84U9xuXBkjqeAjTI3nvJLb3hjFVIqzhSOMX23JA09RXoF3dNlB7j0iPZmjYog3EINvRBcomRC9iQTTs6V9NXlSWuKa8yqqfjVKxyxIybfhLkQeh8qj75NWVy9a0M5t3Ol13mlmSs6/keNtyNa2Ej4FjosExBxtkf3N/9wkcuWHo459wL+rbpA4DBU6N/KbBE+VPA5rwD93YHrj48M7ZVVQoZDfGQPlLew8bWt3KHyrZyFp1elX6uSj8WPd+S38MGSAyFjYfOkPpTlrVvIkcQGZo3D3QAHUsK7ljz7Nfo4qxajHHkYLNq/W39Wa1/behhw2bVkKWUQKPYGvyi0kOhMU/5McChPaDN/sFU+zWrZiwNNqtlvKumH6X+9LBhc5BPMMzjcQgyksHxImE0D0xq6g4FDrBmk1H7FZvs2XBzAjwl5WrnG5ysDvSwYaMMBRq6d2PBYmETpZU3ZVwDjbFlhsCGedh0rwalATB4brmnNla5WrrBxupADxvcfpTowksPDl5OCTiKLUyiPHt+qvRYoJTq1QCHMQAa3pNgr4anMJvo1UhpAE7zahpEpA9D4h42ehzKcmpq4AgogEfpRcQlcMxzPgUdnj6x/GRTGO9wU/dqhihUK9tAlNKBHjbciQEO+w28VARwxiypgIj3ZvzxIkCDzHlgUlPXA4fH63g0gIYX0hpompGljKzlv6sbPWyYDAGHpQBvSvLiFnftVX9KJXjVAGNsGQsavBlAzPs0gNl6NJu8fGoG02A6rw7MYOOBw92auzZejqDjf9YgQ59yiTQWCPPWs0BRWjIZJ2MHMswHvydijwswy6NpoGnGOK8xbnr9U2BjgYMRsazCqIAOng6GxtIB+GB42xIYM54M84DXhzfDE5lN3wzedOVv41vuDWIHbAQcLasEHf06lU1knrxgeJseGCdLJQDD+IGvhUzzZparrA0O6z3fIWx0UTEmCx3Ag7GxfMDwNj0wTgJjZuzyZBpk1lvppd8tXu51zMLGXgyBR/DB8LYh2HHb+Wjp5Spqm+/1n+9q2LSLvf4Xu13Ddg13UwcabE40BdxNBWxtb4/+Ndg02LQfVDYdWIoONNg0RVuKojUPZns8mNS1brBpsGmwaTqwFB1osGmKthRFS93tWv72eDwNNg02DTZNB5aiAw02TdGWomjNg9keDyZ1rRtsGmwabJoOLEUHGmyaoi1F0VJ3u5a/PR4PsPl/2PmMX4U8d2gAAAAASUVORK5CYII=;" parent="1" vertex="1">
          <mxGeometry x="180" y="630" width="170" height="69.68" as="geometry" />
        </mxCell>
        <mxCell id="YTty48DpWNWT5Ns5Sw20-9" value="" style="shape=image;verticalLabelPosition=bottom;labelBackgroundColor=#ffffff;verticalAlign=top;aspect=fixed;imageAspect=0;image=data:image/png,iVBORw0KGgoAAAANSUhEUgAAAPwAAACECAYAAAC02kbLAAAgAElEQVR4Aey9Z3iVVbcF+u7eW7LTGyEJCQFCkd5BOoQiTREVVAQ1dETpvQkWsIEgvUhQQDpILyqgoGBDeg8lPYGf4z5jrr0D+nm+79zzHT3nnsuP9by7vHW9a8w5ZllzaXrNiQfNAb0WbHboNbbg94f3C352Qa+xBb8/vP1nxz2831/9OXgff7b9z1z7/81xf7bvf8dv/5n7DO4TfCf/0XsJ7vd3bf/Z8/9d9/DoOkGMaprmhskYAk1zQdMc0Okc0DQbNM0Cs9kNo4HNA01zwmGPhNHAfd0w6EJgNoZDr4VAp3nlN/5uNHhhMvqg16nzmQxe2Mx+mMuu4ZLPVlMoTAYfjDoP9LwHg69sPx3Po/fCZY+CwxoJTeP1PbCZw2HSh0qzWSJgNvhh1IfAqON5VOP//J1bo94Hk8kDg94l98PPVksILGYfjEb+rp5LPbsLFrMfNmuEHMfryX3Is7M/7DDo3bCYQ2A0eqHXeeRZrRa/9J3ZpM5ps4bKNdmHvC77lH3Hxn7kNXkOk5zD/bv/gv2s01wP3ZtTPrNfeT/Be2Vfm01+WM1h0OvY/7xfbtVnvhe7LQpWS9jv7tNhj5D3bTGHlp3L6YiEzRpWNg6MBh887tiy/3lt/m+3RcjWbAoBG8+hnidUvvOeeI/8nY2f2S/sOzY+n9WijmF/8H8eH2zs02DTyfPwmR61/84+0DhQjIbgy3fCZguFwxkKo9EBg9EBi8UHi0X9bzZxcBHwHACxsFvjpGma+o3nUi04kB2wmv2wcmCa/AJYDlCjzgu9RqB7AkDlYFbf+Rv3cdqj4HLEwGmLgcUYKc1qioTZEA6LIQJGzQ+d5itrHOA2c5T8x98NWihs5giYTARAYMAZPTCbOQAJRBfM5lA47FFlwkqv88FqoYBRoCGgDAS8CEGnfDaZfDAI+DzQ6YLP64HVGibnJFgpWHhNvd4FnS7YFwR98Loh4Hn4nWBiYx9zGxQOvIbTyXtRx5kDwshk4rsIXpf9xvPwODZ+5nkiodfCoNNC4XLGwiCCj8e5YbNFyPE8j1GEsFuew26PfKgvPAhex2oJl/8fHnQmIwHul+MNBh8s5jA5L7f8zvvjNc1yry4RrhYLxwifxQ0TBQYFgk7tx33Z2P8cX2wPv9tHnx+M83+3LzQOEps1MvDyOajdMFs80Olt0gxGN9TL4jYMDkcMjIYw6AVwoTDoONAfDDoOIhnERq9Ic6OeAA6FmVpfcyttrveAml/AQe1h8cNhC5cW3Ncg+3pgMfJaFBDc/8GWg8pqioDLHguHNQomvR8GEQBB4eENaGoOMgKeWtohAsBqJSgIGheczigQTBzYaqByYHpgNPpFcxLwZAN6vdKuHKRGo0+0ITUhNagCslt+Z18FhYzewGMoNEMCfch7URqfgOfvdlvweAUMhyMCZrMCB4WFur5XfuMx1IDUjOra4XC7YuGwR8Nk5Hn4TEHgq3fC+9XrPbDbCXSXfOaW1+B/LhcFnlN+V8JJXdNuDxcmQ3BS8Hg9cXA5owICTAmu4Hl4T9zP7YqWfR8IOcVwdDpeV/UFr0VhRsCzH4NgfwT4/z5Q/zOhoHGAKCrIwfIwOCzQdFYBi2g5+Y+U6wG41bGUyKRplNj8TwFDBpGO1NQNs5Gg98FmCZGtxeSDifSW/3MwcBDoXDAG9tUJKOygsCC1NwhldcFsCBHNrwDG4zwwaB753WJUGoz/8TPpPD/byVgcfpjMfD4Fep1egSs4+Ax6atNoAYzZTOAQUAQdNbBHaXm5JwVWDlZq9KCmUv3mBsHqcIQLi+AAp6AgwO32MPlNzAgRNA45JwEfFCYEBfuZDISfeU6bzQ+rjdcKgdmiTAYlMHgfLgG+CAARAqTL4bCYleBS4Fcgo+BxOsNhNFGQ89yKffBcZCH8bnfwHr3CTiiwdDoKgcDxet6bO7AvzT7Vf8H9lUBV51Ln5/3ZA89hl2dkH7BvbDbeY2gZS3oE+L8H6EEhoFFbq8HBF8/Gl0Wgm0XD8/ODgUpbmBqEA5m2aCRMxnBYLVEwmzjQOEAoNCjF1QAxGjgwbeIAdLvC4XZSY9vlN4vY1F6YTR6YjfQlEGi07WzSDHqnCAEntY2ems0JM5kDbWCCw0hh5ZDPJrHHee90EnE/Dxx2UnIXdHoHNB0ZC7dqMHKgE0hBYUZtx+d/WGNTM6rnUedVfaOAqY5TfUabnpScdnkQuEEwEzwK+M4yoPA8weuqcxIsSrMqsCtQ8f50OgLHBk0XZClW+cz+NRgV+wj2OTUmKbvFEi6aU4SCju9DPbvJ5IbRxHekvjud7B/+b5W+sVq9MBhphvBaVtnK/2XXDt6HMpGC98RjLDw2cC7+zuuYLRwrdhFcTmfE71iE6m/a8A+0/CNK/9eDX3PYY0UrKJtNaXirzYeMqrXQrn1ntGnbGXXrNkdUVLIMfqs1HA6H0oaUGtTy6kVRMynqK7YrwaXZ4HKGokJyZTRp3BKZmV3xRJcnkZnZDQ3qN0NqhSrQ66ywWtyw2whoizSfNwKVK9VAw/rN0aljT3Tp9BQy23dD40atkJJUBRQUFAoUHqaAQLGaPUgqXwl1azdFsyZt0SmzJ57v+woaNHwcGVXrINRPJxQFmRV8PpuNYHLA7y+HpKSqiIlODYBbOZ2oiR4IQAVAgjeo9WgW8NiMjHqIiUkVjUjwKh8Bnz1IY4Oa0h7QrqqPy5fPQIUK1RERkQSLVZkBFBJBAeD1xSIuLhWpaRlIq5iBiunVpKVUqILomCQ4XWFKgNEZZgoCn/epBIf4BIweOF1+lE9KR0K5VLhcfmFtegMBawG3FqtH/kssXxFx8SkICY2G2ULBwPu0BPqMWwvsDh/i4lKQllYVqakZ4DG8r6TkSnKc6l91Xp6DAoAsgMLN7Y4Cnzk9vTYiIysIO2IfPQL8Xw/yoHYXvOo05SRRDhylmR9v0QEfzV+Mw0eO4dDhY1ixch169uwboJtuuJwxYgYYxNmntD21Oz23asAqDeH3R+PJnr3x3ryPcPDgVzh+7ARO/fATfv3lLDZv2o7x4yahYlpluN20Tc3Q60zyvW+fF7FgwSfYv+8wjh/7HkePnsTJEz/iyOFjeH/eAmR26IKIcDqjrCIg/KFRaNumI2a/+S62bd2Nw4eO4ug3J3DyxE/Yf+BrrM3eiKyBw1EhNUMGOQez3U7t7kTHjk9ixsy5GDVqKqpWbSD3T22kbFsFXGpQApkg5/MRYNWq1ceL/Qbio4+Wov+AIQj1x4s2I3UOammlee2i6ejIM4tZYUdqWnW53rRp76BV685Ct3leRa8dCA9PRMeOT2HEa+Mxe/a7eHfeB5j/8WIsXLQMb739HgYNHoFWrTNRqXINGAxkLdT6NtDfwibvQMd79qBtu86YPWeutGbNW0PTTNB0ZrjcIfB4/KharRZee30sFi5aLtd65tkXYDQ7YLYQ8Kay5nD5UKdeYwwd/gY+mv8JFi9Zifc/+Bhz532EN0ZPQGbHriiflAaLzS3n1xusSmjoHAgLS0TLVp0xatR0zJr1Afr1G4YqVepLVOQR4P9mwFND00tPJxAlbmpqdcx560NcvXYbBUX3pd26XYDNW3ajbr3HxZFDG5YAN5n84q1VklpJcb3eCZ3ejmrV6+C1kaNx+vTPuHkzB4WFxbh7Nw/5eQW4f+8+8vIKcOH8Reza+SV6P/0MUlJS0aVLV6xevQanT/+E69duoCC/CIUFJSguuiftVs5d3LxxC7/8chZvvzUXGVWqoUP7jpgx/U18880x3Liegzt38pCbWyjHFRaUorDwHm7fKcRvZy9hbfYGdOzUHUaTQ8yV1LSqWLhwJa5cvYPffruK6dPfgdsTJZqY4KPjiuEoUmVqTKW9bfB4ItC//yARhjdu5uKHU2fw9NMvBqiyS/ZVXnunaG+nKxzsF4I+PLwcBg8ehfPnb0pbtWo90tMfk/+bN++AadPexo4dB/Hzz5dw8eJNXLuRgxs5t3D1eg6u38jBtes5OHvuEo5/9wP27f8KQ4a+jspVagRMMDtI08lcaMqERyRg3nvzcfHyNVy/eQszZ82BxxsKq92FVm3a483Zb+Hro8fx489nkHPrruzz5Z79sNqc0PQUDEa43D6069ARHy9cgu9P/YSLl67ixs1buJFzGzdz7uDy1Ru4dOU6fv7lN2Sv24DnX3gJ5RKTYTBaoTfQZ2JD69ZPYPr0uXjrrQV4++2FmPvuYrz88khUqVz/kYZ/KNL0sCb+qz6L085uixZvLzVS/fotsX3HAeTmleLe/fsoKr6PnFt5uHL1FqZMmS1UmM4X7stBTfDTA6w0IIWGFckplTBx0nT88utZFBQUITc3D/fu3UdhYRHy8vJx//59lJbew507d+W33bv3YN6897B9+3bcunUbxcUlqhWVoLCgWI4tLr6H27dzUVp6H3m5Bbh8+Rqysz/D+vUbcfa38yguLhUBUVxUitKS++C2oKAYJaX3peUXlODW7Txs27Eb3Xs8DbPVJVR3ydI1KL13HyUl97Ft2z7UrNmkLI5Oik3HHPMUVDjODauNdq5dNFx+QakIRPbR7DnzhGrTtua+Yt6IR99TZstaLF7UrNkYe/d+g6Ki+7iZU4js7M1ISqqC2NgKePfdj3HhYg4KCikQ2V/3BVDnL17G1es3cTPntgiA23fzUcx+KCjBL79eEEHWoGFzYS96PSm+C3ZHiDCa7Tt2405uvrzL1WvWIiExCb16P4vNW7fj2LcnUFRyD8Ul91B6/z7u3M3D10ePQUewa3rZt+8L/bD/4GHczLkl5+C5Ll+9jjO/ncPZ8xdx6co1nL9wSa6Rm1eAL/fsw9hxE5CSWhE6vUX6csSIiRg4cBTWrNmEDRv2YMzomZgz52N06vjMI8D/3YAnpad3XcVPXWjbtiv2HzgqgCdYCovuCegLiu5h774jiIlJDgxg2qsq4UI5nEjlbLA7vHi6d1/s3LUXefmFAvb8fAXyO3fuoLS0VACfm5uLgoIC3Lt3D3l5ebhw4QJu3ryJkpIScP/iYgL9ngCcjICADrKDW7d4nvu4eSMHly5dAb+XcNCW3hfhwP1Liqndi1FUXIri0nu4m1eAwqJSXLl6A8uWr0ZG1ZpCa0lJyQAokE6d/g29er0Ajycq4IAiraVfQjnlLFafMIOUCpVATUiBmJtfJGDZvnMPWrbKDHinSatVyI8CQJyFGplBJJ597mWcv3AT+QX3ceNmPsaMmQanMwwJ5Spi8ZJPcedOKW7dKsbhw99h3Web8fY78zB+wiSMmzAJc956B4s+WYJtO3bh3PnLIqiKS+7j0uUb+ODDRahWva6Anu+BtntSUjrWfbYB+QVFKCwuwaYtW/HKq1n4bP1G3LiZg7yCQuQXFuGnX37FsW+/EyEweux4aDoDHC4PsgYOxrbtO1FQWIyComJcuXYDG77YhFGjx+L5F1/C4KHD5L7WrM3G2XMXpB8I+hPfn8KIka8LxadZkZX1BoYPn4A9e45i377jeH3kVMyY8T66du37CPB/N+AfxG+ZgOFGrVpNsXzFOgFByb37yC8skYFNLXj7TgE6d3lSnF7KVnRKuIieWKPYjhZUTK+KhZ8sFYooYCspKQM5gU3AsxUWEmTU2rdFABDk/F+BvFS2RYVFounJCAhIgprAp4nA7wQ4QZ2Xm4/SkntyHjKCO7fJHBQzKCouQcm9e8jNL5DBTY3GgftK1kDoDGZkDRqGY8e/FxZw63Yh3pw9VxxSJrPyZhO4TDoRem+nKWNG/5ez8Otv56RfCCQCn9T2jVETpB/otedxbldMwEOvnIUJ5dLw3vuLcDe3FLfvFOPU6XPo1u0Z6A0M3YWgyxO9MPL1CRg0+HV07vwUGjVugUqVMxAZHYuw8CjExpVD5YxqaN2mPabPmI2jR0/ItfPyS/HrmYt4qf9ASZoiy3J7IoTBrF6TDb7HouJ7OHrsO+z6ci9u3c7F3bxCMQ9Wf5qNrIFD8FSvZ9A+sxOSUtJgd7jRsnU77N6zH3fuKnbwzdHjmDX7Lbl2bHw5uD0h8IWGyz093rINJk6ehh279ogQKigqxc5de/DyK4PEvOjbNwsTJ87GzJnvYfLktzFx4luYMGEOMqo0eAT4vxvwDKcxdsu0UtJ0areBg0bKACLNy80vlAEjtPfefSxeshrJyZXhcHDw20CaygHmcISIbdy9Ry8ZWDy2qCQgLEpLRXNfvXoVX3yxCTdu3BRAU8MT+AQ06T0ZAEF/5swZ7NmzF8uXL8eePfvKKLvQ+bwC5OSQ9peiqKhETIaS4nu4cOESDh/6CtnZ67B2bTYOH/4KJSWk3EoDF5YUI7+wAMUlpfI8H340Hy63BzVr1cWSZStRWHQf1JY7du5FZsdu4ghTacb0tnthszHu7hEGQ42Wm58nYCsqKUYen6OoBKvXrENycobY8CqW75MkJuXttqBho5bYu/croew5twqwevXnqF69nuxDb7k/LE683V5vpPSnxeqG0WyDwWSBycxYuQdWmws2uxupaVXwwouv4PSPv+H2nSLk5d/D0mVr8dhjjeS90DseFV0eG77YJvfJ93f9xi1cuHhVnvPQ4W8wYeJUNG3WEv6wKLHV7U4+nwdVq9XEylVrcfuOAvtXXx/DoMHDUT4pFTaHBxarEwYThZgRNodb7ic2PhFP9noWe/YdElZIn8P2HXtRqXItiUR07focpk+fJ61v30GoXr2JhBAfOe3+Zqcd4+h6PVMd6YCj7elEs2btsGXrbqHyd/PykV9YKJQur6AYP/9yHt269xYbkUCnvUgKabV5EBkVj9lz3sW1GzcF7IVCy++Lk+7cufNYumQZnnuuD77+6hsBeQ7twnv35TPBSQAfOfIVxo4dh44dO6FWrTp46qmnMWPGm/j2+EmxzUuK76OoqBQEOe10OvSuX8/BvHkf4MmevdCkcXM0a9YCL730Mg4ePIxbd26jqKQIxaXFKLlXKqCnRl62YgUio2Ngd7oxasw45OYVyfOePXcZY8ZNEk2uknU8YCqp5M8bnKhbrzF+OH0ahcWFuJ17CydPncCZs2dEkBw9dgKdu/SShBimngroA8zHZHJhwIDB+OXXS8ovkpOP4cPHwGZj7N4mWp7OTgoHRhHY2Kf0lOsMFmh6MwxGGyxWxv7NMJldSEqqhAULlok/gPb+sWM/onv3PvIOaUokJFTEps07QV8DAU+Bdut2vjCDocNeR3xCMmx2JuNY5Ny8Fr+/mjUE5y8owcBjXhs5BnHxSXIfRhNDeXznzNOwgEJCvPl6C0L9VBbDcTe3SK7129krGDdupoQyExIqoXHj9nj88c6oUaOp+H0oSB8B/n8A8LRTacO73YyvOxAZmYgpU99EYTEdQwUCFFJi0uGbOXcxe/ZchPpjRLNLUgjj53qLaIsDB4+gqKQUeQX5Ano64KjB9+7ZhxYtWqF5s8exceMmFBUWl9Fu/s9240YOpk2bgeTkCnC5PHA43PB4QpCRUR0ffbRQBAft83uk8gWlZdudO3ajQYMm8LhD4HR4YLe5ER4WjVGjxuLc+XPIzb+LgiJqq3souUeKX4oFCxciLCICmk6Pp55+Br+cOYfC4ntiwqz+dB2cbh9I6xmu5BwCUnTa4CNfH4MbOTm4k3cbXx89gumzpmLX7p1iNty4eRtjxk4TpkTWpNJ1FYhjYpPw8cLloGYn+L7/4Ve07/AEKAh4HQVuak1LINSmUpsJbkYVNB1j4QQZ9zGLgHC5wySsSKch/S0XL97Cc8+9Ktdn7DstrQY2bdqlnID5CvQ5OXmYOm02yiWmlp2L5zNblCDhtbZu242bObnIzaPZcQa16zRSHnedBQ4n+4W+DXVfcj86i7p/nUXyN77+5jt5xus37mLXrsMSh2fyEUOdHk+sRD5UlCfkEeD/bkofzLQj4ElbaY/rDU60adsR3508LQOZGpEOHtL0nFu5QnubNmsj2knRVbNohtFjJog3mfsXl5agpLQEtKHpbHtv3vsC4ubNWmDjhk0SliN4pQUAf/z4d+jUqQuMRrM0U4A2mk0OvPH6uDLAU8vn5RXL92tXczBnzlz4vOEwGW2SwGM0MD5vRrt2mTj27XHkF5Gl5KH0PiMP9EjfwwcffQhfaAj0RhMyqtXAqjVrZZDyGQ8fOYpadRoIqMh8VDqxExlV62Jt9ufIzc/HzVvX8e57b6Fuw1qYv/BDZS6U3seKFZ8hOjpNjrHbOPmF2tuGRo1b4shXx0XzsX/enTsfKRUqQ6dj+MpeBhgCjkkrPMYXEiV2eI0a9dC4SSvUqdsEScmV4ffHiUlFZ2B6ek1cuZIrTOnu3fsYNGiMzFakgGJC0I4dB+SaNFlI+w8cPIqmTVuX5SPwWiJIeB96G2LjksVEuJtbItsPPlikkmokzTqQrBNIzFHJORQ+dlitHhEEXl8kZs16R/wrjESc+e0aoqJSJEVY5g+UzdJzwmZVGYFBLf8o0+6v1/aaZN8EPNEyndHsk/RKxnAnTZkh9l9ufq44vDhQ8wuL8ePPv2H0mEnw+SID+fZmxJdLxvqNm2Q/sgKCqvQeQ2OFIJCf78s4tQF169TH5s1bcedOrmj53Fx65JXn/tDBI2jYsImEhDxuUl0j3C5OurFg6JDXUVhwDwX5SrMz9EZh8duZixgzehK8njA4HUzTtMFo4Cw9N+rUaYi9+/ah5H4JikqLwOcg4Nnmf/wx/OERMJjMsNqdGDhoqDwrn/H0T7/ihRf7iwZUE1lUynHHTj1x+KujoKly/eY1PN/vOdhdVoyfOA6Xr16VUNmBA0fRvn0PYQR0glJ70xZ/+pnncf7iNbkGtTEFKpNbVKxa0WPul5FRE090fQqDh7yGRZ+swPz5S8U2X79hO9at24IPPlyCWbPouZ+JrIGvo0+fV3H9OqMd1PB3kZU1qixXnRmEe/Z8hTt3i0WY3czJw/QZb8MXEi2mmM2mfAw2O8OpFni8kWjStA1ycvIlinDh4g30HzBYAG0P7MP9KCRoUqi5FoqRkOkp08SOHj2flevxni5dvoPKlesEEpmYtqsmHzGFmXMYgmDnNpix+Wi23F8HfM2gZ3bcg2w5lePskhdUr/7juHDximi03Lx8Ce0wDktH3t59h1Alo7o4bgjkl/q/gp9//U1CYLdu3xFQFBQWISfnLlavykZyUkUY9GbUrl0PW7ZsFYcaY/EMw3FLSn9g/yHUr9cIBr0FVgvTLm0CXJ1mxfBho8WGJ9CDYCfgz529hBHDR8Hj5tx4h+TQq0k5bknFPXDwEO7dLxXtTqAWl6r8gqXLVyE0LFqoMul0h8wuOP3jGQHtnVzGxz+XxBNNr6g07dTJU2biwqVr4pTavGU7mjR7XEJYXbs/iT17D8ogFx/A2MlwuZVHn6YOzYNVa7LlOOYDnDr9C2JiE2E02WA0k/IbERtXHl27PSnZazt27cX5C1dw5WoObuYU4PqNAonZ375TKqG8K1du47ezVyWMePDQMeTkKMDfvFmIl18eUTZbkdp/5679yMsvFkFDev5E114q40/ngJ2TikweCQvSHxMeEY9+/bNw524heJ98d/MXLMGo0RMxcuQ42TISkZU1DBMnzcTwEaMxdtwUDB02CiNfV/8PHzEGCxetAE0HsoobNwpR87HmCPGVk2hHcKypVG5GhtTkLU7getT++j7QFF1VgKeUpW3FxnnidLQs+mS5JHswDkvbnI1hnstXrqHvCy9CZzDCF+rHosVLcPsuabOi/9yHmuznn88jK2u4AFKnmQTwmzZtRlFRkYBcheEU4PfvI+AbC9BNRhaM4OQZ2otWjBg+5neUPmgOnD93CcOGjoTbRYBZwYk1nEXHUFrzph1w6PAR3LvPaAHtd+YUUMPfx4qV2QgNVfn1zIJj2u3KVevEocb7PvXjz0hKqQCzlWmrGiKjooX25+YXC0V+8825KJdYUTQjafZ773+MgsJSSUBZvGQpEhIToel0wmqSUyrix5/OyHWZ0bZ4yQqJc0s2m96EyOg4DB4yApu2bJdQGUNmDG3RA7979zfYtGk/Nm7cg23bDmDTpi+xddseHD32Pc6dvyqhUtrwkiCVU4AhQ8YEpueqrMnNW3ZKYg2fed/+I6hXvxmMRjIWuyRLMYeCNRDYd7FxSeKgI9DZB+yry1du4tKVm7hw8bpc79Llmzjz2yVcuZYjv12+miMRnYuXrst+585fwY2b9Jmo988EooYN2gcSu9RsS73MlfeD24fn2T/6rMbtX9kPWnD2Gy9iMvrFI80XwWIGdLB0eaInvjv5gzjsmKTBgUPwMwy1ZNlyxCUk4vGWrWQfgpz/8z9uOQi/2LgDaalV4bAzfGdEvboNsemLzWDiTTAWz7g86R8BX6+uAjzBbtA7AoC3YMTw0Q8AH4i5kxWcP38Rw4a+BreLTMUi0285757mSfOm7f9TgOdgZw0ACqZr12/LfTObrf+AVwKOPQ2dn+iKI18fFWFHZ9Qzz7wEzi7jsaTtr2YNE882gXL02HG0bd8OBpNJYtrduj8lGpPZcUxj7fN8P0k9ZX+wdercTfwGvCYF5i+/nsP8BYtEa3bs2AsNGrRFgwat0axZBzRu3Bqt23TE8y+8LP9/vGiZ9DUzBZkiTMAzZ4Ah1vLlq+Dz9ZvlnHQUfvb5JpmMwzkEMsEpWJXIrJ4jPj4Fw4aPwqUrNwLvsRQ/nPoFX339LeiIo8D47sRpHD12Un5j/sKevYfFN3Hi+5/w3Ykf5fcjXx3DwcNHsWfPEWxYvxvJSY/J2BJHnTFUqDs1O8fYXzm4H537HwWIxpBTkGYxp55TK1XlEjV1NDEpDctXrkLO7bvSCGpSeg7MU6d/wjPP9ZGcbGbVEeT8n1lt/PzrmXMYPWqSTH3ljDjS4mZNH8fWrdsE8A+y6RTg9+07+ADwes6Rd4g9TqcSaXvQwccEnKBnXwA/bITY+tzPamaRDCbLuNC8Wbv/GPArAhpepp9ykotsdiAAACAASURBVIxV4uQHDn4j3mlGKNZ8mo209HTR8O/Oew+XLl8T2r5n7xFUq15f8tWZh8DppG3adsLuPQflue/k5mH02LHiEExLr4J3534gv9/NLcSGL7ageo3aylzQmeB0ebFw0VKh3WQIly5fx4yZs5FWsYp40n2+OClWwdRlamLG692eMISFMxknFknJ6bh+447c17Vrd5E18A2ZjkrAMycge91GuTYBT1bDGXF6PasZkdXxuR2SHERHbXh4PHo/8wKuXb8lDIM58zNnvYUnn3oOz/XpJ1sKmr7PD5DPzz7XD9179JbvA14eJHkBT/Xqg67deqFb91548qm+aNu2O1hjgHSdgLfZHpRJ49h7BMp/BOVf2ScaQ0cPqLyKOctvUgDCKYkm/V56Gad//EUl4TAkVqzsYDrw1mZ/hu9OnhL6V1BIzzxzslXCxoaNW1C/XnMBk0HPOfBmtGjRBtu37Qzk1zMdlkk5zL67j317qeGbQM+ZX3on9JxXLVM5jRgx/I0ykNPufwD48xgmgOeAMsFqYaksh8ydfwB45Z0vKX2I0gcAH5xoQhDExVfA+x8slDgy4/InfziNFq1awen2YN+BQwJKspbZc96Dz0fHl5oBR7AwJs70VuYqMJWXcX6Xh76Bzvjqm+MCuhs372DS5BmIjimn7tXmRvUadURrUkDSdv5i03bUb9AUnG3G6agsMcYQm8cTLfP3KVz4u4TRdJyy6sXFSzeEldy6XYxhw8YFqtI4xYO/7rNNZYBf8+nnSExMl4k6wWm+BDyLVlitPsmt4HRimi35BcW4ei0H/V56FR5PGCIi4+H1RUjzhUQgJDQSHm84vL5weOV7lPzH3zgTjz4MTjIKD08SoAfzEgh4pyNa6ioo+/3vHfB/JZj+v3BujRrdWFYthlRYVU4hvaeWYMjlsVp1sX7DJgEzNQVBzbx0DlJqJKbfko4SJPyfmoq26uTJM+Gwh8BGLRgoqtG0SQts2bJdMusI2jLAlyjA163TWIBuYMUVATxnXBkwYsTIMpCXlBTj/n169ktx/vw5DBs2HG43NZZR5tarAhsONG/WNqDhld2uAK/MjhUr1iE0NE5sWdqzDHExvXXAy4MlN53PcvXaTQwZNhwNGzeWVFrOK+Akoj59XhbQSDGNQEENal46r2jbUiAePHwErdu2w7Dhr4sDi331089nRfsRQBRObo9fNCSdaUxwYYLM+AnTBMSMdXMijJpqy4o1LCBB29sGm91bFkPnTDmaGDw+J6cQQ4eODWhuJypXro3P128pA/xnn29Bamo1uXd1XvpHlJYne6DQ4xx32u35haUCfE6b5X0y3s6EG4YN9UwAsrHAhUsEEyMN/I/OT4OJTkizPB9Zk8VCM9EPj5t9rWx4uz1KAf5Rgcq/neGIDW8QbU7AKIcdKb0q9aQAHxUdj4GDhsk0SA5c0nlOGiFF5UDjbwR8UeAzBcD2nbvRvkNn0e4OG6kbgWtG/fpNsGnTVsl3J+Cp3RmWo+d9755DIOC5rwBeKp3+GeDp8AsC/iyGDRv2e8CTpmv2PwG88ivwfv8IeIKelVqaNWeW4ZfiYc65nYd1n6/H2+/MRU7OHdy6k48dO/ejTt2mArygdtQFHIvNH2+HAwe/FmF4+eo1LFuxCkzioYDMyy+RWW0sLGIyE2QmuDyhQoNP/XhGTCHa+IOHjJT/VIKNJZCL7wrQdDramP5Kf4UZ/vAY9H7meXAOAAUtKf2rr74mIGY4sVKlWli/Yau8H97Dus+2oIIAnuExVSKL8fogrWcf+HxR+HTtely/cVvuiRl39Rs0U7F6A4uHsKinBTqZ784+M8vMQwoxzqPnf5xNGBIaBbeHuRGs/8dimjFlTFKVD3uk2f8nGIGUqabjTjnvHgCeoKeG5wtk7nb55FQBMQclAUOg38i5I2EsepX5nYKA2p3zpMeNnyw00MQyTHo3WJGGg7RunUbYsnm7THFlxlxwQgydTg8DnmWqCFqjzKl+WMMzlEfAk9aX4Px5An5oAPAGpeHLAN/mDxo+AHjaswENr6gttRJBaENKhQyMGz9NnoeThTj/m9M/Kcyo+WbMfBth4QnCDFhzjnSboS1qM9rWb7/zPu7mFoiJQxuYXmuCkSE2hrHCI+IEJAQF01g7d+kpU1zZp3fuFkmGI2kx+0pVD1ZFKFkxhhqepaPIuqhpW7bqgLXZ64XOE9AMzw0ePFoB2OCV+Pdnn29WgC+hT2IjEssz2edBMcvgvH31rh1Sqoo2+vc//CxhRL5XTv2t/lhdJYiY1KRnLJ7KQM1553OQBQTB36BhMwx4eSCeefYlxMVVEuURjAYR7KT1pPPU+P8Tg/7/z9eUMtXSAQ/VqqOXno3Sn6Wqmcdttbvxwosvq0kmpdTonDCiAES7lnSUWowDZO++w2jbriMMBrvUq2MBS4ctROLkNR+rj88/+yKQF39PvPPU7gT/oYPfoF7dZoGadw7oWchBUkkNGDx4qFB6mgAFhZxuqzT8mTO/ioZ3SU63ovSKTdjxePP22LvvgOQEUFAReLxX5p0vXZotZZeY/UWw0ynGCScuVzjatO0iBUBY+IP7M0TGUBVnpNERRS0bPIaAVzXryEQseKl/lkxQCQpFHk//xIUL11GtWh04nCqawKQVUvOatRri8JHjcm/MhNu564DEygl4FT5jFSI1eYfzHIKUvknTVvjwo0USAuNsOT7bxUs5GDRoVBkrqFixJj5fv1Wegf+vzd6E2NhUVQE3sE6Asq2p5Z3qOJ0d5RLT8M67H+Junorf//jTWcx68x1wzr0/LCYAdAV2Ci5SetJ7putSgC1fsRbfnjiNXbsOoUf3F2C1RsgErSDQSOkF7BKDfwT6YL/8HVvtn19Elawm/STFTK9UTSZe3M2lU4eFE+4jN0+F4Fi0gbnX1GTvzv1I9mXaKItMUsOzDh0LVdap3RjrsjeC6bG3buWK572goEQAv3/fV5IsQzpPekmPu3LaGfDyy1myD8N3DOcVlxSjtLQE586dw6hRoxEaQq1oUg4/nSpkSYfh1m0qz50DniCkkCLgFy9eK4BXhSpZtllVhaUWTUqqjC827ZJnJGuhdqcnnPZwzZqcjabsXh5jsTKywclHSsszzr1l6y7pGx7HLDfOfef56AUXu1xP7c5jmV/uxwcffPJAS98qlJJiLE2VlFwFYWHlERpSTu6VMxnJQDp17ilx/x9O/SqAF6FUyEy7HNHw1OAURKyZt379NkmpZb+t37AD0dEpgVLXyp5WphsBH6zkyzCjC926Py3Py5g63zX9DAs+Xire+ioZjyE6JlFSgwnyuPhkNGz0OEaNnoBNm3dIHj77+eT3v6Jz52fB5C5eJ8giudgHzcdHTru/X9j9S8CrEA61l0k8r9NnzBEKSgBJZZZ85ssrR57S7kfQuUsPcTypXGs7DDpVqtpkcKN6tXpYsngVcpnNlVeEfHqEA3nxX2zciUYNWknVWYKKlWotsvqNDS++MAC3KSBoNhQU4e7dXLH/L164hOHDRkouPTUszQALK8XqPKiYWgObNm8XoAvYA/dJ+vvRRysRXDWGVW2CFWoJeIbaOEWYg5bH8Vk5mWTY8DFSWFKcfDp6tv1Sh11yxC1kCnYBNbUh2U5B4T0UsNDFjTy88GIWvD5OTlJVZ/lZaXArMjO7izak043XunQpB3v3fo3331+MkSMnS7psv35DxQPPklxHj6qkG1a7WbkqW/qf74Beemp49h2rECUkVJZEHXmOe/exYcNOxMenK1NNVhzyB3w1ypR7wFSsksNPwcJMPQp4noPJNZyDv34DU3wXimD/aMFiuQfOP2BCDjPsyPZOnPwJ895biLTUmmVh32DOBx3FwVDwP1c4fz8g/q/fz78EPAconUy0GUnfWrRsL7FdDgICnI0AIjDOX7iGiZNmKDuVITIrVxahdg+VDDhq+9iYZIx+YyJ+++2iaOzcuwVlqbJz31mAtApM16WGZsTACRvDUno7Mjs8IcUpyQxoArDWHany118dQ+dO3WEyMhRnh8PGFW64Ko0HEWFJWLhwWVlegNznPc69v4cJE2YHnJRqBRoxXwyc603KbUOtWo3x40/n5Pn4bJzd1qJFpoTHqD3pfWZlWwKL38UJpmMNO6844phiy4FPAHPaanxCRSlKoZiATWrls+4cv1Nz936mvwDy3PmbUvGGguL69Xz8+ONlHD/+K7777gx+++262OlkDV/uPoiRb4xD6zaZuHwlR66Tl38fL700RIQXF40ICUnAus+2itChhl+2bB3i49JlZiQdabSrVXxc+QlkCjBXy9E7JKmIFWzJNFgLkO+WYUUCnyYEBeDVa7eksWIQ+5Y+CDr5WPyUKbfJKVWkn/guqNFpJtJBTDs+6Cj+vw6w/23P958CPFehIc3jloOg/4BB4q3+6efzOHvuKjgpg+CY89b7qF6jnjiVuD8z0bjCjImZe5xrrzkkRNfy8fZYuWItLl64JpNfzp+7KpVpn+rZF24npb9DlqbienNMlSWQExPSMW7MNHx77BSuX7slx54+9SumTZ2N5CRqLavUp/e4YmCV6aweOO2R6NGjN7bv/FIKPxIYp388h40bv0Tnzs8EaKUqYUXAKwCHiXPM643G7NnvyX2dOv2rPBsr1lALykouNi5jxQUVuHIPK9XSmcYJJXZUrVpbUpJJg7/97ifMnv2BJOmwPLbbTTrLMKAqaknA83NkVBI6dXoKEye9iU2b9+DEiV/x88+XceVyHn799QbOns3B2bM38PU3JyWB5rk+LyEyKkFi5LTTz/x2GUeOfIf2HXpIph299KyyO3nybBw6dBzHj/+EMWNmwOeLF2HIJKsg2LlVz8JnY00+T1mdA8beKVRGvDYGS5etBvuCcX+yC/o0uKVmp0BgNt67cz+UUGNyhUoy25C+AeZ1ULjIRJlARIgFUKnx/7cB4v/6/fxLwFMLBWdIWbgElc4mkvupXs+DEyUmTpqFyVNm49Ws4ahVu5FodVUQwyvJHFxGiqvDEPik2oyth4ZES1npsWMmYdrUNzH6jQno+1x/JCZUFNAKlTeGwkFnj6xP5hSBUb1qAwzMeg3Tps7BlMlvYvjQ0aj1WEOJAHBhCnVcGEx6rl/HbQhCQqLQ+9k+GDt+sswDHz58LLp1e07q0BO4tCfVhCF3WTHO4MortWo3wQsvvirx9Zq1GsHuYKyati6X0WIUg5qL5a+4VBeXT/KKF51FLehUG/n6eCllXb9BC2ENTPKhU1AV1rCL6UBt6nJHCOgpDOLi09Ct27PIyhopZaGmTHkHY8bMxOjRMzBixASpjlu/QXNERjF5xyxRFM6uGzFiLPr1G4jExMqB1Fquccf7aCt5A/36DUajRm0Dc9EDOe2yTiDXFvQHKh4p5516RobuOLXXDqcrRJKFmBDUp29/qZT7+hvjMW36bEyeMkuiD8y069HzGdR4rJ4k4HDmn1TQ5bwMR7SYDtTqBBS1PXM/CPr/6wD73/Z8/xrwrNjCxSJsHNicOstqLC54fVGIjCwnE0hY3MHvjw2UZVLOKzVH2geXI0qWgqJNTW+9kSu5yiISoYiJLoek8mmIjiqHEF80aOPbraGyxhwnwKjVYjlI3LAYmcATiqiIJMTHpiI+tgKiIhKF8lNjelzRgcHjhUHzw2KICmgwMyKiYmR2WnxCCqKiyiPUnyBamtMzZbVYo7LhVbVZ5cAjrWeFWjKayMgEcbDRtieoaburWDJtX8UQRAhYQwW87CN64KNjyiMkNAZ2e6gAWs4pGW2qlDSz2/gb/+cEHjbWBvT6YsBy1kyNLVeuCuLjKyM2Nk0cbr6QGLkXmlcSE9dM8HjCERGZgPDwBNHONDHIWAh4ZruFhMQgNDRe/A0sZUbPPEHOxvtnXUOCj8eQXTEawPCf0egMTIPlsmMWmeZLjc9JNnTUlUusIFVz+JnVjphhR289w3aqLj2FI52hXE2Wq9jSXFL+AtJ7qyXiEeD/5tDkg7DcQxcOai6NK59ymSFZ5IBxV+Zdc1DYZMulizgRg7Y6l5bmogiqjDPrmjNUQ6cbF5yk84WZc2pxBDIFrk5LLz63ZpbJYqEInVMovCuw8KHVHA6DTJtUy0czP94SWOyCnn+aCGQN/N3j4sw3rkbrh1Gjhid15jJPLqnDxigDQ4zKPuXAc8i9cW02G7MNZeYWtRrzvf2SxkpNbLUTPGbwngl40X602bnwBktfySBWtehJ97kGHJkAhST7iyAW+m5mVSGaDSFwOMIEVPQXyKozZq+qBKxjHJz3pvICeC2JBAQXl5TwIYFIf4UFNhtzAIL9yLXoGE6lWaHuh8/Cc/HemUmn/AzBGWtc104BnnRbhWFVIVNSep5LhLzDJ/F1fZmAeVBqy+1m6S8utEFgc5yw8hGdkkpAiNCQsKdblQkLAD6o9ezWyDLAl425sqna/7HD7s/2Df4WPPefbYP7/Nn2z/b/7/jt4Wv9q/M9vK/6zFyFhxvH4h/75Y9Tav/4/++/C+B5Ei7YSK0alPIaqTxDTVwySu+ATuqte+Gko4pLFxtCYCbANDesBh8ckkLJ1Eo3DJwow6WKmAdv5JYZWDYRAvyu438S37fJfzphEao4gqxEGqB+XPv9j53EBTMINiVEuBadsgODEzG4bj2XjmbjMtYmA2vmR8JgDIGBoDO7YLZyPXoHHGYPbDoP7EwnJjXXfLAblYPRwuWoXKHQm5zQmxwqjGbywMKFGZlXwNg4hYXeI/1gpSbj+ndcfJJLRnHlWKNavFEfCJPpJWbvg5Fmit4LvSkUehYPZUyc6c20aQNb/k+BSxufSUsWgwsWvRN2CjAu4UQGQqcm8+A5xdXkhcNKr7sPeqMXBhGMXEzTL6xJ1tHjhJng8tVc8ZUVjth/XBOPjfdPX4Ssc6d8EgarR70rMjsLBYJNKuNYTE647F5YjU5YyASoDCjguL4ca/PxffMzhTkn61B4kalxvAT7m4uQli1myud9qJXNjw8uI66Sw1gHT897Joth4zOJkHuQJkyhx4Qvi5kTmxQDM/D90OdCXxKPk5mCLjkHn5vmnewrKxSz6Ipq9G/8cQz+Z78LaNnfASHMawZXUKaZy2YxKrNG7euFJvkvfCYvdBLN4OQ2Njo6/WocG3yyeIzZRIYUKsqNy4NT0VmN4aIAmV5uFsX0J4DnA5h0dK55lOOJIGWhQodXvTQ6qriAo9kPCxeP1IXDypNrYXAZomDXhcGiDxEQakwzJcCZU220QTOxWaEZg82mfqcw4MCQAUImoaSXkmAUPv9+h6vOiIdRnwCDMVKewcBKsFbG+G1wmBxwspy05oFX8yPEGAkHO5WMxOyB2R0KkzMERptyYnEdO6fJA4/JCxfDcpoNTtqoHMA6Lk/N/vIFAEwQUztyiWwuwqkGFNcA0HGJLtJpAwH3h6YPgybNLy+dEQoz89h1Ntg4cYaRCK72qjlhp6ORC2ByBV02esGNIdCxjBQjFWa/+BeY3ipgZvlsrgjLPAcOQoYSKZjY+HsAQASF0RQCIwUXqxJT8PM9Cdvjqr4O2EwuOM0eOIxu2A1uEUZGHdmGylGQeQZ8v4FxYNTZYdUe9LcrIGBNgZpuGlce5mBn42eJIHAMKGAIQCgQucBnEOhUFBQoHG96lfhEZkXnMvM3FHPkIp4eEPAmS6g8k46ZkZIO7VBCmePbQObDa/lgILgC7d8CPMd0EA+BhUyZQWpkzgP9GMSd5oNJx7UhVOah4IDC2hIKTfxXZGHMYgyFiSnvVoKegpH3S0FAH1kk9FokDFo47KZImGhmcuaoUQmYhwWURqlKb6mRgDd6YeT0Us7zJpXlHHabHxodVEyWsEbBaIuDyRoPvYExZVa8ZZkrDtJQmKzh0Ejh+NL5slnskKB/uBHofEHykrgfNcA/Av7BUjv/dQnLRTaMuhgY9TEwcE17PpvFCaOVdeMYCXDBpvfCoQ+DQx8Fs44ZYGHQ6MwyeaHRxrb71Wem0NrCYOdyx6LVnQJ0gp0MwcLSTZTKBHwZ6NkXlLDuhwDPfcgAAqDXU9v/sYVAYyUiWb2WK+9aYGCFYEptmiI0bXhNzQeL3i8OSjUowqAZI6BZYqA5EqA5E6FZ46AZo6CZotV3T3lozgRorgRo3iRonkRo7kT1nb+zOcpBs3MbB42LanJNPTMFGQcw35VL5jqYdE7YaKboFeMwyT3aYGLlIVk9luC0Q2eww8QIjeaES3OBYHfSR6P5YJQFSQMgfwjwfP8U+kFNGCxqIgxFhJMLGs1LNoKeSoqskeNLVtulAKBpRM3PxUAIeq+wH91DTIfani0IeGKBoP/vUDgCXmHIvCcKQxcMAaAbaW4Km1BaXpZvoyDmvVsc0CxUmBZoNJXIiK126G1W6KxmaGYjNAMdtnw+gjsgFLRQ0fA2mtEa8184p0RNiAuCXtNJLTFSetrVXpGAehsljAcaJSFphSlCXr7RnwZXTDW4oqrD6K0IzVYOmjVeDShjBHS2KEVDOFAJZGoG2ptG9dJ/D3Q+3ENgf0jDB+0WJV3/HcBTekZK48KXepNHAK+32mGwkqLSLmcYkB73KOgt5WH2psMYVgm6qIrQxVSE5k+G5oyBxrkFtiiYHdFqTT2dDw59CGwycJWGpdDUiZYPaHqDksTCWoIaXoQCAR8AvQA7CHBqOHUOnoeDlE48FgOhf4NMgQAw6mg+cBZaJMyWeBgsCdAs5aDZkqC5UqF5K0HzV4UW8Ri0qDrQImvDUK4RfFUzEVWvByLr90BEgx6IatIL3tqd4anZCc6q7WFNbwVDSjNoCQ2hxdSFFlkDGgWEKwaaPRKaJWB+BCg1IyMWMh36HpgZqbPDprfDYaT2d8MpeRh2UPNbhJE8ALywIhnw1Gx/0O4BwFEYEBR8Zg5cZW4Gxgy1O8eozQcdFwZ1hsDgCIGBZb+5JLasXkxA0D+kHIVKWHBsktIr80ZnUCaCmAqiNQOmQ+De/i0Nz+sGlZ+Oc0Pc6v0J2ENg1AhMpeFltV8xn0zQTBo0iwadxwxLqAOeGA98CR64o22whGgwuDRoVg2aQScCzmTxw2jkNPcwWEzhsJrJUlUa9j8AXmwHkRLK1tFRQ5PqkcoxbTS+OvwZLZHe8mnU7vIy6jzxKmp1eQV1nshCg+4Dkda0JyIzWsDgr6gEgzEMGmOsLFJIe9LgkgHL+e0yx12cWHQsBQAvjsEHdD54P0HQC1j+wVHxe7skKL3+ceuFSeeHSUfnmlr7XG+2Q2d1QLO6odFBZo2GZoqHyV8dcdW7IKNtf1Tt9Coyur6Kx3oNQsYT/RFTvxMMsdWV1rPGwmBnUYoo0U6iZRnHFiDSZg8MKNJOscMVVZM0UgoEMioKWYNqpJvBRkoptJLUMvDZbFU0lLa2Oh+FQzg0I4UQNXgKNGc6NF916KMawJjYApbUDrBX6QJb1e5w1noWtlrPIbTZK0jtMQG1B7yDelnvo07We6g7+ANUeXE2Kj0/E2nPTkXSkxMQ/8QoRGeOQETboYhq9QpC63WFp1pLmJLqQAtPh+aikI+GZqGAjITeEAITl+IyeJS21zlg4zoFLDem2YSRmOlr0FxwiHZ3B7Q7hWSQxgZs1wCdp3Y30v+i+WQfBXgVQRAlQUVkD4He5YclJBpWRkLC4uAIi4U9NBoWT4SAXy9RkADYBfgB8D/c5/QJBFugz8X8+i+PuYfHpvJ5SGVizRHQ7ny2UJgCNjeZBEGpNzqht1oU2J0aPOWsSK0Xi1ptU9G0awZa9aqO5t0qo2778kivH47Q8mZoDg2aWYPe6oDVEQarLVKUEXNDyCbIcP6ICZktxx+Vw44UzAvNEQFrRHk4E6uiwVOD0DZrOp6e+DGen7UCz85YhmdnLsNL72ZjyIJN6DNjMZ4YPhvVMl+APaEmNFOUskFNjDdz/Xbalm6YdC6Y9G4YuX45m9i1pBsPKIeAXSRvUAL/mVfy4Q7955/5TGYOGjqo9JwIZIfeHKBMNFtIVz3JsCU2QlqrAWg/aB6emrIa3aetRreZq/HMu5/hyZkr0GHkXGR0GwRPldbQwjKgc6fAQGZDh4lG56UCvAzM4P0HgU97tEyDKcBLAopUbCWw2R+kyC4Y2crsO2UGGK1hil3QBNDRro+AZo6H5kiF5s6A5q8DLboJjEntYcvoCXft5+Fp+Aq8TQfB03wY3K1GwdriDXgyJyOl33zUfiMbdcetR62xn6Pm2M9Qc9znqDFmHWqMzka1N9ai6mtrkDFsFaoMWYFqgxai1iuz8VifMUh7YiBimj0NT0ZbmOLrQAtJh+YsL+9bR+1CJy5ToZk0JWC3BLZOWDU37BqBrsBO7U6ThDasor2BcUfAi3Znn4Yok0XMTYKWCoK03Q2DIxQWXxRs4XHwxCXDE58MT0IFeOJT4IlNhju6PJwRCXCGxUNvCYGe5pk46oLgp2BVgle9C5UUJL8FhIFiBf98fP0RTP/4ne/QCgOnDDNVXJ6ZgiwcJi0CRo0ONj4zn80IzahB59IQV8WF5t0z0Ht4cwyZ3RmvvcvWCcPfysTwOR0xYHxrtHgyHQlV3dCo7c0adBYHzHY/yFjk3hnF4jP/QXBplGYMSdFLL4Az+OCMrIDUeq1Qv+uLeOnNlXj+rXV4ce4GDJi/FVlLvsTAlXsxcNU+DFq5B0NX7sbIFbswYM5KNOk9DKGpjZQm1EVATweCgXamR9m9Oo8CHwEYeOG0acrss+AACIKG2z/c8D926n/8UhTg3UrLiCPHCgOdiFz7nGaLPRqeyi1QpcsQdByzDM+99yWem78fT8/fh6c+3ounF+5Fz/e2os9HO9Brdjaa9J+OuPo9YY6uCc1eXkwZncYwIKW2ci5RgCm6GBRatE8fUHZqeAOpup5CiALQCdrC0jQnTNJcMLFMF5/fTJOKNngUNHMcNEcKtNDqMMU2hqV8G3iq9oS7xrNw1+0PdyOCfCTcLUfD1XocHG0nqKRD9AAAIABJREFUwtlxJoztp8La+U3EDliKjLGbUX3SdmRM3IpK4zejyqRtqDxpm9pO3IrK47eg8vjNqDx2E6qO+RzVhi1C7eHzUW/YR6g7cC6q952GCp2GIbbxc4io0QWm6Dowh1WFwZ0MvTVGogyc3Wc2emEzUUMT3F7YNW+Zz4NmEH/n2BN6zYEZZDABp5mF9qj4KLwiDIUaG1zQ2byw+iLhjkmELzEVoSnp8KVUlOZNToM3KQ0+tuQ0+LlevTcCFrdfqD6FhfJBUPMy7fv3ZbKFhdFbL5Sf75EC4j8eX/96LFKx0ffCRmcdhRzHS4Q42gyaCh0zJK3pNRg9GspluJHZpwaGzuiECQt6YMqKrpiyqiPGLmmDNxY8jsnLOmL68p4YOLMNMl+ojtgMN3QeDZpRBz1rFdA/wTFIB7zMiPz9/Wt0FpDzq/Xhabf7EZVaG216v4IB0+fj1Q824fn3t6HvR9vRf9l+DP7sGIZuOoFX1x9FvzUHMGDVXgz9dD9eW/kl+s1ahiZPDkF4ahNo9iRo+kixNek9tujYvPLyOQDEq1wGenVTInCCg6BMQ/7+hv91Jz/YnyEQM+PQmgUWLl1sYAzZCo2rrNAZ6YhHRrchyJywHH0WHUaP+YeR+f5BdFtyDN2WHUO7D/fiiYUH8fTiw+i76AB6zlqHen0mILRqB2juVGj6KGi6cAkBUrtTeAngxWZUwkrA/jvAc6ApsJuZl8DYujjjlEOO9Jeg5wARCm+OUfY5+9NTGVpkXdgqtEXIY70Q3rA/Ih4fgtAWr8HTYjQcrcbD2noyrO1mwJo5G5aOb0GXOQda2xnQOs6B76UVSBm3A5Wm70fatH2oMHUvkiZ/ifKBxs/Jk3cjZfJuVJi8GxUn7UD6mM9QbWw2ao5fh3rj16HB6E9Rf9gS1M/6APX7zUFSq1cRV783vKktYfRnQLPFq8gDc/WN9CArbW3V6O/wlYVAKfAFWIHwpXIIUuko29aq+cFjLEK3A5EfswsGVygcEXEIKZ+KiPQqCK1YCd6K6fCkpsFdIRWeCqnwpqUjtHIVRFSpAntUNGz+MJjcPmXG0ckn8wUC4Toqu0ALAl6EUNCZ/G8AnuOPYKczU71TOurCAl51JoaRBYdD05nEZo+r5EXmc49h2KxMTFnUHdNWdMTrn9TF+E8bYNzqehixqAbGLG2AGdmZmLS0MwbObIs2z1ZHaLJdjtc7XNDRFA/mMogS/70PTDObuNwPM8gCM5jMEajT5kkMmv4Bxi7+AsOX70PWyiPIWv01srKPImvDd8j64gQGbDiOl9Z9jedX7sOg7MMYmX0Ibyz/Eq/OXoWmPYfCHV8XGr3eejoQVIyfwPc4YuAwMWaoKN0DzRgEyEM0j+Anxfovdjo7nBLWrLPAzHXTTIwhW1SIyRIGV5Xm6DJxMXrM24bun3yNDh9/g9YLjiJz6Ul0XH4SbRd9gw6Lj6Lz4m/Qc9FhPLdgHzqOXYwKrfsp55i1nFBshkeCziXRWoH7lriyeOBJxemJV+vGk8ZTo5tp73ICDQt9sMoPt4y9098gWobe8XLQXJWhRdSBMaklnFW7IqR+X4Q3z0J4qxHwtx0Db7uJcLabKkA3tX8Txg5vwZD5LvQd50Ij4NvPgtZ1LkJfWYOksTuQNmWvgL3C9P1InLL7QZu6B+Wn7kHSlD1InrIHKVMI/J1Im7Qd6WQBE7ag6vjNeGzsRtQb/RkavbEWtV7+CLVfeAsZ3ccirnEfWJKaQvNUVM5cU0yABYVBL3YrQR8Cm46OKr5vBT4VGgxo+zLAM+wbKoyQsX064kyuULgiYhFSPgX+1IrwV6qE0IzK8FSuCFd6BbjSU+CuXAHuKhXgSC8PW0oc3BVi4UqMhCUyBJqHoUiGiR0q7GpVGZak8gL2svdG7R7wMQXB8x9s1XHB43+/FYWjoyDn+3WKw47xcobRdKLdQ1REzKDBGWVGyx7V8drsbpi8sDsmfdIBk1e2wPBPquCN1RkYs7YaRq+uhrFramHyp00xaUV7jJnfBYNmdEXlxvECeM1ihtEZKv6zMtD/IY9AozOLHW+SCSde2Pyp6D5gNKYt2YiJq3Zh/Mbv8PqmUxj+xSkM2vg9XtlwAv3WH8cL64/hhc+Oos+aQxjyxbcYvu5rDF+xF2OW7Ub/acuQ0bKv0oJMrqATL5BM47BGwmmOELs3GIukdmTnlHlhxXtPx56ix/8u4EW7a0bYTXRiMAuMlD4aSW2eQ+95X6DLh3vQduHXaLn4O7RY+j1aLjuF1st/QJvlP6D54m/RevFxdFhwBL0Xf4WeszegVu+x0EKrQnMmQzNEQq9n8oOi9eLwEbBSWDFEF4i3BwAvJhT9GQHNzsQZDgimG7P4ptB9VnOV/SOheTKgRTWGrkIHOB97GiFNBsDfcghC2oyEp+0YuNtPhqPDdFgy34Qx8y3oM9+F1mEetMz3oGVy+w60zNkw9vwQEVnZSBq7EymTAqCevh/lpu5BQqDxM1sigT+F272In7IP8VP2I2HyPpSftBcpE/cgbcKXqDJuB6qP2YKab6xH3dc+Rd1Bn6Ba39konzkMnto9oJVvAi00A5o9UfqIkRCdLgxmvR/mAOCN4thkHJ1N0VDa8KS9Fi0MpPUcG/S465kt6IuAL748wlLTEJqeBk96ANxVkmGvXB62KomwVikHS5UEmCrFwFgxAvokD3xVYxFRvTzs5cKguW3QzBZoLMdlZLhO0Xsxn3gtAf3DgFe0/gGAAoopIACU3R/w7AdC3MHfJPLFBCkR7kEWyzkEMTCYuQiKBxodyC4dEqr78fTQFpi0sBcmLemIcZ80xcQ1DTBiRRpGrE7C62srYHR2OsZmZ2Dcp7UxfkUzjF/cEaPe64UGndKhCa3XoLd7YZJMVfoGiO0/aHhqGwJNnAe6UCRmNEfW5A8xJ3svpq47iGk7TmP8zl8wevtPGLHlFAZtOolXNnyLlz4/hn7rjuKl7G8wdON3GLz2CF5ZtBOjVu7HpDUH0fP19xBfu5N4dHX2SOgZxxenjBdmA1+6eplBDf9XAJ70mkkiFiMlrBFWqZxrVfaiJxmVn8hCr/e3ouOC/Wj5yVE0XXoCTZf9gObLT6HVsu8F9E2WnkTzpSfx+IeH0HXhIfR+fwdaD50LY7mG0KjhmdDzEOAlaYdUStq/BrwpKP11KlYs8XdjODQOCHsy9EltoKvcA9ZafeFpkoWQ1iPgaz8ang7j4ewwCbbMqbBkzoQxczb0mW8FAE7NPg9ah3cF7FqHmTD3mIeorDWoMHYrUiftRMrknagwbTfKT92JxEDj52BLkt++RNzUfYidegBxUw4gfsoBlJt8AEkT96PChL1IH/8lMsbtQMaojagxMht1Xl+FuiMWoXK/WQjrkAVr7SegxdaA5iwHzcDIAilshExqoiOVNr5U8WFySlkuBmPg/oAXm4klFPwO6K0e2EIi4C2XCH9aBfgqpcBZMRH65EgY02NgrRoPS7VYGDIioc8Ih6l6JGy1omCtGYKUjlVQ55lmqNi2BhwpYdCcRmgmI2RVIQqbQJadgL4M8CpFOei8+68CnhlvVr1HslHVubwqtOuiT8YOfYgdnmQ3anVMRb9JbTHuk65ir49e0hDj19TFyDWV8dqnFTDy0xS8/mkqRq2phDGrH8O4FU0xYSkB3xMtnqwOVywT22jL22Fg+JQKQxyCfwC8ZP7wIfmnIRzVm3XH2PfX4t0NX2PWF0cx88sfMXn3zxi/6yeM3nEaI7b+gCGbT2LgF98per/+W2St/QZZqw9j4Ir9eG31QUz6/CiGLNiKjkNmISStHjQnQ19+GBwxMFjoqAgmNjyg9QS8cngFHCscAIFB8F/V8DwfJ7KYTaRTZljpqadwM0dAF1YF1XuNxJMf7kSHRYfQbOkxNFx+Eo1X/ICmy39Ai6Un0WLZ92i0/DSar/4JTRZ8hcwFB9F7wV50Gb8EjvSW0IyxAnhq46CGZ6qo1G+TbDHG2gOZdH+i4anlgzSeoRQBOz3xpMLuFGgRteCp8zzsDQfC/fgIeEnfMyfAnTkJ9swpMHeYCmPmDBgyZ0GfORuaAP5taB3egdZhLrQOb0PXYRa09tNg6/42Yl5dgdQxX6DiRIJ+K9Km7UDylG1ImvrnjYIgdupeRE89gOipBxEz9RBipxxG/OTDKDfpMMpPPIDkCdT4u5AxcTtqTt6COpPXo/ro5UgdOA/Jz0+Cr/mT0BJrQLNEStjW5IyD3RYFq94Lq0RrVHUiCbcFx6HmB6mvSihRgNfZPLD5I+BNLIeQ9BR4KpWHNT0WWqofusph0FcLh656KHQ1QmCqEwZP8wSEt09Cxku10WjY48gc3x3thj+B1HbVoEUzLKuDZmNGKP0Dyp+gnHXU8hx7QcD/XqP/EfhBbf5nWwmtak7xXZkD8wgIep0tBDqPD5rbAl+qH6nNyqHdgNp4ZXY7jFqciTHLW2D0ivoYteoxjMquipHZ6QL6EatS8NrKinhjRXWMXdEEE5d1xLj5T6N17xrwleOzaDKHQ8fJYBSwfwZ4AsBu4RxwZn6Fo2aLpzDm/WzM+fwrvLXtBKbvOIHJO09i0s7vMWHHDxi3/QeM3X4KY7adxphtP+K1DSfwyoqDGLj6MEZkf4PBq/ZjyMp9GL56P4Ys2oSmzw6CIyFD0k117jiY3fHKax1IbFAZR8rDLVpeOvuhdM9/w4aXlyMz0BjuYkIIIwZMlY2DMbIGHus9Bk/O3432nxxBs2XH0XDFCTRafgLNln2HVouPoeWSb9FwxSm0XHcWzZccQ9v5+9Hjw53oOH4RHOktoBmiJLNNaXg6ZPgctONUHj/TIR+kyYZIUo6ieaT0AeccPfVMweVEFgm7RYon3hpdG86KmfC3GAF3m/Fwt58Ed+YUOESjT4Gh/RRo7SZD33EmdJlsb0KXORu6DrOhaz8berZ2b8LQbjr07abA3m0OYl9ZhoqjN6DShM1Im7gZFadsQ4UpW5AyZQuSp/6+qd+2IXHKDpSbsgsJU3YjfsoeofgJkw+Ardzk/UiYsBsVpuxBlRl7kDFtGypNXIf0sStRZdxy1JzwCTKyJsLzeGdokRWhueJgcCfAbo+GnTMVCQZNZeGJIBaaTCrKzDEOWG5JrwlQDyyh4fAkJsCXngRX5QRYKkfj/yHurb/jurJv31PMKjEzY4kZS4zmMDqJWSZZtizZYpYsQ+xOvt1hJ3YSp0OOIdjpkCEOdX/fu3fc8f6Yzxtrn1LspAMNd4zvD3uUVJLsqlNn7r3WXHPNZS+OxeALRct3ofkcmGtDiFyTRu5jZZTuqaNtvofGyVY6p/tYP3svDTs7iKhIQgu3o3lEDSqKNr2EJYD/CehV9PvbHNIvAf3O50Q2qyvqJLwOvBerHc3rwBTrJLstm+r7fKw/VMe2lTYOvtDF0dc6OPJqA4NnSxm5UMnQ6yUcPF/AgZdzGTybz9BLpRx5qYnxF9Yy+adHaNyQjzPKdBvwJnEK1nX2PxcOaSbNjdsZhdkibGEEvoa7OLBynsULX3H8/R+YuXSDqSs3mL76NTPvf8vM+98z98F/M//B/2b+g//D0Xd+YOC1Gwy8foOBCzfY9cpf2SkluwuyAXzKrhMvUtL3AIboLF2tJf3nItG1Rin5olyM2yU6XYSil2oCoP9PAS8NC9K0onlwm8NxGCOx2pMxR5VRcv8RVX7reeEa/pdvUffKt9SfvYX/xZt0PnddhfnVZ3+g+c3/T20IrX/4mL6Vt2k7dBpLRoOem5pFXiwSXh3wSkgR0DjrkmORHUuItUrYSUlyFfDS5CFyT9ls5fei0expGCPLCMntIbLmcUK7x3H1LeDsWwiE7nNovTNo3dNoXVNoaxbUEtAbexcw9Sxg6p7H0iVrFkvXNKauSdwbl0nc8QJ5w2+RP/YuueMXyZ26RNbUe2ROv0fGzE+XPKfW1EUypi6RPnWZ1Kn3SVHg/4Sk6U/VSpj8mLS5T8le+gvZC++TOf0W6ROvkjl5noKpF6mcOUP6ln04arvQ4vPR3PGKvZfSXJDqQ3DiUKAX3Xcg0pSNT7odlWRbcng3mjUIU3AYrsQ4vDnJeAoSsftisJVGoZV40co8OJrDSbgvm9J9tbRMdtO53EfryU5qFxtpmG2he2EtveMbKX+ogRBfvB7a2yWnF2luQF4bCO9XS6sS5v8mMfezvP1OsMu94LLFBRq5pPQoy45mNaBFOQgriqT2oXKad5SybriSzcfqOXC2nbE/dzFyoYl9L8oJX8/Qa9UcPF/G4MvFHHypmKEXKxl53s/oM2s4uLIJX1OsLsIxaUrSLtGi3RKtOkf/AfBCFNkVqSYa8kjy6jay/9h5lt68wcr73zN76RqzV75i7vJ15q98zcKVb1i6+gNLV/+bpav/i+mLf2Py4t858vZ3CvB7Llxjz5vX6X/zGnsvfMrRVy/z2NRx8to3ooUKgROG0RWPzSntrAISESL8TLgipJdq6vjPWHr1oYlO2iwphEhA5f8SEjERY0Qpxfcf5f5n/0rPi9fxvyKA/4aGs1/T/MJ1up75grZnvqLihW+oOf/fVDz9ObUrl2iff42GvcsYU2tUOK+ZJToK+R3A38nQ3wa8CG2kQqLX6SNV+c0QXoI3q5O4qgeJb91HsNTQ+5ax9i1jkvC8dx6tdw6tZ0Zfa6TkNo+hbw5j76yquQvIbZ36snZNYeqcwL1hmYTtz5N3+E3yRwXw7/4u4LOn3yV38s/q1M6ZfIusyXfJmLxM2o/A/4ik6Q9Jnv2QtPn3yVy8QtbCO6TPvk7yxFmSjjxF4dwZfCMzJN63FXNBDZpLejBERx+EVynv9GYgKUcqwEsqpDZI4XxEtSmbYaD70uPFGhuFJysBjy8RZ0ks9sooPP5YYjdm4ttRQeNYB91La+g9tpaO4920PtVG4xk/jcda6FjuZePyfaw9eg/5feXYEkPRHHqZVvT10oW3qrrTga6D/Scg/i2A/8PPQnE7EjHJxiUEmpKqO9C8NkILovH1FdC8vZqW/mL6Rkp45HgtB17p4MifOxl6rYE9L5Yx9GoTQ682MnS+lqFXqhg6W8nhF2o5/Kdmhp/q4949VcTmBxR6ZoMCvMUcisseq0qi/wB4sY/Sd1bJN6PJb7ibQ0++wcp737J89VuW3r/O4vtfsXTlGsuXb7D03k2WLt5i6d1vWXj3Oxbf+zvHPvw/zFz5fzny3g8cvvIDey/eZPubX7H/na8YevUyE+feYdPgFKH5tUrsIk04QuDIRZA67apwRULi22KMQPfWf3LCi1TSLk0zemioh1YSbsdhCC+l5IFR7n/2M3rP3sB/TgB/i8azN2l5/iu6//RX2v/0OWXP3qTw2ZtkL12ieO4N/LPnqNu9iDGtRm9SMetTUOWEV9UGlbuLKk420NXOt18B/I/1evl5LJo3D2dqC1Hl95HcvJP4rsN4eucx9x3HKOW13mW03iW0vsXA0k93rW8OQ980pt4prN2T2DsncHZM4Gwfx94xjrljDM/6BZK2PUvB0Bv4jr5N3tjb5E1eJGfqXbKmZV0k844l3+dOvYVv/FUKx8/hG3+N/Ik3yJl8m8zJ90idvkzyzBUSpi+TMHOJxJl3SZ59m+S5CyTNnCNu/HlijpwmZWqFgullMnYMYCtvRguKV5u+NBx5NCdBmhO30koI4CXkDQBeclBTBCYhe0VMIs1WDg/GqHBcmXF4ihJwV8SSuC6fnEdLqRr00z7bS+/KWnpW+ug41kXzSgtN/9VEzR9qqF6ppflYOxtO3sNd8w/i39ZDXns5msuqM+VWORh0wEtdXu5DVXH5sWT3y0z8b24GWih2awIWc6zeLCUaf7cDR3II2e15tGxvon5HCQ39+fQcLWTzmQYOnO/k0OutDJyrYe+LFRw852foXAvD5/2MnGti5GwDw881MvR0K0NP9lHVF4snXtfeG6WpRlSOljC8znhlAPMPgJdQ98dQyhRFTv0GBk9fYOXyLRavfM3S1RssXbnO8uXrLF26qQC/ePFrFi7eYv7db1i49D2LV/+b2St/Z/LK35i4+ndGLn3LwXdvcfTStxw6/wlTFz5j35kLSonnzazVu7Fk91Y64mBsxjCcZinFCGhuK+90U4rfzqF+i9BTJ7zsqnJCqK4paVOVEyMGLaqEwgeOcPefPqH7xWs0vfINda98R93ZW9Q/d52mp/9K/R8+J//El2Se+JK0patkz79JyfQrlO0/jpbeoCvfjOJnJzephJ6BTUrdoKIPF+BHq8YcPZfXS3ciNdXbakVHLWW7FDRzBlpKO976rQT5+wlrG8TbfhhL1yiGnkmMPXOYeuWUX8GoSDkh52QTEPDPYeqTSGAKT88kwZ0ThLeNE9F6BHfddjwNWwht6ydx/TA5D83he3wZ39YT+HaeJmfbSfL6/4Bv4BmKD5+ldPQ8pROvUzLxOkXjr5M7cp780QvkT75J7vTbpE+9RdL0myTMvUXC4tvEL71F3OIbxM6/RszMWWKmniNm4o/EjD5F1NgJoueXSFmYI+PAEN62NWhh6aoXwKWFK+WdAF9EWPI56qmcPErUI7m8aM5jVNunQT43EZUEe7ClhBBdn0z2XT7qBppoGmuhY6mT7pPddJzsUED3H2um+WQzjacbqTtZR91KPf6VFrqP99K3tI7u8bV0DPThLYlGi3Gi2Y1oFhvizSB4kEPILnmwNDcJoSoNQ6JeU30OujRceAd96a2uOocj0Z6keLqizm5Iwm4S3kpOeCvWJC9pHdlUbqmmbm8tFbtLqNzno2OsjEf/0MqBcz0cPt/K0Nlqhs6Wcvh8OcPnKxl7vUEx8yPPtjD5/HqGVtZy764awpI1LEEaRquG2WpXFnJWs1eBXt7Hz/Ghif5ZZJ56zTiCzLo17Dt1juXLN1m8cpOlSzdYfk9f6nS/dJPFS1+zcOkWC5e+Ye69b5i99C3Tan3H9KXvmbr0A1OX/sbUpb9z9M/fcOS1G4ye/4ody69RvmYnjrgSvewU6IW2C+BNYeqDX63NiwbeYRSm9qdlhZ+/gd/6Xs/DVs03An3aqlc8Ci22mPz7D3P3M3+h+4XrNJ39huqz31Hx/NeU/ddXlJ76hKLjfyFr4XPSFr4gdeVTUpfeI3PqHL7B02gZzWiWJJVrqpKmgF1UXJIPylJ92nLTxqFpCXp+Lrm+AruH0EAPvkmTCoZ0tzVgb+on9uEVgjbN4+6VkPwo5r5hjH0jmHsnsfQsYu48jqnjFFrHSbQOOflFTTePqXcSZ884wV2jhDePEFY1SGjJNiyZHdiyG3HkNOPOa8db0E2wr4+QwnWEFG8kuPRuQmseIqp1O8nrBsl+eJKiXSuUDz5F+YhIcS/gm3wP3+xlcuYukjTzBrEzrxG7+BrxKxeIOfYqUctnCZ97htCpM4SOnyJi7CQx46eInD6Gd3mGiOUJkg4PEdyzES0qRykUXVqMEtZIiiVtzEpaKxulkr/KISQtwKLMS8ChJWHXpEsxDIPbiSvVS05fDu1DrfTOddCx5KfteBPtZ5ppOd1E3fFa6o7X4X/Sj//k7dV8opnmE620rnTQudxD78JaSrZU4K0I1+vYdtGk611tFjmdZbOWHgZpKFNeAqLOk54HUUIK2SgqTiEedXMPnYuSNDUMiyESmyEOtyEDmyaAD0ILcRFVHUfp46VUD1ZTPFBM0WAJJYPFNI9X8fCZTg683MfIK62Mnq1i7OUixl73MXahiNHzlYw8V8/4M31MPnUfD/X7yS+LxmQXoBuwWGzKgMQsJLVUowwyfVnK7T8F/T8H+Etyut9Qa/HSTRbU+pr5y7eYu3SL2cvfMHP5W6Yvf8f05e+ZvvwDU2r9jemr/w/Db9xk+p1bTF/4iodH/0Cu/24skTlqkzGrDh8pa8kL0z9oCY1thlDs5v9sfrgOeH2ohZQf5ZQ3CRtuikKLKqbg3iEefO4L+l64SeML31D2p68pPHON/OOfkr8oEtQPyZn/inRZxz4jffES2ZPnKTxwBi29Bc0kRpLRiodQFQExiVB92VLqEaWWkFBShpR8VM9FLQY9Zw0WWy51s8eg2fKwFd1DxmPH8B1+lZTdLxD+wCmC71nGdfcU9o0TWPqmMHbNYmhbxNC6jLF9GVPnEo41i9h7x3F0HMTVvAdv7Q48RY9iS9mEKaoNLaQIg7Qye7PRPNl60409E82WiWbP1oU93iK0sDK02BrMme0ElW4gqukRorv6yd9+Gt/AS5SNXaB89i0KZi+QPv0KCTMvEjv3PNGLzxE+/0eCZ87gnTqBd/I4YdMniJo9RfTCcTyTR0lYmCB1/wE8/h60iGyMpjjsmoivZAOUFEs/QfXQXS+JSeQpEZ9bS8ShJWDVAmajNivWWDfprZk07Wpkw/wauufbaV9upuNUK61P+qlbqaVmpYbGU400nWzCH1jNJ/wI6FtX2uhY7qJ3sY++qXXkbvJhyXCjBRnQbLowSxeDSdONeCMEAB8QCsm0XTH6EP5LDVhRpLDegCYAE7clydstxmicVhlLJhuVlyhfEr4NRVTvqKJqfwUVB8soOVBM2WARLeOVPHymnYGXexg+18yRl8sZFcC/VsbkhRoOP1/F8B+bmXr2LrYMt5BfHYYzRMNk07BYzJjNDn4EuwK8gP52Y9oq8P8pwC8pwF9n8dINFi7Lusn85ZvMXf6a2cu3mL3yDTNXvmXmyndqTV/5HlmTV39g5uP/xdH3vmXq0rfMX/qao2ev8NCRFTLr+1SoZPbGY3JEKGJNGR6KdlrKW2LIoayUf7pDrb7wf/ZRFxVJCUzCLzcWIYSEAY4opmDTIR744+f0/OkGNU/fxHfqGtnLn5E5/zHZ01fJnvyQ3LnrZMpa/oLMhSvkTrxK8cAZtLRWNGOykkna1I0rUZIAPWDuofrX5bUHSnSKhBRzCAsuzYpXc+GRXmiTmFH4iO3aQ/nQS5TPXsQ3+S7Ju18mbe9ZQh5ZxnP/PLZIJKSgAAAgAElEQVT1sxi7ZzC0zWNuX8TetYy7bxFH51HcnYMENe/EWfEApsxetMgGNFc5mrUAzZSEyRiDySAkTixGTVhjWfEYtQQM6vRJQjMm6amFTfr/ZSMoQAsvw1n2IKGdB8jcvEzJ4J8oGX2e3LFnSB59iuixJ4maPk347JOEzp8iZEHWSUIWThA8v0LY3CJBR4bInp8ms38v9nK/3l+vNklJ4XStvYou5QRVqZBeB5fPSzrqnFosNi0Wq/QsKMCZ0dwGHGluYhvi6DncTe90F33Huuk91UnbqRYaT9RTe6KW+pN1NJ1qxH9SX80nmxDQtx5voeNYOz1LPWxcvovW/R2kd+RgjhdNuhGjTfwO9chSuRYJ4Fc77tTneLtOb7aGYJLBJ2bx3BdvwFCM4mAjIDeIrVo4msOLNyUGX08ZTdv81PVXU7mnlJqDFZQNFFNxoJDW8XIePtPKwCudHD7fyMgrpRx5pYjDL5Ux9kojR15oZfSZPvbOd1HVHYs1VMPg0DBJKG9ePd11kAvQJULStS0/xc9vAn7hyk0WL19n8fI19bhw+boC/PzlGwHA32TuytfMXrnF7NVbzFy9A/hXv2Pq6ndMfvx3xj/6gfGr3zD27lfMX/yS+Tc+YsO+cZwpPtWKq4lJoy0Mmysaq7SDKjJLNz78Z4H9a7+nO4xI2CV5ljTTyL8fjRZaQt6GIdYf/xD/ib9SvPIFWctfkDb/V9Jm/0L29MfkTH9K7uxNsmZvkLX8JVnz75M//jql+5/CmNqGZkhROaZTtXJKDV5OdUkhpBVS32Qkr5PIRff3s2A2GXEYzXhk7LPISMW0IqqKjAcmKJ+8gG/+PQoWPyTjyDv4Ji8Tt/tZIrc9hfehU9g3rGDpXcbWvYyrd5HgvlnsjXtw1z+Bq+wuzOl+tBAfmiUFTUvGaEhS4hXJRyVEtWphCmQCtFWLMt2EIVydRjZbAjZnMhZnMgZpgnGI+YUPLaEZV8ldRHVsI/HeA6RuHSPz4CJZEydIGF8mdnqZ6LljRC4cI3xhmeDZBYKmZwkZGyd+5DDFo2OkPfAYxowSNKcM05SSrJzuulebUmDeAXgRTEmYLNZdEgGIC7EYmjrE/NMuJToDmteANdlO+b0VdB3s4u6Vu1h3cg0dx9tofbKZpjOSu9fQdKoB/8nbq/lkAy0nmmhfaaFruYOeuW7WzayneVcrCbUpaGFmJcoxOBxYxPVJpRmyGQVabFVpLcA3qGqSNJyFYBY/QbuUfCMxi/22alwRotGGLd5LWmM2DY820rq7mZpdFVT2l1A3WEHF/iKqBgI5/JlmBs61M/RqPUPnixk+V8LgMzWMvdTH3Ln7OHC8j+a7pRVYQ3Nq2NwGTGazsvMSz0DReOhiH7nndCHbz3Hxu4BfuHwNfQnYpTQnSwB/g7krN5m7qq/Zq18r0M9e/YbVNfX+t4x//D3jf/mBiU++Y+zKNebfv87pv9xi6NnXaNncjxaSoBtuiGe9MxKTXRh1ad4X59X/LKSXSEHyKjFPXG3J1AEfixZcQu7aw7RPvUPF7Afkzn1K2vznpM59Qcb8l+TOfUH+3DVyZ2+RJaBfvkbW3AcUjF2gbN/TmFPa0bRUbFoMbtUJJv+PKPoE7LrDi5hMSjecSXNgMIuTiRGTWcNmMuKSph4JZS1JWLM6Kdh1gtL5t8lauETm8sekT79P7uxH5Ey8S+bIGyTuO0/EE8/jve8p3OtWcPfM4O0cwV23FXvhOrSEStXbr4wpTBFYlR5dcmC9Q0160PUlHnwe5eUnfn7ytXjjyc885lDclnBclnBF+pjE6cichGbP0k/8mFKMuX68rXeTvHkveYcmyR2fJ316gaTZeWLn5oianyVsboaQ2WliJyfIPjRE3padhNR26ISdPR6rVaIL+ZwD1lZCiq0CXogx9Xnpfn36vRCE2RqKwx2BVUBosWJw27DHeIgtSaDqwRrWT25g7dJaOo910HGmjdan/NSdrKbpVD3+k/X4T9X9uJpP1tN6vImOYy10L7azfmktG6c20rjFT6SQeA6d9bYFezGIL1zABkuvowvw7wC/pG3C7tsjsLqisbmisMpUYXk/4uUYbSWyKpqy+8to7m+iob+Gqp0lVO8uof5AOdV7C6ndX0DXaAmbzzQxcK6VQ6/VcvDVQobOlXP4uU6mXnqIyeceZd32crypGppbwxlixmQ1YTLZlUGoAntAzLZK1ilV37+Swy8ImK9cZ+7KtcCjfL26BPA3bgP+/ZvMvv+1vq7qJ/70+7cY++AW4x99w9xnf2Puk29UTX/lgxscu/gpR555jfT6blyJeahTXpxTlduqsOpBSh/w8x3qX/1e3FiEBdZPCzmF5UaTElgxmWsPU3vkguoNz5j9C8kLX5KyeI30petkLXxFzvwNsudukTF3k4zla2TMf0De+AVK9j+NMbUdzZAaOOGld1uvrwtXICe9kDkCeDGEkBZJg8mKwWzCZDZgNVnUz0wGETslE93wOKVDL1G8fJX0pQ9JXvqUdCELRcG29Ffy56VV9UNSh94jrv8CYQ8/g3fDEiE9RwiqfQxTRotuRiEGnJYwPPYIPAZ53/J/iwmDVCckxNNf2+qmJMSTUyypxeHVJAYl4kokzrMyVkz4DvE5jMVoTtArEo4EtJA0tPQSPHWdRKy5h5z+/WTuP0jG0DAZo6OkT4yTMjFO0tgomcMjpD70OBENnWjxuaphSROPBEssZnHtEcBLf4VSGgZCevFnCBhm2NXGv+qA68JoFUWcSF4dGCxOHCFeLBEu4itTqH60jq4j3SpM7zrVSctpPw0naxXYBeDNJ1cBX6uA33KyQRF9vSc76V3qYtPyRjZN3UXJPaUYk82KxDOG2jGaJQ0LUk1NSoUnFQR5zatLAC/PSdepPQyrMwybMwy7KxSj10FEVSSZd6VT219Fw74aqvvLqJLTfV8FDQcqqN1bRP2+ArqPFvPYaQF8G4deq+fgq6UMvVLHyLObGD7zKI8c6iKtQnQDur1VUKikFTI8Vcg5ua9X5eqr7tPCH/2LOfz81ZvMXrnB7JXrv7rmrt5gToFdAP/TNf3+TUbe+5LRqzdZ+OsPzH10i7G3P2X+0uec/ugmT176nCcmjlHcsQljsDCZYiioW1PLLi+CnNXd6l8F+urviwGHtGJKPqj/W7cBn7ZmiMoRKTldUQBLXr6JrJTlm6QtXCNtTkB+i7T5m6Qdu0bawgfkTFygaOBptLR2NGMqZi0Gh7RxqvBTLrBOPFpVDiqgl/ZIO0YFeAtGkxmLSVp2JVcVhj6bvE3jVE28Rf7SRyQsfELMwmdknfg28Br+Sub8Z+QsfkXu3Jdkjn5E8t43iHvsv0i4ZxZ3xf2YkmvRHHGKCRbwhtqD8SoG2YJRVQ7ESEMqB2IbHTB7FHNEkwOTzYPJKr6DYistrcMWfZmtagy0yxRCkDlSdTiKg5EmEVhQDFpMKlpGHkENzYT29JHw4ENk7eonZ/9+0vfsIXbrNuIfeARvRRPG6Exdf2ETk1Bh5WVEVyQm0df/eLoHTk1ljqI75MiGqV6TWUwbbRgsMtdeL7EqIZUjBM1qxRTuJK46mYYdTayZX0PXsU6ajjXQpIDewG3A19J0Sl/+U7Xq+Y5TzbQvt9AnopyljbQNtJHSlYoxw4wWomG0WLCpbjc9JdRr81J9CdUFU8LiqzKiAN+D0RKE3RVMUHA4jlg3vgdzKerPpXpQmPkyqvaXUjtQTuNgNf7Baur2FNGwt4CeVcC/0s6hV5sYPF/J0MstHDx9P5uHNlHYkoEpVI88RDNvtulTjETKLVoWoxam0iTdMisg4/0lwMtpZFWe7brQIb2mj4EnX+WYhOtXbjJz5cYvrOvMXNHXwoe31M+nL19n9upNFj/6htXnpi5dY/ziV0wJyfeBnO43mXrncxYufsmJqzd48tJXLJ2/yqOH5knyNeny0kBuJyIZCXmlpqmEEEoMESBSAq2JwoyvAvuXHuXnRiFcDPogC9XUInmjAC24kIS+QarG3yB/9ippS5+ReOw6Cceuk7h8jeSFL0iZ+4LkWfn6GikrX5B5/GNyZ98gb+8ptLRmRXQZtRjVximvVw1+kBtSTdcR+ayeiyoVmTiImmR0k7Cp0g8vopxkNHcZZY8cp0ZkrjMfEj//KXFL18g++QMZy1+TPPs5afNfkDr/JZmL10mf+oyMI1fIO3iBzMdOYCnahBZRhGYXwOtphdcirrAObOKkIkaiyqMw4FMo34s2QUQgP7q93uH4KtLPwBIvNpfBQ5DRi1sMKyW0VdbQunmkFhSOFpuCOauAkKp64tp7iO9eS3hLF46qRqwFFWhhqWjSMCWKREkRAiSmQaIRBfhAfvwjYaef8KLEk+um3Fmls81sVz3x4gwsDLocBjZRUCpHVzPWBBfpHVk07fPTPddNx3Ir/uUGOp9so/l4E03HG1TJruUPjdSfrKb2RBWNp2ppOF5H24kWulY66VnsoXe6j4Y9jcR0xKPFahjsRqyaDYvmCLQ0yzXWrayVK7K0P8v9KGU3dT3tmFxOYtMSyW/Np3WkkdrxUqpHy6gcLqX8YCmVEsrL6T5QTsNAKfV78+k47GPb05K/r2HgpWYOvuJn7NwGHju6lvq1Vbji5LMUwBvRrHY11ETmKArYTQrsOuBViXjVKzAg7LoTG5oo7QTwZvlQjOGkVfcxeOY1Vt6XcpuA/SYzoqNXS77+6Vr46BsE7JMXv1Lh/fLH37H0kZTprjHxzueK3FtQdXup3UsNX2r7Nzn23g1OvHuNpy5eZ/aZd1j36EEiE2W0cKTqh3ZoUTgNkaqVVoZMyIQXAb4oh9QFVqD/x5Dlp29OTjYBvBgoyI0VIInEYjusiLi1A1TPvEn+4lVSl/9K3LEviT32FfHLX5K09Bkpi5+TMPsZCYufE7f8MVlPfkze0htk7T12uw5vjNHluhLiCaEjgJClOsHk5tCXYkyNQSoflHnpFkMcmjETLbyZqieepmbmQ9KnPiRh/gsSl2+SufIDGUvfkLZ0k/TlmyTOXyNl6QZJM58rN5rSqSvk7fgDhvy1OqtujVUSX2nKCTKLdNWh3GIV6SRpkiwhR+V6WANe8wr4gQ1Ave6A3bOUFMUp1yj+93Y8mhW3ZlNf2wKe7wYpP8qmYQ/BEBSFIzKFoIRs3Ik5WGMy0EIS9d4JUcuJCEVMQqQl2iBjtcJ0b36xYLozHxYSLBApCckq3YSacB+iIJN82CQpiRwEq+RjmNKQmBxuNK8Fc4qd1N502ofbWCc6+jk/3ae6aVpuomG5gdYzLbQ+1azAXnm8grrTtVSvVNFyupn2U220LbfRt9xH38IairaVElYTgcGt4TCLgYqAXow5he8IxanmMoSr12KRQZmyYYkHv8WEK8pLUVMJvf3d9Cy20Xisipq5CionyikbLqf0YDllA2VUqNO+mIYBH+2HfWx/uovhVzcx8HwXg893cuCpDVSvLSQmRwhUI5pZwO5UbsuCCZtJrLKk0iHdhT8DvIog9ev5E0yInlsAbxQDDGMY6oQ//aqS0U688yVzH3zH7Ic/qDX34ffMffhdYH3L3IffMvv+LaYv32T60g3mr37N0kcC+G+ZuXydibc+59iVb1XX3bEr37F89faS509c/oYz8vPXP+PIiVfpvKsfd4hMgo3AYYrHZYnDKnPP7gC8SBn/JcCLM60w50pxJzuxhI7RyoI5ccMA1dMXKFh4j7Tlj0hY/otaicufkLr4IekLH5I6/wlJCx8Rs3CR9OPvkr94ntz9y2g5fmXTbTBGKQZcNNgK8KsgkiYM1SOgu6+qjUoN+hD5pgAgXgHeEd9N/bY/Uj/9PlkTV0me+4Tkhc/JWbpB9vxX5Cx+Sc7yNVIXvlA8Qur8p2TPfkDl3CV8/WfQcnrQnBlo1jhslgjspmA8NvEa0HUHSgWouvYk9JR121/vxzxUNfaInFREI3pfw22y04FTxlrJfEGDAwG81ehU+b5EKjKyS4g1ceE1i1WaNUJpHZSBh6oOSLojSzY5qU+Ly0xowJtfXssdjHdARq2f4JKXSnVDvNmtqs9b6t+rgBdSUv5dxejLwBSnGS1Iw5bjpPyRctZPrmXNfJ8S2DQuttKw3EzzqXaaTrdQfbKOqlO11D3VSPnxahrO+PE/2Urjcgudx3tZ++QmWqa6KH2iCleKB4dX0h0jRoO0WAfhMoTgMUbiNUvJUBpkIhW/oADpNZFYlUHr412sG9ugIo3GE7XULddTvdBAxVQD5aP1lA3XUDFUSck+Hw1DxbQNF7P5ZCfDrzzEyIsPsEuEQdvK8SS5MATJxiebnnAXEkFKehqC1Sij2OSzFrDfCXi5zwPrZ1Gw5rDKKOfAjmsMV0q7gdOvKpHNxLvXmP3gB6Y/+JtaMx/8jZkPfmD2g++ZlY3gg++YeE/AfpMZBXrJ+b9mXjaB964z/ufPOH7pW0689x0rl75j+fJ3LF/5nqUrP6i1fPl7jl/+noULX3JcLLKWz1HScC8mexoGLRanLRGrmCaYxXMvDDkZ5aaUHWsV9HfuXj//WnECThG8yGkkF0AIHzn1o9Hiy0jeuI/qqXMUzL1J2tIlEpevkrR0lZTFy6TPXyRz7iJZix+QunCZ2LkLpB+7QMHiSxQMLKDl1KPZ4zEYI9WNrGrEq+Gu2lxkY5LSk0gsJezTgSZTZ4wGiWJEfZeJK6Gb2sf/QO34u+SMXSRj9gPSZj8kb/YTcqc+JH/uE/IWPyVt7mMyl/9K6vwH5Mxdpmr+HQr7T2HI7lRGGQZrHA5LFHaZuuuQaE2/RqJkkzKcDhAxltBfz+rJIK9NntNLdeE4tHCcSvYqj8FqWozVIJyDLIdaNoOuMJPT7vaSSojk3lINCMajheLRwlSVQJlRKvCLWao+x07mIchSn0fg85TPT3iW1SVg1qcTyTQZF0ZJzdSGJJJbed1hOO1RWMSB2GLSvdrDNeJq4/Fv9XP37L10za+leamX5pUemk/10PBkO9Unm6h6spG6p5spf7Keuv9qpf4PbVSvNFF/rJ3OJ9fRcXwtraO95PT48CTJ6a0p0wyPS+YRiCAolDBrHC4tDIdEThKBuE24cyOoeLiJdZP3s/7YPbSeaKXxyUYanmyjXjr3jnVTtdBJxXQLleP1lBwqpuZwMQ2DPh5e7mH05e0MPfUYa3fUElMQhOY0BKY36Q49t69X8K8APnAg/hrgZf6UsHyqm8cYRlb9Wg4EQvrFj75n6v0fmHz/v9Waev/vTF0V9ZysH5i5+j3jF6Uc9x1zV79l8t0bTLwjBJ8Icm4y+dZXHHvvW4699x3Ll75j4fL3zF2Rv5O//7t6XP74fzP7ztcce/cWJ968zrajT5Fc2K3LVi3xWKzRatrp6ikvefidYf3PQX7n93JxTOJOK+GpsLtqEon4mkVjjC8htW8HzZNnKZ8VIL9D9tJ7ZC9eJG/hHXxzb+KbfZPC+ffIn3+HtLnzFBx7ldL5ZynaO4U5s1r1wsuN55CbUK6hgEzVbeVGFsGN7L6SY8n3gQhANWjIaSd+fym44pupeWSRuiPnKJy8QOHSRfX/Fc2+Q/Hkm5ROv03J7LvkzrxDvij95t7GN/dn6ucvUN6/jDOvXdlImc3RiETZapCJuOIuI+9brJ7FMVZCfAGvmIiKk6xel5favIBGD5Gl0qAD3qVF4JYoS21YQpTJUExXQK7p1p12A3JSfV6cXgWRSoX8P1IKlLBXlpRDhTDVSU1di77amKIeAwDXlW06J6M289UbVgmYhIkW/brk9zIlSbTqeornDY7XiUiTSW939RowxZjJaMika3cvnVMbaFveSMepu2g7vZ76U91Unmih/JSfij80U3amiZo/tlHzdDvlx/2UL/upXemk4Vgv/tk+Gvf3EFWfihZuRHMZsQZ5lbpO3qvHFEGQcnJyoVlNWNPDydxYgf/oBjqP30/rkxtpONFGo0QPp3toOL2WuifXU318DRXLXVTMN1M1XUflSAl1B4t54tTdjDy3m0eGNuKrz1C1doPLiZh/SHuwEnapyoUePer3ltxfQtoJS3/HYSicwi/082siD9QbS/Rmj5SKbrbNP8PEhU8Yf+c6B/98ncE/f63WwT/f5NAbsm4w9MZ1Dr9xnUOvf8HYOzcZffM6Ay9/yN4Xr3L49U8Z/fOXHHntr0y89gUTr33J6IWvGLlwTf3t4Js3GXjzJvvfusngW18z9OYNBl/5C0fP/YWRZy7R9sgQ1thSNFMsJlsMVouE9aunvB56CrDlxrgT4D//Wn6uRmcZXSoENUp5TJPyThTmyAIS/Q/QPvoMNZMvUzTzGr7ZC/hmLlA09Splk+comzhH4dFX8E2cI2viOQrnn6Nk7ASF24awpZQiJSYR3cjoJLkB5AbWGy2EK5C8SvIr2aBkMwho7S0e5RcuM+wNxniC4mupeuAoNYeeomT8ecqXXqVo9ixlEy9QMfo8FUeeo2LsJQpGX8A38wp5k2cpmnqRxpkXqNwxRUhBC5ozEZtJxDS67kBN07FGqClAcup6xPNA5Z66HkF+T7z0Bfj6ko1hFfARuLRI3FoUDuVDJ+9JTlo9lJRNVE5gHXzytd44om8sktuGqY1CP9VlgxHyTfJxHbCqUvKTf0N+pr9u+TfVtVLXUd9A5fdFvCQknYBdsdJqkIdexrO6RCotxpRWTEFONJdJGToGxXvJ8OdSvbeT+ul1tK3cg//4RqqOdVOy3ELhSiMFK3Xkr9RSeKqRktPNFJ3wU7Tsp3S5lbLldqrmu6kZ7SNncy3Oyji0CAua04rRHoRdZi1qXrxBsfootRAncW0+qg6uoXb5LopW+vCd6FAbSPWxFqpWZKNZQ/mJdZSs9FG83EXxUguVi41UjlfSPFrL1tMPs3V2M5VdFYTGRKIZ7RhlgKdM2FEHlqRpckALaajfV/Io10TArq6t3GsK7BLNSsr1U4wowKs6nhhgmCMIza6lbeswm8afZMPsn+iZep6uqZfoljX5Ej2TL9I7+QK9k8/TN/kcPWN/ZNP8S6yfehb/viXq+mfoGj7Jpuln2DjxRzaO/ZENY39i7fgz9E4+R+f087TOvkjz3Ev4587SNPMC3Uuv0Db2NB3Dp7h78o+075wivKRHddWJWYbMFpeZ5nLK62G9fsr/HOC/9L3UUKXJwalMI4V4carNw+RNJ7K4l/InpsjdsUTKruMk9p8kqf84KTuPkbl9icxtSyQ8tkDi9mVid82TvGeW1C2HSFv/GJboXGUyEKQFExyYlSanmIpAhJj6MXSWCy65qPAIwrSKCMelJnsaTRE4owrx9W0n57ERUnaOkz64QOLuCdJ2jpG9fZzsJ0bJ3jpJ4tZxkvrniO2fIaV/hqI9M2Rv2k54Xj0WhzjIyImqn6Z2OeHVPEAJ5V2KbBMST7nLGGTmmIywDoxsUjm03p0meaCE+jIVxarIU2nxDZCRQq6p8lPAr0+Rp3KiyMkiU3pl0Kg+6kh4FzV/Xrm9yIYQsBZT7a+6AkzfKPTNQCIAWQIgfXMMREoSfaqoRI9MZBKNckCW16JIMtlEnXqeb7OjOaW33aTYbJPTjDHaQdyafDJ31lE+1kvZVDe+yWZyp+vJmq0mZbqU5JliUuZKyFioIHuxhrzFevLnG8ifbaRgqpmsQ034DnWRdH8FWk6wCts1t5TeRE3nweWNwhIWRpAvmawHGigZW0PuYjexiw3ELdaQM12Nb6KW/MkmcqZayZrpIGO2ncy5ZrLn6smdKKd0vJL6kRrWHO2h7t46QpKisNnkmkpFKUCOKsDLmHCJMGSaklx3fbPVu/T0jVilQSp1/Q3AS6nD7opDs0Riji0gve1estZvIXXTLuI37CN2w2BgHSBuwwDxG/arlbBhL7FrdpF+zwBJa3fhrNmEuayPiLaHSd/QT8aGftLW7iJ1XT9J6/cQu3Ev4XfvJ/jeAwTddxDPfQeJeHyUiEeGibr/AFEb+0lYv4PMjTuJbNiEFi0+57E/AfwqW7+ay/8SyFefkwsiN7zc7KJdFw27QzGtooyKJzijkYj6B3D5H8PcuhWtfTuG1q2YW57A4X8UR9OjmBofw9q5A1PvVux9j2Nv2YS3sgPNGYfbGKG63sJlpw/MmJObUiSjOmjkhJddNjAY0GpFs1kwSpukyakzu85YYqt6CGrZgNa+AeOae9E612JqXYOnbQOexrUENW/CLKvrAbSu+zH33E943wO4S/xEZpVht4XjNQUTrMpnwbjEtVSMDC3igW/DZjBhMZoxSY1dCDCLuLbK5iOhaGAGoPAOIoBRLb0ywni1n184kDuWIv4CBKCQgauEoPyOVEEs4WpyrUyvlcqA3IC6fZXcgLeXfDZy6q/m/atKSAV4qXYEeBBJOyS1EI96ubYqiloFu1XKiULqiYpRrq0ds8OJ1eHErL7X0HI9OPvSSdlRQ8b+BlIHq0gZriDxaClRIwVEjeYTfiSHiJEcYkd9JI6XkjhaSsJwCXGHyogerCT1cAuJ2+uwNaagJQShBcv0mxBkCq3RFUx4biYZfTVkbGkibrCO0MlqnEvluOeKiTtcROpACYkDFcQcqCbyUB2RI3VEj1UTP1FB9GA2ucNF5OzIJW1dOsE5EWqYpAw2tWqxasS13R2ORcjnQDRuleEuJjnZV6fQyjUW/byuA1HXeXVD/8cTXgwwgjCqCSfRaJE+gsvXEeJ/mKCWx/C0PI6rdQvO1q3YW7dha9uOrW2HWva27er58O5deJseQctuQYstxZheS2RpN7G1G/HW34er6VFsTZsxyGrfjrlvL4Y1+9G6+zGs3YfWuR1jxxZsrY/ibLqPiLYHifTfjbfAj9mbjN0Rowz7TTLcQIQ5iuyRk+YONvLOrxXI9JNETpfVUUf6GCRxmQlS5SlPoviZl2MtqMRQWIVWJKscragUrbAYrbBIfW0oq8RQUYmlshJrYTGOrDw0UVKZJJTXw2Q5oXTdvJAmEiypPlUAACAASURBVIHoM+r1cCsQZsnklMAMdbPJg1HduF686T5cvjK0giK04mK0Ih+G4kLMxT4MvlyMRfloRQVoZcVoZSUYy8pwV1Rgz84jIisfd2gsHlc4LrMYQ4pDqhCDuoeeIrskNDQ6lYLOIASmiHEEULLUjSGnvZTiJBK5Y8nr+5FFD5zswkWoJbyECFDk/f5syfPqM9LDTv1GlI3vp3mlhPCr4bw8/mNIL2F8CNKcpFj+1RNeDeRcjQLktcsUYpcSGVnVgFAvFnmPoidwWXDmxJLQW0bK435i9zYTOtSI60gNliNl2EfLsB8pxj1cjHekjNCRcoIPleEZKMaxvxj3SB3ew02E7WnEe28ppupkHfReG1qQFWNmLGHtxSQ/0UbM/jach+sxTNagLVWjzVfgHC3Fe7CIoIFigveXEz5QTcxAHUn7a8nYW0PermqKttSQ0p2FK9OL5jIrJaHVJMRuhJoVZ3OEY5G27sB9rdKc1Sazn5CcgQhp9ToLJn4OeJFXimpJfYhijRxThrN0E97mnbjb+vG0bsPdtgVH+3Zs7bswd/Rj7NyLoXMfpo59ODr3Edq7nxD/4xiy2tBC89HCcghPKSO2sJ2guvvVRmFp24nWvAOtax+W9UfQ1g6jte1B69iL1tGPoWMntvatBLVtJrT1QcKb7yGxYT3x2TWEhWcoe2NpbRXQq9cqb1Q5vd5xU67mLoGSlJSLVEgos7UFkDLmWUQoMlbY7sQdG0VkbhphecmEFCTg9cURVBiNpygSV3EErpII3MXhuIvCCSqMIrgwjtCCRIJSYzGGCGAkdxSgSI51x+YT4BcECKthss7WS8gsk05kYqncsB40uwdvTBxRWRmEZqXgzU4kxJdKSHE6nsIEHL4IHIXhOAojcRXF4CmMw1uo/054QToR2emEJafgjYjD6ZJypuTRobi1MFyGVU23V+kQDDInXg2xlM1KlgBWyEzJDR1oBpuSa2omKQGZ9JNTrL1VX7W+gcqJvRpB3X7UQ3sJ7/9x6UTS7d/9aU75e88rN2Dx/P+VJZ+vrDt/bhGdg1H62UMUvxLsjiKyoIDEja1E7unDOtSFdqQZbcKPNtmENtGIbawR19FGPCMNOIdqsQxWow1WoY03ox1txnmoBe+uRpzrfWilkWipTrRkO57eQrwPVROyv42g8W4MM+1oc01oi/VoS7Vo87UYRssxHy7FO1RFzMF6kvc0krvTT9nWdpq29FHUU0dUdipmj56imM1eNaJN3tfvXZ9/9efa7wHe/SuANwYAb27px9u5G2/DZjTRdEvftTsVV1Qe3tQqQmrvw9u+A2/3bhydu7F07cXce0ABX/PvQOveh6VnL86eftwdW/C2PExEy/0kdT2Mr/cROjc8ga/Ijzc4BZNF2mhXpYwCGjlJfhvwQvTY1GSYXwd8+E8AH4OnKAp3cSTu4gDgCwXw0QQXxhOan/QvAd4QyIt/CfCiWjPYPHiiYghPTyEkUwCfRIgvjZCiNIJ8iXh80Xh8UbjVYyyegniCCpLw5qfizUsnJDuT0MxswlKzCU3IwhuZjtubjMMhFY4ojA4Zcx2mS2LllJD+bqnFK8WbGGsGSmMq3JbxytIPbtGHG6pHyRvvBPsvAV5ALDfnL61/DeA/v4HvBPIvff1bgJfxZl5zOOIAY4yKIqiukNBHWnDv7cA01Io22oJhsgXDeBOW0QasR+qwDddiPVyLZagW41At5vEWDMNN2A40Eby3meDHarGuKUBrTkPzpxKyuYHQ/lZCD3cRNN6FebIVbaIebaIGbbIa+0w99iMVuIYqCB+qJfFAI2n9jfi2t1C7vZeSjY3EFKVj8ArHY8Nq92JXOgo5nX/tWv/71/T3Ad+2DdcvnPDGjn2YO/ZhbNyOt62f4FXAezLRrPEYPMmYIvLwlq3H27iZ4LYduNt2Ymndiam9H2PXHgydu7H17sPW2Y+tdQue1keJ7nqMnA07qX7kAF1PHGLr/ik23r2NfF8jDpnTLuIMEQop1dwdYBfg/+yEF7LsTsDLVJdfOuEF8KEFCQT75PQUwMspfwfoCyMIKowh2JcQAHwcxhCp/f7+CS+A19l6yef1E17JQ5UIRwAfhCM0Am9SAsEZSQTnpBDiSyfYl4bXl0RwQRwh+bEE58fhzUvAm5dIUF4ynrw03OLPnp9HuK+I6MIKYn1VROVWEJJSiDMqG3NwMpozUp+jp3L6gPBGgV1XHZpEvGEU9ZtYOAVKP0anYog1g13l3f8I+NUN4N+/8X4O7F/7XhjpXwL66nO/BXgZbeaQuXFSZXC50ZIiMLcWELq9jeChbixDfqzjbZjGmjAercc4UoPhcDWm4RqsI/VYjzTinGzHdKgB6746gg+0ELmvndDtTXg21+B6rIaw/Z2EHOrCe7Qbz2gHtqNNmEfqMA1XYx2uwjtej3ekmtBD1cQM1pF+oJn83a0UbWml7KFWIktTscZItGdEM1qx2CQdEULudorza9fm33n+3wT8HnTA78XYtB1vRz9hTY9hkpBeAG8WF5cYNE8K1owmbIVr8FTfT1DDozgaH8Pm34KzYxfe3r24O3cpjiCoZTOxPVsovG8frTvH2HBgjocPLdB/eIE9A9Os3fQECanFARfTEAV6ldP8zgkvN4R+wuvz2qw2qU+7FDHiiYkmKieNiLwUwvKTFKD1sD4Wj4TPAeB7CqPw+mIJ8SUSlp+MNzX+NuBVrhjYeFZ5hB9DegHE7wPe4g3BFRONNy2J0Nx0Qgt0wAcXpBCal0RYXhKheckE56XgzRdP9nTc+Vk483MJLSsjvLKa6OpGYmtaiK7wE1pYhzu7HHtKIVpIEpo3Ac0Tr3ermcVjTzrV9CUzzvShD7pmQKoMMv3VJAy5SlP00o7kgv/u+nduzNW/WQX07z2ubgDyuBrSW5QU24NZmmycHjS3DS07mvBNNcTv7iJoj5+gkXZsR5oxjNSjDdegDVejHanFMtqIfayZoOlOLEONmPfVEnSohYjhLkIPduIdaMMz2I57qAPH4TYch5txHm7Cc6ge72AtYQM1RAwISVdD7FAdCQfqSN5Th29fG5V7eyh8oJEUfwFamBXNI4SjNC45lJOOuD9ZZPBqoJFs9Vr833j89wHfuRdzxx7MzTsI7dpNRPPjWLPb0IIE8NFo1ijd7CCyEC25Hpevj7C6+wlrehRv46ME+R8juH0roe1bievbRc49A1Q/cZTuPTPcdXCBBw8v8fjhBXYOzjA4vMT2/lH8HXcRFZ+HQY3SkbxZSkV3nPI/O+FXc3h9rJWeO+uAdyMjo4NiYojOTiciN1UBOURCZd9qLi/5fKw62SWslo0g1JdEuIAuJQFTsHABwr4LOfRLgF+tgf424FWd1RmEJTRMDVmIyMsktCCD4Pw0gvNSichNUzxDRF4G4QVZhPhy8BbmE1Tkw11cTHh9A2ENfsIaWwlraCekrp2gqlbc5c14SprwZFfiTS/DlViELSoPozcDzSZefGITLpbRsgEI6GUKrq7LVlUGmaajpqXcwU2sbmj/7GNgk/hPblSpL/8e2OXnvwR4NRFZZsc5gtEcQWgOB1qUF1d5BlEbq4jc0kjYAR2s2nAD2kgd2tE6tLF6TONN2MabCZrqwHa4EfOBOlzDLQQd7cAx0oZ5uBXz0Xa0YT/aUAOGwVocAzWED9SRuL+ezN31ZPbXkrS7ivQDDWTtayR7Zz2lu9qo3tZJZmcRzlTpbZB2VwsWhxuTSfg0F3ZzCA5LGBKh/CfX7pf+9vcB3yoh/Vbs7Tuwdghptxtj5x5F3AngLQrw/UT4N2PJakZzp+lzxCwRGJxxaN5MNVTQntZAVMVGEpsfIcb/CFHNjxLb/gQ5G/dR8egRuvYucPfwCR4cOc5DQ0s8fHCOzQem2X5git2DM+w+OMPm7Yeob11PeGw2Bms4RslJ/ynA6wIYNSXXJnmsqO3cBEXHEp2dSWROOuF5qYTmJxP8I+jjAyReLB5fjNoIQn3J6ve8KYmYgkN18k/ktArwd1QNAmyqzpDqdkd6OK+r7sSNV9ILIe5MIqqwuDB6vHiTkojKzyE8P5PgXAF8OiGyAeRlE+rLI7TIR0hpMSEVFQRXVeOtqSO8uY1QfzveRiFI2/HUdhBU24W3roewuh5ia3uIq+gkqrCF0Kw6guLLcYYVYnPnYrdlYzGkYtVSsGqJWLQ4LFIKUvPL9Q1gNddXveuiGBRG/kem/s6vf2Fj+L8C+NtSWwlzf75WN4NfArxJyozidCvEqtWDye3FEORRoHeWJBG+rpToXS14BpoxH25CO9qENtaINt6EUfL6cT+28RaMww2YhupxHG1RyzjUoEBuFg7gSBPaoVrMA9V499eQMNBAzv4mfP0N+LbXkL2zhrzdDRT1N1OyvZmyR/3kr6kgrCAeLUi6ADUMUqa1iP2aGzGVdcoIdyFX/0dy+NbtuNq2YW/fiaWjH9PPAe/fRkjHTsIaHsSYVq/PB5darTkMizMGU1C6Pis+NJ/QnBZS6+4hq20zBWt2Un7vAXr3LLJu/xL3HDrGwyPHefzICk8ML/PEoXm2Ds6wfWCSHQMT7D40y56hOR54fB+lNZ14w1Nvs+M/nrCSg66yzsI8B5othK0OsOPWVcBbPQRFxxGTlUVUTiYRuemE5aUSEgB9sC9RgTyoMI4gXyzyfVhBKuF5aeoklikoyrBSqdDkhL8T8Lpjjx4Cyy6tyx9XZbY64HWm3iQ3pNGhfM+CE5KJyc8lIi+LkJx0gnOz8Obl4C0owFtUSHBZGSFV1YTVNRLW1KKAHtLShdffhbuhA2ddB47aTtx1vXgb1xLetJ7Iuj6iq3qIKusi0tdORFYLESlNRMbVEx1dT6i3jDBPCaEOH15rDi5zOjYtSYHfqAw4pQ9A8n09578NfAH/6loF/s9A/z8MeBlAoqkN1Y3R4sFuDcIqffVWC+ZoL46SRBIfbyZktx/bUAvGsVa0yRa0yWYFeKOAX0794VoMRxuxTbZiHvWjHaxGEyZ/vBn7ZAu2Iw24D9YSdaCe7MFmSvY3U7GjnpLNlZRsr6doawPVO1pp3NFF6aZaogoTMYU6lEjIaLZiknHmRhdOczAOMR1RhhbCk/yj6+wvndr/ynO/c8LvxtW6HWfbNmwC+HYBfD9GAb2c7u39WJu34W3ZQpT/YayZjWjiiiLOsOYQLPZILC4xR4xFsyfhiSslrbyPug276Ns6Rt+OCTaPnebBwyvcP7jAQwcXeELC95Eldg4vsmt4ni37xtm6f5ydB6fZPTTLtn2jrL9/GxkF1YHTPVDbFa21RfJPyTV1S2oxv5CLobdlBr6WNlFxHbV7ScjKJ6+ymtTiIqLzsgjNSSU0L5VwXxphvlSCfcm482Px5Mepkz/Cl06knL4pyZi9EimIYaUezhsE8HKDq9rnKuAlrP8FwEueLH3dRi8mqYUbdPLPHhZNaGo64dlZhOdkE5yXi6ewEHdpGUGVVXhr6whu9BPa3EZISychrd14m7sJ8nfjaejGU99DkIC9bg0h9esIb1hPSHUvYZU9RJT1ElHYRUR2B9Hp7SSkdpCa0k1ybBsp0S0kRTQSH1pDlLecME8hwa4Cgpw5GDQxrZA+dsn5xQ9QNgAxAg0M2VAEYMAMYrUTT9Xnb+f8/8oN+fPf/fmJ/mvfr570d4b3Bkn5rOIHEIRZjCkMIsISIZIVk9uBFu0mvLeEsMcb8B5owyah+lgrxjE/muT0R+rQjtSgHa1FExZfTvwj9VgOVuM4VIP3SCNhY82EjTQQdaiO5MF68g80Ubq3iYoddZQ/Xk3FlgZqt7Xi395F3UMtpNXlYokUwZMRi92BxSSTjcUkxYPDJDMaJIqRoRxil/0/AHhn63YcSnCzA3P7LozCsAvg23djaevH0boDT9Nm4to248ptRnNIM4PMUhMPb2kFlRsjCpMtHntQOvGZdXTe3c9jg4s8sG+GLUdWePTgPA8NTLP54CzbDs+zY3ienYfn2HV4ji37x9kyMM6Og9PsPDTNjgMTbNlzhKbOu3CHymYigNFBb7GGYhYvMXWx3NiVWEHYTmm0kFKUTJOVUp4HkzMUX1UDnZvupbqzm6zKCmIKcgnPzSAsL53QvDSC81PwFiSqFeJLIcKXSWRepgq9TUFyk4usMzB5NNDFJzfs7dq2fGBSqtINE3484YV5XgW8iFuU8aXs+B5sakJqGpE5eYT5fLjLK3DU1uFp8uNtacPb1om3rQt3cycuOdn9vXia+vA29RHcsIbQ+nWE1a0nXK11hNauIax2LRFV6wj19RCS0U5YUhtxyZ2kpfSRmdhHVkIfmXHdZMR1khrbSlK0n/ioBuKia3G5srE70rFYUzCapMNP5ppH60tm4a2e/jIPTubjyRJnYHX6y7X4z2rJvwbw1efv3CBWn1sFv0r3pJNOmG+TDP8Qa3AXXpEZiyjHaUHLicS9pojgnX7cB9uwH2lDO1yPdqAS7aiU12RJXl+H6WgtzuFavEM1hB2sIXKwmrjDdSQcqiPlYB2ZA3Xk762juL+Wip211GxvoOaxBtq2ddH0cBvZjfm444PR7CZE6yBqS+n5F7D//8S953dc15X2eVEIhVzIoSIyCIIo5BwIEAARC5kkcs4oBOZMZIAkqGDJys6hu22J2XJ4e8ZuW8n09Fqz5i/6zdrnVpGQTEm22jPvh7NuIRCsW/c8Z6dnP9vbbyDyXjpr7uWqs4fv97u8/lYLH9QwjzDqAhpfDviQk4uEHZe4fISgjBo1D14XmvAMfpDGEv9EjEYRfIglyJRKflUHZ2YvM3Nxn9krd5g4v8Po2U0mL2wxf3Uf93Wx7nvMX9xm/pK+5OvFyzssXNzEfWmLU2NL5JY2EBppxz9ILI5uaVV22SPTK9lOsbovAG/CV7rIpM0yOJrcsuOcnpjDNThKbWcXeSdOkFJcSHxOFhEZyYSmW4nOTycyN4XInFSij6UTnZlGuNWOb5inz94zcfQw1fcw4FXM6+GbfwnwMprKEIHRGI3MNVOgF48hJILgBBtxGUdJyC8irLSCoKrjhNU1YGrQwR4mijK1TRirTxJW5yJcAH+8g4iaTgV4AXtsZTcxld1EVnUSVdlFTFk3UbntRKY3Ee04icXRSmpyB+n2DjKsLtIt7aRZxOI3YUtswJJ4AnPicSyWahLN5cTGFRERmUtI2FGMgWn4+jnw8ZXEn570k7mEaolW3fMlwP/fB3ilQecR+5Cu0BDPPDsBfZCEUYFGtCgjWoGV4N58opbrib3egvFCNT5nSwkU0s16lVoGD9gjL5aTcL4c29kyktZKSTtfTsb5co6cq+DoWgXOlQoF+KKlSsrna6ierKNmuI6jDU5CkzxcfKFX+wYizVxCL/aKpChymMpTeN35/5/r8CGNy/w94MW6rzy38GEC+JoREo4PEpxepWurGaWxQNySYEWXDPKVnnF5+FJvjCHafJSKxj6mVtdZvLLP3KVdJs9vMnl+g/nLO7hv6ICfvbDJ/JUd5i5vs3htj/nL28yeX8d9ZZvplWu0901wxFlBRGyypzPIM41VuUQhesuqF/DC+ZbXvsLUM+EXFE1eaS39kwv0jc/QMTxOc/8gNd1dOOvrsOU7MWUkYcpOJizboTLmMdkZxB05QoQtBf9wsWRC6zw0cNCTVFLNMoq9Jq69eBxCcNH1yiWX8DzBZIgk0BiLn8hwSSJRLL1fKAZTHFFJmcTnFhNVXUdobQOhtY2E1J0kpK6J4LpmgmtbCD7eqlv34x2YajqVGx9d1aXAHlehgz6yqovIqm6iy7qJzHURkd5MtKMJi6Od1OQuUm0dpFs7SLO6SLG04zC3YLM0Y7acxGxtICm5ieTkRpKS6rHba0lMrCQmphhTRC5h4ccIMKbhJ9ZfhC6l5VdZf+nHT8AgAz9USPPd6/Veq/1118NWzvs7XgsvvHtROjL4m5SrLM1FJi2ccFHqlUES0k8g1tYahlZiIXygCPvlVuKunSTkQhUhEq/fqlbWPfBaJRGXKzGfLydltZQjKyVku4txrpZ6VhnOlTJyl8vJd1dQ4K6kbKGGiuEa8toKiclOeD7h1dcYjL9Qq5WUuXQueluWdfku4T3ofQfeSs93//wOfz7y+hst/JcBv4ifuPMnDwN+ieD6OUIrh0isGSQkowotxKLYXf5+euOKtGIKF1oehkqcibvvH01CkpPmnjEWLm2zdG2f+Su7TJ3fYPrChvp68eo+0xc2mb28zfSlLRYE8Fd2mDp3k7kL68ys3eDU6BInWvpIyyomUBpGJI4XGSmlzhqmGgyeW/i/A3wMeaV19E8s0DMyjWtwjI6RCTrHp2gZHKKsrY2smkpMR1MIz05WGfPYY0eIzzpKpD0No0kEGD3xu3dq6PPTWRKG3rZj8TJ0RpuqcX+1hCRqPtJkIhJc6gAJRQuKJCQ+icgMJ/HlJ4isbMBU1Yip6iSmmiZMxyVR14bphG7dvRZeEnURNV0K+OLay4rwAF5ZeBkx9RXAp1hdpFo6SLW4SLa6cFjbsNpaSbS3kOhoxmI9id0uoG8hNbWVlJRmHEmNWO11mK3VREUXYopwEhyapYCvGWyecp+4/rqG3Vc33T/ztRfEX3c9/Le8v+MFvHSB+vma8BfClfQY+MhgC31yrVEUeqWsKtNjIwPRrEFoFVbMM9WkXG0l9lKdqqmHXKsh7Go1UZcqsVyoIHWtjKzlEpzLxeS6i8hbKSZ3pRjnSgm5K6XkL5dR4C6neKlCWfgcVy7W4iT8zTK/TlN984aAUPw902qkIUj6BGRJ34Dcgw54mXEgBuNfB/Z/EvBL+DUK4MW66xY+oHGJoLppwquGsdUNE55ZpeuYBcjUmBCCDaHqAxZut/RfG32jVeebWFj/kHhsGfkMzp1lVkB+fZ+pCxuMn73J3JUdFq7tM31xm7mruwrwSzdu4755m9mLG8ycv8Xk8lX6RhZx9Y1T29hFSloeEsML0MR9C/KXD/CQS/93gI8lr/QEZ8YF8DN0DE7QMTxB9/gM3RMzuEbGaBzoJ+N4GUmVBViKnCQ4jxGbmYXJmkJAuA54SdaJOy+bTN9w4oYJHVVoqnr/8gvAv+B9S3uj0kJTemgyoUTKfB5OvjECX1MCxvgUwjMLMTkriCo6QVxlMwm17cTWthN5vA1TTSum2nbl0kscH1bbQXhtJ+HSYXe8E9PxLkzVnYiVj1ExvLj0uoW3OtpJS+oixeIixSzW3UWS1YXd7lLWPyG5nURZ1hZstjYcSS5SUlykpLpITmkjKbkZe1IjNscJEi3VRMUWExruxF/GWMkILh8Bvrj7ugrxYWD+M6+9IP666+G/5f0dL+Dl+XtbbwXwkv2WJT0VIs/lKyFUQDBaWDCayYDmCMLUloXDXUfiuTqizlURd/E4iReqsZ+rIn2tgmPLZeS6iylwF1LoLqBguZD8lUJyV3TwF7hLKXKXUbpYTtVcDfbjKYSmRajBGVqoH1qI5H2CVTJZVIj0zkpdvccLeJWTkmYmWR7Zr8P3+T95/Q9YeL0zTsCtW3gd8L4nl5HvRTS7SWyZJ7tzgbjcBrQgSeiIu2IkxFeGCUjsFE2IIYZAX09PuxJUjFQc75J6F72TbuavbDNzaZPRszeZurTN3LXbTF3aYf6GXDdZuL7P8sYBi9d2mL2wzrj7Mr0jC3ScmqBvYIbjJzqIjUtVDzPQP1LVMn08gFOzvqRU+CWXXgBfT8/QDD0js/SNz9E3MU/vxJwCfOfYFK6xcWoHeintacN58gTpFeXYnHlEOdIJEAuv4vdvArxYeU/iyuMFyGYUl94LeL1Epze1KCKRWHoRmgyM1mmxEckEJB7DlFFKfEE9looWEqrbiKpqIbyyWQFe4viQOhfBJzoIUquTwBOdhNR1Ei5xvYrhJWmnAz7G3oTVrgM+2exCLUsHDpsLm8OFOdlFQqoLc6oLW3InSY4uHI5OHA45ENqx2Vqw2Zux2k6SnNqigG+2HicmrozwiDwCQ47iZ0zHIEMslO7cd7dSXhB/3fXw5vf+jhfwEhPL/vO23kpVRHllarCEaNwLqAIxCCEn2KCGRoQfT8E6XoZ5pQbrxTocZ4+TtlpD1koVOe5y8txiwYspFMAvF5C3kk/uagHO1ULyVooodJdQulRG5UI5NbM1OI6nEpRqUnp7Wpg/PqHyf4oxkF52XW5MuuLkteR45H7+NwN+UbXC+jcu6Rx4j4UXwBsbl0gZvIFz5DrHp2+SXtODFi4nu8TvRsL8wwk1SHujyCtFERIg+nRR+PpHYZAN7WfCZEmjorWHibPXmb2yzei5W0xe2mHm2m0mL+8ye10y+DeYvLTJ0s3bLF7bZe7ihgJ8z/A8Xf3TDIwu0tU7Tl5+DREmK35K+0yfryWAk1ZR4Yt/GfBx5JU0cGpkXoG+c2ia7tEZeifn1BLAtw6P0DI5QsNYP3X9p6js7CSvrhHHsXyCIyVhFcY3W3gZO6V7GTJ6yOsJHAZ8oH+sUuPVDwaJsURVVvrKPYITMrI4yEFg1BHC7QVEZ1cRW9RAbGULMSo7367AHlTvIqDBhV+jC9/GDgwnOwlo6CRMMveeLH20s52otGa+BPhEAXwHSRYXNpsLS7KLxNQOEtJdmNM7SUrtJTmpF7u9C6vFhcXSisUiVr8Vm70Fu0MA34TN0YDZVktcYiWR0cWEmSTBd+R/K+AlGSZxuyTrBPwqay9elJRCFWFKJNpD8fcLVGWyEHsEya25ZM3Ukrx2gswrTWQt6ySa/KUqCpfKKXaXUewupmi5kIKVfJxreeSczcO5JuAvUj8rXyylZq6cuukacjuLiMmz6xTaYF/F6VcKNkqqTejMsWoctlyls1LtA+lpUIfR/xcWXnqJJd6UOrLRjGYuJqy4n/C6RUIbVjDWSVlugZCmRUJOLigSjqlpjnjXEsk9y9S5d2ld3aXv/C65Taf0gRKeJoyAgEiCJEb19IoHBcTh5yeKpRE6S05N5ZR61wcj4gAAIABJREFUeAFtpyeZOXuThcuSld9Ra+HqHtNyCFy4yfjFdWaviou/zdzlTcaWr9A9uqis/KmRBU4NztHc1k+mxPPSIabaPsPVTG/1IQo7TEQw/eRn4kInUljSytDoGqf7l+jpm6X31Cz9gwsMjSwyODRP38AUnSPjyr3vGJ3ENThOc+8QhRJLq0ShbCIdmCojrKZ1SilOXLYgTxz/AvBSolNUUU8IIJYowC9GHQTPAS9/TyoJYo3EGxApYpUAS8QvyE5QdCYRyQXEO2uwlJ0krvwk0ZVNRNW0YKptIbyuRZXrgmqbCa5pUZn76MpuYku7iMl1EZ3RQmxSE2Z7q7LoSR4LL4B3WDuw2TuxJHWRmNxJYkon1pRu9bXZ3oHZ5sKsYvw27I527EntWO0ea+9owuqQv9tAnKWO6MQaouNLCfB3KOaeUgDyESUcGR8mhB25P0lOvSiriq6/j7iwHjfWa7G/6fpNFl4+X/m38rmr5KmnT1/kzoWrHiCKNcLAMxjwN/ljL0mmZOI4RasnyDxXSdalGo6tVJHnFrBXUrxUTsmSAF7c9lLyV0pwrhZzbK2YnLUSnCulFLrLKBN3fr6CmtlqKiZqyGx1EpIVpYcNQf74hUao/na9XKsrDHktvC6TJm2yHt0C9Vl4uxB1T+n5XvkO8b3mL7RDcTEkhvQX+eYiIspHMNW6Ca1fxVg7T9CJWULrZ4homMLcOk1W3xJV05doX73FwJVdxq7tMnFli/yTnWgmy4s5YZKMEmUORSXV1UoNwg+WtlbvkhsKiCY1q4S+wXlWL27jPr/J4tl1lq/tMXV5g+nr28xc32bqygYzV7eYvbrF6MoVeibc9Iwt0TOyoOL57v4Zqk7IhnXiKxJPYoHFUoprLySXgDh8/CSRJMICdkpLuhg8c47h0+cYPXWWsVOrTJxaZrJviam+RcZPzzM4OEvf4DSnhufoGZjh1NA8J5pPERGX5tFU94hTqgSenMhygAYpwOvA/8dLK4cfpLyWwyHMN4EQNVpZb26REU3BYQ5M8UeIcjiJP1pKnLOC+MJq4krriKusJ7a6nqjqesWrj6rqIKq8i+jiDgX42KxW4lNbSLQ3YzE3k2p3qUx9qq2LFGs3DmsPdlsPFlsPCfYuElI6iE9xkZCiu/qWJBfWJBe2pHZsAnrPkjKfOUlfCY4W4pIk6XeSSFMeof6pirkXoCUSIBLhCvCSgZbnIr0IoWqpMcwyxEOSr4cGI35XwD+X4ZZDXvggniEnIVqMGtUtKkUiwR0cYsSSlUhxTzG1y/UUna0gay2PrHPiqpeqrHuRu4KSpQpKF/VrobuSvOVKclYqObaqL+dKpSrJFS9VUrFQSeV8FSUzFRSPV5DSlIV/ijTwGNCCQ5Cps3JfMixTRERlKbUk4a+I9xEQik+AeJDioereofdwO7xPvN/7R6+aj9Qj5TRRLnYcWkwusdUTxDSuEVq3jKnBTejxKdXpZm2dp3DkMs0rO/Rdus3g5T1GLgkQd1T8XdzQgUFE/bz8dmXNXw54L+gVH17myIVbyC9pYGDUzeLqTdzCrruwwdSldQV2BfjLG8xc2WTuEOC7RxfoGppX7LuegTnaukYpKm8iznxEP1SUpQz19M5L7VwefBzBIWkUFnXQ339WrYH+NQb7VxjqdzPUv8hw/zxDA3P0D85yamCa00Oz9PbLVQDfR0Sc9Ay8iAl1oUcBvCTqdAuvA/67x69ioXTZ6Fg17dUoB5VBppMm4BtoxhBqITghk2BrFiEpTkxHC4nMryCurJaEqgbMx1uJKW8nttRFbGE78c42Eo40k5hyEov9JDbLSTKTO8lI6iTD0UWao4tkezcOezdWRzdmRxcJyZ3Ep3SQmNyhYnsFdonlHS4V0zvsLmTZ7O1YHW1YHG0kOlpJkAPA0URCXDkxplxCA9PVuGqdqadTcX3UIelxX31FZ0/X2vtXAV71+kuIJBp/MibL42EFiv6fXxRGGWwREIA5w0ZRewnVE8cpW6wkf7mInHP55JwXwJeozLsk4sS6lyorX06hu4K8Zb3u7gW8gD/PXYnU4MsWKilfqKRgqpjy+WqKhsuxVqbibwlDCxZZLgl7BfDeLL0AXtR4hXIdrqjAokH/Lwe8pgXoo4zFEspJaCkmqXkJS/slwo67iW9awda6zNG+S1TN7NB18XWGbrzB0JUDBs5tMSGZ9Es7LFzYpPxEBwGhQsX0uLFqXvYLy66su0ePXMlUSR06JFEHpqirRiVRVtPOxNwF1i5us3BunemL68xc22b22ray9rMC+CtbjIpLP75Ex9Dcc8D3Ds1zemQJV/cYzoJaIqKSUR1TwqkXySX1vqQOH09wWBq5hW2cGlyjb3CVvqEVeofc9A4v0Ts8T+/IHH3DswroAvgzCvBTnB6a40RzLxFxX+Xye2unUkrRs/R6tv67A14svJz6gUoJNo5AQzx+6sCSaoSHxx5iRgu3oMlsvvhU/OxZBGXkYnKWEJFfpXj0CSUuEgvaSHS2YM5sxJJcj9Vajy2xnswkFxkOF+kOl7L2SQq8LqwOF4l2FwnJOujFxbckdWB1dGB3dOCwd5Bk7yDZ5lLLYWvHbmvHZm9T4YKEDBZ7ExbLcWyWSmJjCggKTPVQdKPwEUFSyVVI+Oex8v9qwIt7LNUPQ4Doz0k9PhJ/YxQBQVEYFMfeSJg1jmMNhdRPt1CzUE/hfCkFUmo7l8/R5Rycq0XkLZeoZJy48gJ6WXIASAnOuVJOzmoFx1Yr1FUOATkMShcr9cNjpphK93GOLzWS31dKfL4D32hx1wOVkpDoNegWXi/NSaihGqv8wpUEmoQ3/1oLLyIHEm/Kh+4fizGtmqNdZzlyZp2k7uvkDm1SPb1P+9k3OHXlbQavvcXQldcYuXSXiYt7TJ/fUjx39/kNqiRTHCIum7ixMj/NU67yuiRCP/Usb+wbFGrGXwYnqFjOhDnJSWvHMAsrN1i+tK0D3uPGT19aZ/byporhR5cvK8C7BiXLvkDv8AK9g/MMjLnpH1mivvk02c4qIkx2JYIhLo8OeAFLNP5BNpxFLfQMr9A9vEzXiJuO0SVcYwu4xudwjc/QOTZDr2Twn1v4KU4Pz1Hf0kvkYcCrTftlwHvr8P+oq/Wy31PxvgK9yEjHYpQBFs8B7wG9TAwS6yWikYGxaKEJaBE2tLgUfBIzMR2pICKziqiMKuLSqzGn1GBLOk6SvY4UWz1ptkbSbCdJtTeTbG/GLtl3e4ti4iWKtZZYPkmP462OLpW8c9i7SLJ1kmzrJMXaQYpNL+k5pKwnoLdJLb8Nq70Zs+0EtqQTJForCTPleNh5QsGNwcff0+0oDUii9yc9Ds9det2t/yZ3Xn52+HPz/q43Sy8aeTJoRQ5eCR+EXeknhKlQKZNFoCVG46gvJnewgYqldkqW6slbLKdgtZTclTwyF47iXCtUcXrBcjFF7hJKlvQl4JcSnJBtclbLOLYmwC9XxJtCt8T6uuuvPAN3JZVLtZRP1pLdVkDMURsGk3iDRsUTCDBEIS3cAT4yr0CIWZ4+C+XO/4sBHyAD8KRmLO5VQByBaVXk9Jylaul12q//nJHdXzG19+9M7/6CsVvvM3DpNQbPHzB1+QD3jVeYO7eF+8IWy+fWOX7cRVhQgpIllhlnQrqRhJ1sXFlesMvV22IpFt5XNqsAXqimoWaSM4to7xrDfWGT6Qu39Lj9ypYC/+ylDeakfOe+TPfYIh1Ds/SNLSkSjrj0p4YW6B9103V6mpMtZ8hMK8IUJC2f8uB11puyjv5xOEuaPUB34xpfpG1igZapOZqmZ2ianqJ1cpqu0Vl6Bmc8MbzE8rPUt/QQGZes67V7NNtFLUZpv32pW08aIL68Kf+Zr72fm8R5z+u1PjKrLdbToyA9Cx4VG/FgJC8iIBLgi+ckFRNTspob7x+ZSWh0NpFxucTHF2FNLMORWElyYjXJ5hqSLLUk2U5gdzRgT5bmmmZsKW2YkzqxOHqwOnqw23tw2HpIsnWTYu0iVa1OUgX0Qtzx1PIdljbsHgKPOamJeHsd0eZKwqLyMBhTPFZeqjTCv/fkQOTz8yzdpf+fA14y8zIEM0ByKsKsC45ACwlHCw1BS7cT3VhK9lQHOYsunCttOFcayHFXcGyxEOdSLjluJzlrBQr0esmtiBJ3MaVLxZS4S9QBkKsSd6UcW9OBn7siZTvxADwZ/bUK8tzF5M+WUDpTQ9lILUdPFmBKSUQLDFTt0f7+URhlVpzB49Yr5eMvG0ux8t694/Wg5er93j961YKkPVNROsWljyE4rZKy4Wv07/2K8z/7K1u/+hvrP/szl979GPe9/2Bm+30mbnyPiSsHTF3aVxZ+SRJt5zaoqXURGiwD7kLxAl5O2a+exM/fsIxxFuvu6R83CPAlg2+M5UhOBadGlhTJRqy6LAG/EG+kLDfmvkzP6KJavSOL9Egc3z9Lz8CssvSSADw9ME/t8Q6SbE5CgsyqPKdTXSVRKHX4JnqGl+gaXaRDWfZ5WidnaZmaoXl6mtbJGfX9zqF55UV0DczSNzzPCWXhPYA/tFFfAF4OUVn/eMLu5Q9Mf8gyVURqtLowhcTxku2Ow1dVHDwZaGkOEtqwGukcj09wIgaRHveTeQMJSoXIIPPnjA5CAlMID0rDFJRJQkQuiVH5JMYUYUkow2qtwpZUiz21HntqM9YkydwfBnuPSu6lWrtJtXSRZulUK8XSQbKlQyfvWFzYrS4stnbMae2YrHWYLNXEJNViSihGC5D6fKweQh7SJXwOeGFLSj+EJ1v/8s9G3+zP99Khze91gQXwavSVj2TFJZaXGXThaOZEQhtryF6Z4OjFCTIuDnLk0imOXuzgyHI96bOl5MyXUni2ipw1ycIXKTZdoQfsZUvFlImld5dQsKwz7HSKbRkCeHH1xcoXukvJWy4i111I7nwRRbMVVM3WUz5UR2pVDqH2OHxCRZFH3l+UmvEo8/dULK+euST29MEr/zrAB0gZRMpyUgqIJi73JL2X3mDth39k/aP/m4Mn/w8HD/7G3q8+YeOnf+DKu/dZufcTZja+x+ilPSYv6GU0yaxX17qUJrpQW/20UMVy8gLe624dfnjysNTMcSlFiYWXh+8p1cQkZFJQ3sSMUGk9bvyMAP7COvMC+KVLCuz9kysIEF2nJunqn6FncE5dewfmVAKw99Q0hUX1xCccQSneelx7CSUKSk/SJ6HAyAJdo/N0jIkrP0v7xIyy7m2Ts7jGlnANL9E56qZjcE4Bv66l77mFl00qM8tledVd9QPMk8c4tBEP3/s/9lrArHtICvCivusjE22EoOGN4z3/jyo5xuArswUC4jyCn57ONclQq38n5A4hecThr8WpYRMhvjZC/ZPUARARnkV0tJO4xCISbKUk2mr05Nxzyy5g7yHV0k2aWgJ4faVYOkm2dJJk7cRu6cBm7VA5gLj0ToJt9URntpJTM0aOiJqai9B8ZdSWvD/xUHQxUklQHf48/6eAl/hYvEyTXzwBQggLjEKLs2KorMQ6O0bWxnlSNpZxrM+RfHOc9OuDZJ7v5MjSSXKXGihea1SuevaagFq36AL0ikV9yWtx8/OXJQTQ3Xtx8fMUvbZMHQaZs0cpOFdM6YUqZfVL56upnm2ksK+a9JpcNFMwPmHh+AZFqPZuGaEl47/kcPc2W3kPMO+eedkh5/3Zt101o69YIQ8N1DeKlIoOFu7+gvVfP+PWh39j9+Hf2H/4V/YefMbOh39m49/+F1d/9Ijzb/87a6/9iPHrd5i+Io0tu5TUuvCVbL/QFn0khteF+AT0h4HvfVPyxn1lDLQnm//8RnwjCTFZiUrIoHtkgfHlKyxe2VZAlwNA6vWjCxfoHp7nzOTyc8B3D0iibQFx7WWdHllkaHKFhtYzymMwqvyC3jEXEZlEUUkD/QMLnBlcUOU2sd49I/N0j87TNbZAx7ibtolzNI2epXVsjZZBAb+b6pbTmOL1LL2PZFS9oFcMwxdWXe7He69fd31+z89zDN5cw4urhCJqvJAQiJ6HJl/+ufD0/USWyiAbRSyDflhIrdfbniuhgWwm7zw5SRbJ9/RpM/EY/S0EBTkICUslNCKDsIgcEhLrsZrFRXeRYu8izd6DsuaJLtJt3aTL11LOM3dis3Rhs/VgtfdgtvcQ6+giOusUkcf6yKydpW1iB9f4Oin5LrRgSXoKPVnieeEdiIimF/BhnvBIbx751s9IckSSDJZQ8dDnKJ+B3KtR9BikW1NEUJ2lWManybhxHev6Fax7VzHvXsCy6Sb51hyZV8c5dn6AvNVTFKx2kLVSy7G1KnI92ffy+UpKJoooHiugcq6ccncFxe5y8pfLcQrtdlmsehmFK2UUrpaSMXeU/PMllF2upmilnMKFCioWTlA51UDJmVpMRxLxizMp2XQZvy1Y0IEehdFHvGV9gKpu4fV6/OF7/Lp99XXf16ThXkZGK6K+IYKUsnbcB79g9/7f2Hr432w+/CubDz9l48Enavzzxv3/YuPD/5OtD/+T7V//noWD95jZfI2lrVfJO+HSWUzGSHwDJGYXtts3g17emLoBD4FFPXhvjd4vktScMpp7x5g7d4vFi5uqaUYaZ0bnL9A1OKussyTsBOhfXfL905PLdA7NUtPUQ2LSMQKCZJxxJKZwCyVF9QydmWfQuwYWGBhcon/ITf+wmx4B+tRV6sYvUz92gbqBZZqG3JQ1nyE8XrT7JAwyeWa+y8yvv68ff90H7/3+4Yf3stfe3/NevZ6S9+o9TL1XL8nJez38fXFx9VZMyQzrS9V+VcyoD87wkZ4DX09vu8FCaGg+URHVJMTWk2RtIyOpiyRzO/b4VjKTe0l39JJs78Fm7cZs7cHs6MOScgZr+gAJRwZJPb5MXvdNmudeY/Lmz5m69gHFzbMExuYqURRNeBG+Mr1YpskeBrywFHWmmTeh+9KreISiLfB8XoEcEt6DIgKjnx1Nk6lKdjRbPlGuYbKubJG+d0DUxgYxd3aIubNB3O41bFsXSLuxQvalRfLOzZB/boQjy81kr57AuVRL2VI9pVPVpDSnYq+3UTxcxPGl41S4q5E6fe5SKU5l8csoWi2ncK1MMfCEhaey/SslnsaaKsrn66ieOUl+TxXROXa0cJkEFOzhjcgAjmhCA6xfArzX0h++evfFP3p9AXgPOSWlrBX3wc/Yu/+MzYfP2Hj8Bbcef8qtR59y8+FfuPHwz9x48Cdu3v8j6x/+J5d//IBzb/2Cy2/+lLKOIbTQeDTpT1eEF+HUfxnwX2fpvQk9L+BVnd4vEqPJwtHC4wrcInyxfHmblSu7TC5dVpZdZedfAnavq+4anqVzdA5X/yTFNc1YkyVTLF1UEZQWNSjAD51ZZPDMEgP9bs70r3BmYI3Tg2fpGL7EiakNyifWqRy/TsXQBU6MnKeoZZiQhKN6gswvQv09pV4jgPckKr33+W0P4mUgP/y9r/57L9C9Vy+gvf+vAF2A7V1e4Hu//upVfq7/jUOJVe/8dhEu8U3B6J9NeGgBcdFV2MyNJNlaSRHCTrJY9A5sjm4Sk3qJS+ojNuU01mPjZJYv42y6yonZt+i8/AuGNn7NxNavmLz5U+oHrhKbXocWYNfzCx4r7wW8mnsnYeY/BHgxGF6Av/B69M8wCj8RVQ1MQUvMJ65pmGOrGxy5eZeE9duYNveIuHOXiDu3id7bImHrJo6bl8m4ep6jF1ZxXpjj2LnTZC+3kb/YStWSi2PdJfilB+HjMJBUm0TVRDXV87WUu2vIXygjd6GEwpUKZc2dS5LhL1I8e7lKV13esrDxKiherFagL5+o52hbMZFHBfQSWkvFTJp7dJ794Rj+MNC9r7+6P77taw/gPe2chnBSS5txH/yEvfufs/nor9x68hk3nn7K9Sefcu3xp1x9/AlXH/2Fqw//SwF/98lf2PiP37P9y6fUDi7ossjSqiqEB0/S6vCm9L72bljvG5QbUKBXY4QOsfEMJkKiHDhL6hmYWOH89dusXdljbO48Xhf+q5bd+7WU69qHplVs3jsxT/upUSpqW4mKSVLKOEX5dQydWWBIwH5mmf4zq5w6c46+MxfpOXOJVpnqOrVP7uQeBRPbFA5do2r0KnmtkwSanboyr59YJ08ZRXH49cqE9z699/d118Pgftnrr/477+fmvUoJSmJV75Ipqy+WF/j6HDcBu/cAeAF0Pan6nNkmdV+lVCRusnC7JalqxdeQQnBQNhERRaqGn5IitNo2VZuPdXQSYe8iMvU0lvwZnE3XOTHyBq6Vn+O69mv6b3/M0N5jTt/4JYPXfoJr9g5J+Z1oBqsuf+Ybp1t5j4X/pwB/yI03+EXhJ+KmiposlOcYNNFUtJcQXXsG58ItCta/R8qtV4i8cYfQjQNMt18n/PYrRO4fELO9i2V9k6QbN0m/cpXsy+dwXpim6PwIJUtncA40EV2YihaqoQVp+NuMZLfkUDpcQfXiCYrnq8ifL6V4pZKi5Qpy5oVfr9NvhYIrS3IBAnq9hbaaqqVGamZayGouJsAqbNcApYTszTdJqOYF98uuX90f3/a1FmiQTeEBvE84aaVNrBz8iNv3P2Xr4eesP/mcm08/48aTz7j+5HOuPv6Mq48+5erDT7j+4C/c/d3f2H/wFw4++hMnx8+iRYtopYzQ1UdCSRx1eJN9daPJxpU3+Rzw3njM69YrcoaJ8JgUapt6WVi9wcrFLQX43qG/d+OVZZdEnMTyI/N0DEtpbYYeWUNTdJ8Zp6C4lrj4NPIL6ugfWOL04DI9A2t0Dl6gbfAyzUNXaRy8TvXIFs6pe2RM3iN78i7HhjcpGb3FsbY5/C0Feu+BX4yHPixg0ps0xG32gst7f9/2IL7Lz+Vvy8Hy1c/3sBXXP29dNsk7cFDNEvQMH/TOfZMEmZ4ZF00BvYVUFHl0go+Il8RhMNgwBmUSFVtCgq2OaMsJYhytRKV0EndsiLSaNcrO3KVt+aecvvGI/u3f4Vp/RNfuU7o2PqLr2i8YvPkLTq19n6PVw2j+SWi+FjQRypAKgwK8uPXeeXHf7tL7ShnSk/ANDE4gKMSMwfs90V6IzyTkeBfZ81fIv3qXzBsHWG8eELNxj/DNe5j2X8e0/xoR+/eI3r1DwtYu1o0tkm6tk3n9KvlXz1J9ZYWC6WFiKgvRJN4OEnqsDnpTZhSZJ7OpmKylYqGO4oVKStxVlCxXkr+ks/Qkcy/98sLaU8B/Dnqx9DXUrbRRPFinZNCVax8oE2N1z0WM4MuA7v3eP7tvNBEFeAH4MNJLT7J68APu3P8LOw8/Y/PJ56w//YJbT77gxuMvuP74C649+oJrDz/nxoPP2H/6f7F3/1PuffQXmscvokWKC6VPovXxk04gsTgvAHAY8LJZvZbKewPqquZ/63Vl4dnrDzRCkXJaOoYV9XZ+5Qb94+6Xxu1eN793ZJ7OwUl6hqc4JYAfmKB/ZIb2zgHyi+sor2mnb9hN18gabSMXaBy5TM3odcpHb1I8uoFzbJ/UqTexTb5JyuRrpI/skTe2zRGXG4O1RFfolTHbvlFKo07uU7TJXsxE//uS5N8/ID0RI4m5v1/fnvTzWmbvVWS9Di8vuP9+eow3MaZfVeLRJwxfnzD8DGH4qyWuspQXva5yDL5GG/6hGQRH5xPpqCMxu4vkskkKO29ycuFdeq/fp3/nd/Tt/oEOAfz+72nZekLrrY/o3fqI8b37DF7+Ac76abSQI2iilKOSdzrgdVr2Pw54mUL0HPAhiRiDpT3b837DEgmoaCBudA7ntR2ObRyQdPMO5o17JO59j9jbbxKx9zqmvdeI2HuFqL0D4nZvk7Czi3l7m9SNDYpvrlPkXsXh6kJLyVSzAKWW72eSRJsBLUwj6lgczs4CyqeOU75wnNKlasqWqyhdraLALZJXFeQqVp6o4xTjXPNa+1Kypwsod9dTOlmP7fhR/MTKh8ncBMlNfJla+yWMeA6Cv99P37xntCAf2aTyUCVmCiOjtJHVgw+4e/+/2H34KTuPP2fr8RdsPP4r64+fcfPRM248fMaNB3/l1v0v2H34jP0PP+PVDz+jdewyPqJD72dWD9HfL+G7A97bZCObTYUHco1STTanhxeZW77O0NTqywEvzDvFvptXID81NMmISFn1j9N7ZozTg9M0uwZocA3RObZC6/g5TkxcpmLiGgWTtzg2uUHm5BbJk3cxT79N3MQ7WCbexDF8l5zxfdJdK2i2crTgZL3hyFfm1keqg03Arq8wpVf2bRb+ZQ/x8Pf0ByqZ/5cvlTuQxqCXLr2OrwArIPCIferXF6ObJVZWDDcR9/QRffQw1UkmV4MhFH/RhZPEriECvxCr/nxDM7Aca6Os4yy1Izu41n7AqfX7nNr9mK6d39K+8ztad39Px8Efadh4TPOt+/TtPmJs7yH9l35AbuMcWmjWIcALiUjccCFg/eOAV//GU8oVlWTF3pODNziesPRcUqfnsJ47R/rNdTJ3bpO8cxfL9gGJe69hOXiLyJ1XiNyTdY8ocetv3yFuf4/4/V2Sd3ZwXrqJtXuEgLwqtPg0NJE5D4om0BSLn/S2GzW0OH9iiy04TxVRMS/JvRpK3JWUrlRT6BbQV3l49zrgc9YKkSVxfdrkMQqXqiidPUFqcy5hR8z4xESghZkwyMScQ80zh/eF9/V3ALxka2UziVsvgG9g7eB9Bfi9B5+w//gLdh79le1Hz9h89Iz1h3/j1oO/sX7/GRsfPWP/4X9z96NnvHH/Ga6xaxhk1JRom2nxGA2JiuH2z1r4w911clqrzjdx8UWiyGQjv7SR7jMzDE1+M+D7hucYGpvndP84E1OL9A9O0tkzSP/IHN2DszSdmqRtco36qQuUz1wlb/YmmbObOGZ3SJjdJWb2HpEz72Oa+ECB3jzyClnjB6S4zqLZq9FC0tBk4q54MocALyOkjR4l0v8p4HUP6OVgl0NAgG6QpUQdTCqBKEnh4nLPAAAgAElEQVRJfXn4DQrsAiTdauhXAZUX9HrjioDbzydUgV1aRwMMoRh8AgkMln8rUtomgiLt+kz4QAdZ1QOcOfcGp6/8gFO3/p2erQd07Dyldfe3NO3+nsbdP9B+8CdObD6laeMRPTuPGdz+iIGrP6bEtYpvZO4hwEtN3jsc9J8AvFh4jwfyfJ/4RmK25+Bs6Sb74jksty5h27xB0u421p0d4jZ2iN26Q8L+a0TvHBAla++A6Nt3iZYE3t09Yg92ceztkTDhxq+0Dc2ejxZ9xBPGxapqj8EYip8MgRT3PtEXR0M65TOSta+lcE406UspXhLQV6suOuXarxaRc7aAY2fzFYsvfeYYxavVlC3Wk9ruJPyYGaMtloDYWPzCPerP3+DW/9OAD1TlGd0NELprZlkza/d+yJ37f2LnwZ/ZefIZW08+Z+PJX7n1+Bk3xMI/+puy8rcePGPvyX9z58EzvvfgGW3jV9DCUz0dadL5I0QPnSL4sqtOHfW4IN6knbo5SVTI0jXJZHyur38EPsKWMkYTFpuCs+QkHadnOT3s5vSQxOELnBZ2nfTGj0o9fYbuwQlGJ+Y5dWaUwdE5eodmaTs9RcfEKs2T56gcXqN86hoF0+scm9khffY2tpkDEmZeIXb2NaJn3iBm5l0iJ94hZvJ94kbfJG3idRyui2i2SrQgkcmWQYxSkvNmu71xtR43qxnqwoJTrDFhIAZj1IIJVPLEIQRKSUm58zLTPQEfH+/4J10N1uAvCVAplb0gp+jut9B2Q5T77SuCiMKn8ABdSWWpkqEX8MLz94DdO47LW4pV3X0C7FBl3YUwpcsmi5UPxegbRGBACNJGbQgwYZRGHREkDbDhbJhg9PoP6L/xU3pv/RvdWx/RvfeUztti3T+mcespzbf/QOPOU1x7v6F39xGDWx8ydvOXnDhzjXBzJZqvQ0lf+/jEIyVBPXEr3ogcRhJSyD3IYa/rDjzvUPTwzAP9otRIJkk0KuGQ0Hh8LBlY61oocK9gv3aR+O0bWHY3sexsE7++RfTNbaI2bhO5c0DE7Vcx7d8j8s4rRO7eJvG2eAC7JG/tkH1tA2PZSTSHzOhLQwuTnEMcPoZoAtQw0xBCZD6Bn6ZAH5adQHZnMRUzJymfbyRvooLypTqKl6SnXur0JeSsFZF9Lp/sc06c53I5tnSMirMiaV1NZlsupiwb4cmphFmPEhydqec3VP+EhLbRGMSblBKm7CcZ4y3emVqez0sd7t7ciyTOdS/PezBookYjtVgfpSsex5FKF2df/Qm3H/yJTVlPP+HWbz7lxtPPuPb0C648fcaVJ8+4+uQZ1x8/Y+vJ39i5/xkH9z+haew8Wrg8QE+G/lvcEXFLvG/kZVeJP/21IHy1AHx9QwkIkSYR3e0zJWaRX9FOb7+b/sFlBgYW6e+fY2B4joGJOXrHJnCdGaCvf4S+/jG6BqZoH5qncWSZmokLlEzdIG92h5TxLWwTd0icfJW4qTeJmXqb6Kl3iZ56n5ipdzHPvE385PeJnv4hUePv45h8F7PrKpq5DM1fiBGiKx6omIVyD5qPgNsrVSRhiIdCKp+FZiRI88Xk44dJ8ydMCyBc3GRFkoknwD8dY2A2PoYMNC0NTUvCNzRZT4IKZVaJXQpxSFxtacENwN83CD/fIKXPZpAWU+mlFlUXL+DFqj8Ht9ei61fZMNJUIt6dlx0pgPdX3kkYRtFwD5Bn4EdEaKyu+a9EJKTd1E5m7Qh959+i5/IP6bn5S3q2PqRn55EO+t2ntO8+pW7jI07uPqL77sf0bt/nzI1/Y+zaz6g/dQ1TYiWaTzIGzaZaZ3X1Fzn4dG9OLLfOKJT4XjT/ZJ6frlgjmnTiSYVpJmKDzAr0KhywpBPW2Iplbo6k9evE7q4TubdF7M4OCVt7JG7eIX5LrPo9THuvYLr3BiEHrxL5yvcI29ghZe8eqVc2Obp2g6zBeb0ZKUAafWLw9YvB3xCthpMaVaOLAEsSi4FoxkBVSw9MS8DZXceJxVMUjTdQvdRAyUIFzoVictxFZJ8tIOtcLtnns8m9cIz8laOUu/MoHsknpy2f8PQkotLyiU45TrS9Ds2YrlczpFoizVMB8RgDY1UrsYz2Nvjoy0eGmahSpuxBOST1A+JrAB/lAXw8RyoE8D/9BsD/9TnoFeCfPmPn/qcK8CfHz6GF2/VYTMIEybp+gzvyjwDeTwtSQBF3MyAkBs0oli4cQ4gZc3IBdQ2n6emdZXhIauhz9A3M0j+5RN/0Au3DIkw5jWt4jtbhRRpHVqgZPUfp+FVyJzc4Or1H0vhtLJP3SJh8g9iptxTYo6beJ2rqB8RMvYd55i11EAjgI8c/wD71Homua2jmUjShsSqLHaAAr8fK8kF73Ew5baU0JOUt8Va0III0f0I1fyW8YFRhlDSPmNGCjxAYX44pqRGToxFjfBU+Eflooen6NB8RJ1GEGClZChCkBTeQAEOwZ4Wo2WSScFNuvrL28uA91t17/UouQImEaMKX0D0Sb6VBT0CG6pNaND9MoeLJyGEi1t2swpmshkn6Lr5Dz9Uf03Pr3+jZ+ogeAffuUzp3nyjA1+88onHvMa79J3RtfUT/+q8Yu/5zarouERxdogDvowCfqBh/XmaZt7au04g9gPc02sj9C+CNPuFKry4i1IKP6hSMwze/HNv4FClXLmPevKnq6xF7O8Ts7BG3fZv4rbvEbh0QuXOP8L17hB28RvDtA0x3DjDd3OTo7gHZFzdwDM4Tkl+LFhSHQQRRZXSaQdhvUUquzaj62MVgiYiH6EmI2rARLTacuKIj5PU2UD7VRsl8PXkLVeQsVXJ0uZwjInG9Vkj2Wi7OVSdFbieVS0WUjhSS015AaIYDU0YepvRqTMnH8Y84ik+ww8NXiFEVCP9AUToWbElTkLTZygo+xFuQ564bnu8E+PWnn6rS3PWnX3D1yRdfsfBewP9FL8v9CwEvFlMacVT7rk+Iam/UAgXwuvsSEJLIkaxyGupP0X9GYvQlugfm6RW67ewqLRNLNI+7OTm+yonxs1SNnad07DJ5YzfIHtskfUwAf4B14lUF+Lipt5RVV4Cf/kCBP3FWB3zUzA+JmPgA2z8BeGXxPX3rEotLXGzUgvAXj0BYiAFxaEYbvolFRDg7SKwaJalhnrRmN0kNs1gqhzBl1GOMlxKgKMGK3rtsQJnpLpstBKNPGIGaAFPGKMlVvtatnyi16l6HnPqe0OkrdF/diuo/k/foDb3E65AhCX6aH0Y5pALlb8jGjtcBH5ZBdtMMfZffo+f6T+hZ/w96th/Qs/uEzt2nuHae0LL7lJO3f0vD3lOatx/h2viQwe0PGbn+c0rbVjGEOdEMSfj4WPFVNFKhBQuNWN6PSIXJIaQ3DqkQzzOtR1RnRXpapJ7V4JGQODSTGZ8MJ+befo5euEza+i0c+ztE724TsbdH9O5tYrbvELt9l5jtAyJ2DwjfPyDildcJ3N7FtLmNZXMX5+ZtkibdGMub0KJT0IJiPYCPUoCXFlYBe6CmazWKZxRojMRfWm5FDDPMiI85Alulk/KJNgoWTpK70kjOWiOZK7WkLVeSuVJOtjTduAspWSykeqGMspESclyFBB2xE3LUSXBWGSHp5YRYjhEUJV6ehHYeZqe/Cb8AE/4K9MGqF0bcet2T81h48bLFU3q5S//1Fn7rySdsPP2UW0/Erf+ca08E9M+4JvG8cum/DvC6PM//xMIrwCtihYBeJH+k48kLeIlbTURHJOE8VkV72zBnhpbpHl2ldXSVk5PnqJ+9RPXMZZWQK566Rv7EDZxj62SNbpI2vEvS8G0cY69iHf8eiRPfJ27ybR3w0+8ROf0eUdPvIICPnXqTSA/grdPvkSAW3vLNFl7eu17j1ktEUo40ivsuVl+yysZEtKijGJKriakeI/30ddKHtkge2CB1eJP0kXUyz1wh27WCtfg0fuZytJBMNGOyTkmV2rXkX3xk80lXWDghWpgapxSmhRGmhatOMfl/xZPyAtl7fVmWV/2e/K7qxxZuvpRTAwjQ/NUMNKXqEyyCJfFo4Udwti/Sd/UDem7+nJ7NX9O985CuPT1eb9t5SpOsu/+LBgH95gPa1n/N0N4DBq78GOeJGbSADDSDHR+fRNXyq5OHdIqyAEmFGpIb8dG5HHKAGWV5wK7kyyTEM8WjpR4lqq2T7POXOHJzHdutWyQfHBC9u0fk7h2idu6qBJ03SWfaPcC0d0DsK68TtrlF7PomWdv7ZK5cVFqAWkImWqhw8MWdj1R0bFEYlqERLwAvXlsYoUExBIVGYQgRCSsBfQBh6WZyumoodLvIv9RN3uVeMlbbSHY3kOauJ9t9AudCNcULVVQtHKdkpIKjriKM2VYCc7IIcBZgPJpPeOoRwiwO/CJj9ZHXfjLPMESFbn7CZpU4XnltnlKkN0Gr3HoJOb580Hti+JcDfuvBn9h+8glbTz5l/YmA/jNVhxdXXpaU6LafPGNXufSHLLy4XkrRVdyOFw383k12+CrA+LolG9pX3FhvHVjc1AATBokrA0xIa68M4EuMTqO48CSu3jk6xi9SO3SW8pELVCxs4Jzb5OjcNkdmdsiY2iV9Yp+U0TskDR9gH76HY+wNrGPfJ3FcYvV3PIB/l8iZd4maeZuEue8TM/0mETM/xDT5AQL4+I4XgPc95NLLfeixkz54Q9xjIeF43WSR6TYoFz8eLeIovhkNxDUtYR/cImX+DcyzrxMzeUDM5B2ix7eJH7hB7uguOR2XsFZOEJbZhk9ciV6/FpaadL75xGEUGXDRv/NMVonQwohUc9TE0sv//4KJ532tW1Jd5FFVAjyhl1QbpBHFIFqEviYC1bBDPzQtEB8BlwDePxGfxEKKT53n1I0f07P+S7q3PqRr9xEd+7+hfe9jWnZ+Q+P2bzh58J803vkD9RsPaNv4iOH9R/Sce5eUsgE0gyQ9rfgoJR99joAASCoFMrXI4BOswgg5eERfXlpdQ+Wqkrkyoy1KDe3Q0rMJamzGMjfP0c0tUnd2SdzYwLx/h+idu0TuejLxnoy8WHcBu2nvLlH7t0nc3ydla5vMi1eJaOtBSzqmW9Qwi0frUWSnIjxcC70HQXJfuhqz7MFI/P3D8Q8Kx1eV6nzxiQwhqiCNY7MunJcHyL8xTua50yS5O0lf7uLYcgc5880UL5ykcqGJotHjHOksxi/HjH9eGj552fg6swjPSiYizUqIJQ6/SE+TjczFU7r1Osi9/A3Bix5W6h6deHX/NOB3Hv9FgX7z8SesP/6MG48/58bjvyrrfuvRX9l5rAP+3v0/0yRMOxFd8OjI6TH8/wTwEq/KzDIRyPDEo76h+AWEEWwMJzwwgmBRHvWNwmrOoex4H/WnV6kYuEDh8BXy5/dIntvDMn8Xy+wBlpkDrJOvYB1/Devo97CMvol17G0s4++QOPEucZOSrBOwv4Np9h0iZr5P/Jwk7N7ENKsD3nIY8NKG+g2Al+RXsCb1eXGNTRilUcQvUe8Ht1YQXj5KxvgBlsnvET31FhEz7xC18C4xS28TNfsq0aN7pAzfJnton+wzW6S2niOycACDrRYtPAfNX3ryrfj4JBCgxRKkRSlAiDijjFSSJSDxbs7DV9U847GcigwlIFIusz7zTqTBZGqLUWmvyQYL04U1As1opgzMxd00zO5x6tbP6Nn8Fd07D+jaf4pr/2Na9z6mafs31G/9hoY7/0nTwf9B49ZjXFsPlIVvW3qNxNxONB+h1iaqQ1BUXnSwh+AnQPcJUksqEJKXCNJkGKRJHWrBQv2V2QaS0zEnEdLcRuLCAgkXz2Pf2Sbp7gGJu3tEbex4ym6vqCSdJOoE/AL4CLH6u/tE3lon484d0q9eI75/BC3DiSalx4BYncQjVtRPL3NKGCUHprfxSD5PGbIiz1klb/3D8JdY3tcPzeiPFhtGfFs56fM95F+ZJfvCFKmroxw5P8HRs8NkLnSTu9RByZKLvPF60rtLMDgT8MtPwlCQjl9uCuFOCzE5FmKOWjElx+Mf7QW98GY8VQzvBF8VPgpOvjPg/8ju4z8joN969Akbjz/j5uPPufn4C24++ivrD79g9/Ez9u5/wiv3/4vmsTW0cOu/FPBqQKG/WBUZUignVhC+hkACDUZCfIIw+QlxKISggETsGdUUNE9TOniVggmx7HeJnj0gbOF1TPNvEDkr1votZckTJt7DPP6+Wonj75Mw8T6xk+8RPf2uAp5p9i1Ms28SO/8mUTNvYpr7IeFTH2CeeY84sfDWUqUQJJYoQKoIygX9soWXjRDuG6PKXMIq9FdgtysLbchsI77tEqlz7xE5/i6Bo+8RMvsTIpZ/QaT7x0QtvUfC4ruYx18naew10sdfI2vsgPS+dRLrFgjO7kBLKEcLSEWTjjDFeYhTCSWvtReLL7rs+nilF0MZZDCDWH6xmt6ppYenskhs7F1KiFNAJ9LfgQkqfg9Lq6Jq8DK9V97j1IYk68S6P6bz9se49n9H697vOLn9MSe2fsOJ/T/QcvBHWvY+pnP7IUO7H9E4fZuorCY0KUH6xmMwCFNRGII62P0U2PVklMEvBD/fUIJ9JCMvc+FMBEl8KgSY8Hj8Ko+TMDuLbf0GURs3ib29h/nePeL2bhO1sUfM9j2it19VSwCvg/2uAnvc9g7mW7fIvHWLxPFJgqvr0UyJagCIhBEisS4JQi/gxVsVz0h6FdQkJS1C77X3kK1C/CMI8JX3G4hfgGTu/dAybcR0NuBcmcV5YZmsSyscu36WrEtLJC0OctTdT95yH8cmT5LcW4qWF4dfgRX/QgcBeRZMhXGYS804ylOw5CdjSonHN0LUqbwxu8Tp0vMgS5LF3wJ4ST7IXCtVljPEebL0Upb7L3Ye/om9h8K4+zPbD//C5qNPWH/0Gbcefc6th1+w/vBzth9+zv79T3jtwZ9pHlvV457nFl7XGT/swn/19de588o9VieWlKPMGIyi2iI3I1l7iSv9CNT8iZRBgWqWXBRBEUew5LvI7TlHkbjvM3cxzb6Kcf77hCy8S/j8e4RNvkPE5HvETf+YxOmfEDf+A2LHPyBm4n2iJt8jYvpdTDNvEzb7FuGzbxCzIO78m4RMv0/o5PvET71DfNf1F4D3+WbAi/chbr26T6GQSvItNJuwgkFs3ZtYRt8mfPg9gkZ/ROjMLzHN/YKwqR8SOf0+iYs/In7ufWIm3yJ2/HvYp98kY/ZN0kduk9B6lvDSIbSEMrSoXLSwTL37zCD17Bj8fKIRdVbv5BVvIk+AroNdwg3PmGLRLjiUCFNzzzwJMVUKE256sAVNssXRx0irGaTn3BuMbP8HfWLdt+6rrLxr77e07/2Oll0B/G+p3/qY+t3f07T3B+RnvTsPGdn5NSV9FwmxV3gaZ4S0FIG/Txj+PsH4+wTh5xOIr0+gsvA+vsH4GkII8gkjzDeCEAk1hGxjsqIlZ2EencB66SLxu5uY9reIOhDizB2id/eJ3blL/M5rxGy+StTmPWJ2XyV2/x6xe3dI2NnDsb1N5voGtrl5AmpO4HPEiRYq+y1SVV3ksxN+gwytEOALL0QAL1ZeStkSz5v8EwnSIgkxRBEq3Z0+IQT6hRJkFI1II1p4GP55uaSeOUPe6ir516+Ru3GDI9fPY1+bIuPcKMfO9pM53YyluwjfwniCiqyEFjkIK7QQXRaHuSoBR00SSRWpxOfYCEoU70aEMAX0UoWRMEwA74nZlbaAx7337j3PVQv21BV9NHGbY8ksd7H2yk+4++jP3H7yCXsP/sjeA52EsyWgl974h5+x/uhzNh9+zuaHf+bg0Wd8/8nnNI+uqDKGni3U2xv1poyvbwD4VsCrzLQ0V0g9OwKDXxgBfkEEGwIJ9QkkVAsm1EfECuVAsKCZjhFbeoacoZukTN0h2v0eAYsfEL7yU0zunxEw/g5BY+8Rt/BLrO5fET35Y6Inf0TU1A+JmP4A08x7hM+9Q9jc24TPfZ8499tEzH0f//G3CJ3+gNjJt7Ge3kSzlukW/mWAV6ISekJHkk9B0sSh8hBS0kpCCzqKvWGZpN49Yk59j8jhHxE5+R9ETP+aiKl/J2ryZ8RP/oT42Z8QNvsDguc/IHTuPUyzbxM9/QYJU69iHz8gbXSX2OYlIquHCc5pUYrDmikTLdiu9zMYE5RsklB9xduQJRZdn7MmYYYM3DSpWXwK5KppRhcvUTV6IRQJlVaV4ZIJtZeRXT9O8+we/dd/zOD2r+le/zUdmw9o33xMqxBttsWd/60CvIC+Zf8/qbn6IT37v+X0zgOGN/6NaGcHWmgGWoCMEBeBBxFL0UlJOuDFiwtSXAM54CV/EGAIwxQcR6BRF+sMTM8jwdXL0avXsWzcwrS3QfDtLYJvbxO6v0PEzi7RW7cx736PqBsHmK7fIX73VSx3X8O8exv71g5ZW9tknDtPUEMTmkW0/xLwDZUwTSodwQQLP0FiZSWwqQP+Bdh1lVkZlKon8XR1nSApFRrCCDSE4CszH0QdNywO3+xCMoamKLq2jnNjg4z1q6RvnCPt6gxHr4ySueQioacQU20a0VUpmKszsVSnYm+wk1ATS2JVAknHk0mqSCcmy0pgXCQ+kiSU0pyfCaNRBnwIyMOVqEyAZ899FV+aWHjR0FIugU+ssvDnX/85955+xsHHn3PvySfce/IpB08+487TL9j/zTP21Pob+7/5m6Levv7xM9773f/b3Hu/VXmlbf/37vRNFUR6RwRFBXtLLGkaE1uMsQMqItIJKoggCmJL7BXpgsbeRdBMnpmYolEz8zzv95/5fI9rrb0VTTKTN5njmfeHdewNItz7vte5rnZe5/WY91cXY3hL6UguxFuPjP5TSTspLYg8k26fVHp3Fl81qNLT7IW3yQvJSHub/PGQ+NgeoTaSJXYqkXNyGZ7bRMLnnYSUdhFc3EVoSQ/BhV0EFnQSWthLZOklhhb2MnRzL2GbzxNW1E1ocSdDitsZUtJGaPE5osrPEV7SgrOgldCi80RvOkf8yiaM2MmqRCX1z9dcepdrpbvYJIMqB5QAXh6G8AhiMBxJxM0sIGPFfpLWnCY2r5vI/MsM23iVYfK6/gLDcjsZsq6NoJIenGXn8S/rJrC0U11XeFEL0YWnSNh0jOQNB0hdu5vkT7cQ/cEGgiYuxJE6HWNoBoYzHpNPJBaHHJhSl5UKh5BXgjE7QrF5DVXafoZsDsUG1GUc/XPSqinaBnGYg0YROuI9Rr9fwPvrm1lS1cKirZ3M/byTuVt7eW/bV7xTfZnZNVeYVXONma4l7+fuusdbFT0sbrjOoupu5hYcwCEsRaskHTWzTgRYJCyzG2LhvVQML5x+BTZVX/ZWdWer6CxIaBESi+/4GUQuX0t0RSWB27bgWbsNW1019roaPGpr8K3ZjnNbHYFbmwisasK/aheB2xoIrq4ndEs1UZVVJJeVE/zRQswZozH8ZZxzCA4PCcFEgFUbErkODXitsactvMaM4MY9+VWDXrwnPzxMfngIb0QJnApRLADDGYVz4mwS1+STUlJGYlUpyTVFRBYvI7NmLdPq1jK++GNGLJtK8twskt4ZQ8LsdFLmp5H6USrD56eR/mEGI+eOYcTbIwkfEY1nsJCQbGo+nsMzEA8P2WdCw5aQLHhQM9arxLghBAvZnMr/N4UwfPKHVBzq4os7jzl47zsO3/2OI3e+49DdH/ji3hMO3H/KvvvP2Hf/OfvvPePAnSccu/+Ulr4nfJhXjiGDKIQNZRbAeys36E03fvDXb55Ar38tWeQgTAIimcUlApcWPxXTybhfT5OPmhvmYwrAIcKOjggMz1jl3nqmzyF52TZGbj1PyvarJGy9RNyWyyTU3CB6y1UiKq8QW32bGFk1t4ipuUFMzXViaq4RW3OF2JrLxNdcJLm2l4SaXsKrviJ++01Sqy6Quu4ApoRpKqYVwEvp6mUM/xrg5eaLGosMQRCwhai6u7SFJryVx5R1h5hW1kt2xXUyKu+RXjVAxpYBMqoekF5xm8SK60TU3mRI/U1C624ytO4Gw3ZcI6r2MnHbL5JU3Uva1i4yt7YzfmsL48uPMmrDLuIWFxM8cwXO7Hn4JU/CGTMGj7B0pV6rrL9nBIa3CC7EaeknW7gKm5TFlXvoE4sjIAXPISMZMvx9YiasYOy8MubkNDN380nmlpxj9uYWphWc4a3iTqaXdDO15DxTSnuY7FryXr43q6KXKfmn+ajqPO/mf0nm+wUYPikYZikrakqyAExYfQrwQhcWsMvYKcX999X7SQhXXiEYQdFYR2QTPG8x0QWbCS4tw7uyHNuWSsxbK7FsrVTvPT+vxKdiKz4l2/GvaMBZWY9f6Tb8SyoJLS4jfMNGIpatwBCwh0arjL/dIxhvu0yB8Vb0Zx+rlCjdfQYyEUdfrygga7kwt5qwAF/X5dW0WgV4Ab4cAMIcFL5FOMawNHymvUv48pXEFq4noWIdGTV5vHe4kjXtdaw6Vsn87WuZVbCQqavmMn7ZTEZ9Np7Rq8YxZvk4spdNYNrKGby9fCZj3hlDVIbMHPTCsFlUstDHR/QOtRiIljPXSs2DMWVIyUjKMnpDDmHE1I+oOtrDkb4fODLwlJP9Tzn9QF6fcXzgOUcGfubww3+odeThPzjS/4Izj36m49EzFuR/jsk/Qvfy/lsArw8j1UYrZAxh7kksJaA3a9dU3FWZTCulKYvUhz0jtasYlk7ItE8ZkX+EcTtuML7hDhnbr5FRf5vhO+8Qv+M2SY39xO9+QFzjA+Ib+0jYfZ/E3fdI3nWXlF13SN11kxG7rjC84QpxdbdIa+xn5I5rjNh4CEMAL3TXfwF4u3WIzo/IQSCAt4t4Yzhxk5YyPa+Z96svMr3mJlnb75NZ94hRO78hs+GvZDZ8Q/quR+raovb0ES2rqY+YpvvENd4jofEOKbtukbzjMhl1lxi78yITd/YyeUcHE6pOMrbkINkFTYxdXsXYJdJp2CgAACAASURBVCWMmJdP5PRlOEd+gDVxBubYqVjjpmGJnoIlajLWyEk4oqfilzSLsJHziB//CSnT1pA5t5zxi+uZsXo/M/OOMDX3KOPXHCFr9RHG5pwge91Zsta3MHZ9C2NkbZB1lrHrz5K97jTj1x5jwsqDvJt/lNFzywhOeVcnGSUR6wo1BOwa8JrWq4g3qiqjy4MqdyNJusBIzCOyCHj/Y8JzNhBeVIp/SRne5eV4VJZjryzHUVmOR0UZXuVl+JRV4rN5C/4ltThLqnFuriB4cxnDCjYTtHgpnpOmYYREKstuswfh5zEEX5to/vmorLtDejhcPQZm0StU3qrsSU0GsgiYRXNOKQrLISC5CPdYar0/JX/j9IrC5hONISrCMcPxnzmb9A1rmLWrnJUtjZReOUTd3ZNsu3SAgpPbWdVczuLaQj7cksdk0cvPm87oFRMZt3ISb+fN5L11c5i5bBoT52YRkz4Mh9OGyWbBw8MVjqkcgxyoYiwF9IMsvAD+pYW3hJI+fQFbj/dyrP8pxx894+zDZ5x7KK/POfXoZ058/Q+Of/3fHPv6fzgua+BnWv/yD7r/8oJFGz/HGiCAEwVaIfX/OQsvB5GOO+UB6JljKlMvvHRFYtHzubzMIcq1EjkgqxBaRKHUNxwjIpOwd4vJKu5gZsNtxtVeZVTdddJ33SZlz31S9j8itrmfmOYBYpr7iWvuJ2HPA5Kb+kht7COt8S7pjdcY0XidhIY7pO95yMi6G6Rt/BIjfopL5OPXLbyUusR78pDMvIwCNomL5RpmaQpmaMZsxiws5Z3PW5ha3cvYHTdJr79Pcv0DEur7iW8YIH73APF75LoeqGuLax7AveKb+0nc00dSoxxONxlef4WM+q/IaviKKXuuMPvAdeZ+cZO1Z78m9/RDVh6+y4c7e5hUeJj0lQ2kfFJD6uIa4udVkDC3nPj3S0l8v4zh86oYvXgHk1Y0MWPtQcYsbmTi8i+YnnuKqXlnyF59glErjpG56iRjc1sYndNC5st1htE5pxmdc4oxOSfJXnuMiSu/YPrK/cxYtpvoMZ9iCRilOuQ8PCNUuCMJV2kk0oD3VeVLzaUXr06r8KrhmjJgIzED57sfEpG3kbDNJTgLi/ErLce3rAKfsgp8y8rxKyvDr6wEv/ISnGVlOIu3EFC0DWdhJQEFpYQXljAsZx1eM2ZhRIp6TQg2RzBOWzBB9iH4iaiqYneKKy9uvOYFiE6AHEQa9LLvBOziQks4LL0TgyWldbuykKykJOtlHaL3pciwO8OwJacycc0ytvWcYP/9Dg5/3cmXA+fYeeVLyjv2sOlsE3knmlh1uI4P69czo+RjsnPeYsLa6UzPncaM1ZOZuWIi7342mQnvZDA03h+Lh4HJbNWG0ByCzRiKyZC4Xvd1uEFvSHlBMo4qvrSFkTFjIdtOXOD4wFNOCOAHntLS/5QzA884NfCCEw9/5tijf3D00X+r12P9z2n5+me6vn7uArwkeZyYpH6r2iv/eB1eFFrEzfNQdFRvzNK3r/qldVxkUk0qki2VuMtFdrEGYvMaojXIJQZNnkvUh7VMLutgyvZLjK69RNrOa6Q03yX5i4dENvcxbO8DIpofENX8gNg9D0hofEDy7gek7rpLxp4bpDVdJ77hDml7Bsiou87w/N8PeGkRloSoTI2Rmy7lHnFlfaMyCRs3n6y8XYwpP83ohqukN98ntvE+YQ33GLLrPsOaHhC3p4+EpvskNPURL183DagV63qNF++k4Q4J9TcYvvM6Y5tv89aRh8w795hPup+y4vxz1vT+zKqun/jo6NdMq7vE6NJzjCo8w9iiFsYXtzK+sIXs/FNk5R0nK/c44/JOMGn9aaZuaCF7xTEmrT3D5NxzjM85x+hVZxi16gxjc9uZsLGH0bntao3JbWVs7jmycs+SlXua7NxTTFx7nNl5x5izch9j3i3BGfW2agax2KPwdEjrtAa7p6t7ULw1sZICJpW3MQ3BJglDoSAPicdn0kwiVq8jqrSCwNJyPDcX4VdWibOskgD5Xkk5gSWlBJSW4F9WhH9ZKUGlWwks2oL/pjKCCooIyV2P34cfY6SNxPAOxOwVgo81iABTIAGSbXcxJFUeyq0HILLrgwAvM+uU2KfwQ9z5L/Wq6azKE3V18wkTUj6TStqKmItXIIaPHxmzptLUdoiWex20DnRw7O5pdl7YT2n7Hgra97O+6wi57V+Qc6qeT5oL+GDrp8wpmcdbG95iyoospn82mvdWTuCdT8YxalICzmAPDJOBzeKHh9KhCMNkhP4S8J6KGyyNEdIBFf4S8Mf6n3D84U+c7vuRs30/crrvKScfPON4/3OO9v/M4YG/K/f+SN9PnB54RsfDn1i4oRKLuPQuwKu2zT+RtBPvw9PwwFOV4bxUR5ciFahWUV1VsJgkq+pOnoi75aM5xnahIArtcgym1E9IXbqbGdW9jKv7itTaCyQ03SD+4APC994jbF8fQ/f2Maz5AdF7+olv7CdpVz8pu+6R0XxLAT624TbDm/rJ2HGN4WLhE6dhOIQU9NsWXtw5uyEddSF4GaGKcSeZccVCdEZhDMvAOX0pQ1dUk7K9g+EH7hJ1oI+A5rs49/YReuAhcU06xEjafY/E3RJ29BPXOEBs4yO1YhoeEL+7n9TmR4z+4q9MPfEd77Q+5cPun1nY+z982P0PPu75/5jf9d+8ffQxmTtvMfzzi2RUXWJczU3GbbvOuKqrZJddYszmXjILuhm5voOReW2MymklO6edCbkdjM/tIDung9Fr2hm1poPRud1kbeglM7eTzNwOxuS0MTbnHFk5ZxiXc4rxa08yec1R3ss7ypSPthOetgDDO0O1w9psw1TMqzLahheeqqlIrLwAXiylhEqiXDMUu8rLDMOaMIqwD5cQs7mUkPIKvEpL8Swvx6e0AmexdtVDCksI2VxMUNFmAko24V9cREjZFoKKPidwUymB6wvwXLgEY8w4jBBRZXLisAXhNPzxV513kkvQrrvqypRynAiAGN7K0xSvTSy8GlIp3WjCmlQ5GzmgZEliVHdzqjZeKXXaArG4mKdmmz82mX5jthA8NJClKz/meOs+Wi8f5czNE+y5+AWlHc1s6DzI2gunyLlwivyO/Ww6t4v1J6pY1pTLvMp5zMmfyuycbN5bncV7y7KY9dFYYlNCsdrMSBhiV8ZF9tswlf9yW3d5NTxNwdhlfJFMJ7EPJWP6x2w/0cvxu4852f+E032ynnLi/lOO9f3Ekb5nHH7wnMP9Lzg68EIl8872P6Wz/0cW5JZi949UFEyx7uIG6Rv0+pgp1fPs7n8fFF8MvjBlDRVgJAvuhdUQCy81RyG3yE2TmxuEzSqnmNRGAxSvXPjXioNtdXkDnjEY/hkETlrGxKIvmVzXRVptN/G7rhC3XwDfT9i+Rwzd+xcimr8htukbEnf/hZSdj0ja2U+yuP3iAey6S6JY/B2XGbnpMEbCdAwvTTKSaxMgSwjipjlKmKToq0aIcv081AAIfSCplkoZzy1yTKHDsWTPJWLlVtK2niKtoYeE3ReJbbpC3J6bxO2+RULjXRKb7pPY1EeC5Boa+0gUL6Spn9Smfkbu+5qJRx4z68wT5rY/5+OuFyzses7Czmcs6HzBwu5/ML/9BdMPfUNa7VUSqnpJrZEQ4BYZtTfIqLlBxrZrZHx+mfSyi4wo7iWt8DwZBd2kr25j9JpOsvN6GL/+AuPXf0V27gXGrDnP6FWdjF3Twdg1bWStPkvW6lNkrz7GuDWHmbD2ENPXHGD6wmrSsj/F5hyp5aItw7CptmInPjJtRRGX5BkLsCS8lBKuy8KLERL+hTMSr1ETiV2eQ6xY9OJS7EUl+FZV47G5At/CCvw3lRO4qYyAwhKcRUX4lhTiLCkkbHMRsZtLiSvYzJBPPsM0fjLG0GgMmbikCEbS/SakJCnFSUghcbCw60RiTQCuy5fibb7MJcm/v+xGE+/YtVRbr4v4Ip6oorZKVUm8Fkk2O/H0lH1rx2Q2ExkbQfGWIvadPcCZ2100Xz1Hcdch1nUfZe1XZ8n5qoV1nYcp7j1KSc8XrDtdy7J9BSzY8Rlzy+cxO38mU5dN4L2Vs0kbl4rN2wOblK1VqVBIWEPV5JrBuDJshpA0hmAR18kURNrED9h16iLHr33Nuf4ntDz8mdMDf+f4gxca7H3PVKLu2KO/c+rrv3Ps3vcqYdf94Ac+Xr0Z74Bo7HaJg7zV0iB4lTQY/Md/z3v5/4N/h65nS5JR3CTpGHOv1/+G+jlJ7AUO07XQ4DhC5nzK6LIDjNl5ntSmayTsHyBi3zeE73tMxN7viWn+gaQ9P5C6+zEjdv6VhIZvGPblDwQd/JaQxvtEbL9M5o4LTCg/gRE9GcM7DtFVF+65StaozaKtgL5OuTYJNfRwCE1hlTqpJnMoK6KSUbGYUyYy9N2VZObvZEr1SSbVniO9uo3ouktENt0lfm8/CbL23Cd5zz3S9z5g7MGHTDv+N2ad/JYPznzHgtYfWdrxlOVdP7Gy+ydWdf/Esrbv+azjCcu6nvHO0a8ZUXuBxJpeUhquEbfjMvH1V4mvv0ZC3VUSa6+Qsv0KqdWXSdt2iZFVVxmxvpfR6y4ydt1XZOVdYlzuJbLXXCR7ZQ/ZyzuZtLqLiatambDyFONXHGHcigOMX72PSTl7mbl2N4kj5+L0H65HS8kcdHsYHh6h2KwB2ETTXx3k3i7j4Cp9KT6/9L/L8sMYGkPQ9DmkrC8gtrwK380l2ArL8KvagbWgEq9NW3AWbsW/aAvOkkq8y8rx/LwM/4oiwvLWkFVSxOi8dfhlT8TwDdJJZSFxCZVY9Aglbje7xppLVcW1597ce4P3q3v//fJV9qZe8vNyUIgxkMNMU6w1VVj4JMKWi87IZM2WKr64fpn6yz1saD3Gup4z5F1q47PO4+RfaGND12nWdR5jY88xNl04wrr2JpYcKOH96lVMyH2fOesXMuKtcVhkQKXMu7cE4DSF4KP2nezBV9gwvCzhOKzh2DwiFOBTx73H7lMXaLv3WMXlZ/tfcKr/Z070v+CYWHV5HXjB8YcvOPnwOW3f/J32gSdcePSUZRsqsXqFKqEELxdbaTBYB//h/433wkKyegkN06nKhba0KUQv2kxm1UlGN10ltfkeUY0PiGz+hsjmx0TveUzs7r+RtPtbMvY8Jv3gE8K/+IGwQ98T2fyQuNrLjNnew4TiwxixUzG8hNYapqihbsCrtlc3l1kdRoOzuELGkdZOAb2Um1xiFcJdCErAHJeFc9w8YudvZOz6BsZXnSKttpfkXTcY3nibEY23SW+8xejmu0w+/IjZp75l4fkXLD7/nE+6fmJp1xOWtn/P0rbv+KT1MZ+0fMvy1u9Z0f6U5Z3PeffIN6Rv/4qkmoukNNwkdsc1YutvEFt/k/j6myTsuEFS7XVStl8jtfoqI7ZeI6XwAmkbLzIi/yLp63rJyOll5KpuMpd3MOazVqau7WTyyjNMXn6MqSu1VZ+8opHMBVVkvLOBsOiJ+HjFqFhXDj5PjzAcdhmGKa6xTuyq5K6Kl92AFz6/8AUCVHhoTxhO5AfzSV5fwLCiEnwKi7EXVeBduR1H8Va8i6txSmKuaAu+xRV4lZRiLyvGWVxAwsZ1ZKxeSfS772GNT9HNNsKNtwUhI8tF0lrJWouKjIw3V52F+jm5gf9H96rs/TcBr0Av8b1QdkWZ1i+YsR98yPqmJkrOnqKg7RQbe86xrreFFe3H2Xixi3Xnz7Gm4wRrOo+S13OU9T1fktvWxNpTdSxrLmdpbSGjPngLS6CUfoWJKiVOX3yU4tQrsMvnMLys4ueL1LJO46dmv8Puk730PHxKx8BTzvY/53T/z5zqf6FAf9wF9hOStX/4jNMPfuTc/e/56uuf+Cy/UsfNhg9On1AV9/wnAS8fUCijFmm0sIdiOBNxZH5A0uodjNtxnqzmOyTsvEls4wNi9jwisukREQ0PiW54RFLTf5G8/zFD9/6NiP1/JWnvQ4bXXSFrawejchoxIidiOESYQHPBfwvw2rpLqUeSixLTCxVYSjZy0ovslPCiZeJrmGbHiQho3GTCZiwn5dNtZG9pJ7vuEpN3X2da822m773DrC8eMPfENyxofcyn539i6fmnfNL5A4s7vmNR++OXa0nbd3zW+oSVbS9Y3vF33jv8NzJqrpK87Sqp9XeJ236L+Lq7xNfdI2HHXZJq75K8/Tap1bdIq75J2tYbJH1+haSKy6SUXiZ180VGFPQyckMPY9d1q7h+xnoB/AkmfXqQt1Ye4J21+5i0qJroCcvxjpyKwycZm0UnLm2WITgcoUhjjuQxZGqxgP2fAt7qh0diGlFz5xOfu46wTYX4FBZhKy7HWlqFV0UNPqXV+BVtxVlUpSy8X0kZXiVF+G/KJ2XDOiLefx9ryggM/1AtoGIPwmILVqIWbwJetXMroApYX/cu/wjw3wS8hAzSN/AS8FYffGOTGL9oCWv3NFLR3UZxbxv558+Sd76FDb0d5J5vZU3XaVZ1HWNN9xHyeg6R3/MFhT0H2XSumc0nmpiy7GOsoTI4VIQwdPjhbR2ipzYPtvB+HlEK8CpLbwQRkz6Nit3HOXfzvzh7+1vaBp7TMvCC033POC5x/P2nnOh/xumHz2l59Jwj176ha+Aprdf/wjsL16jaqsSoPh5CSpA2x9dPmD9y0/7o/5EH5i2ccpVYEY50BMaQUTgnfcLI/GZm773O6IZLpO2WLPxNohtuE9Vwj+hdfcRKYqzpEZGNA0Q33Cej6T5j6y4zvvwscfNEf1+Xl6T5w2KS+d66BCPjpqTJQucadPlGxgbpuMpFv1TJSB0zStnRKq6rZKIVfThck4eGjsGe+g4x80oZsXoPM7e0s3jfLVYef8jqM9+w+txfWdX2LWvP/8jqnh9Z0f0dy7olM/+YJd2PWSzvu35gadtTlrX/nU87/4c5Rx6TVnOdxOrrpOy8T0ztHeLq+4irf0B8XR8JO/pIqr1Hcs1dUqvvkFJzi5T6WyTtuE5y9VVSKi+SVtJLxqZOxuS3Mz6vhSk5p5i++ggzPtvL9CX1jHu/hISspXiFT8awJ2IY4ZiNIajkqlksu0sNSAH+d1h4l0sfMGUGsStWE11UTEBxKbbNJZiLyvCprMa3TMD+OYHFnxNaVkVYWQVBxUWE5m8gctEivDPHYgQI2J0YDm3RxYNwWIOVS++28KIbaFLCIhrosnf/7P6V2F1Kygroyr3XgJfWY0VQk4m2nk6cyWnMzMmj4MhhyjrOUdhxloKuc+R1tZHb3UZuzzlyzp9ibfcxciTO7zxIQddBNrXup/zcl8xY/SlGiNDPvbF7DkH4H8I+1SHvKwwaTu9o7OKWKiJEEL5hw5m/qoi9LZfo6vuezoHntPY/58z9J5y8+wMn7v7Iqb6ntIg7/+g5rX0/0vvoGdX7zhCXPkkBXj6McKPNSp5KU/3+KGj/zP+TckiQJVzFMtI+alc89niMIZlEzslhTs0ZPjhwlSnNV0hv+IqE+q+I3Xmd2Ma7qj4fv2eA5N19JG+/zriGm0ytvcCEgkMET1imOPvKwpuHIBM/XwFeE4SU5ZamBjWwUcqGcvD4q2YWbyVWISxBdw1amleEZCIPTDoDpdIRg+GRiBE4Gt/hc8mYV8zczV+yancv+YdvUXCmn4L2b1hzup9VLQ9Z0fYXlnf+F592/41Pzn/L4vPfsuT89yzu+Iklnf9gUff/4e1j35FSe5O4mhskNvQRteMuMTv7idk5QGz9AHH1/Qr0ibX3Sdp+j4Ta2yQ23iK+8RoJOy+TXHuR4VXdZJS0kllwinF5R5m48gBTlzUxcf4W0iauJiRmJjbfDEz2RMzSvisDLKRSIWwzldyS+FYGcGoC1T+18OIJCMNO5LVSM4hcvJSU8gqGVVbiXVKCvaQMn4ot+JRU4l9UQVjJ58RUbCG2tIKw/I2ErViJ1/hJGJGiXOOvfpcMqZA9JUAWfQIVvwvtWP6WLDV84xXg/8z+e/V/JRGoPQYV0sl7F4lMVwN8Mbz8CckYw5z1+RQeOUJFWyv5p0+yoaOd3K4Ocrtbye0+Q173SdafP05Bz3E2nz9ORc9JcvbvJOWdt5W0tWH3w+4Tjs0mfRS/AnibyTVrXDTTxBJ6DCU1azZFtQfp7fuBzr4fae97wrn7P9Ki1hNa7j+h9cFPtD14SvfATxzsvMk7i/OwCNnF5IfDIUk7KaNJPPGfBHwAwdYofFxlMV9RixEOtyUcr8QppC/cxKf7e/jwwEVm7r1EdtNXpDdcImnnVRJ23SR19x3G7LpDds1lptdeYvym46QtqMIjcRaGMw2zVyxmITmYpEIgcZ+OQd3kIMVJdxE0tJUfrE4jgPfGS2WpPVUVQjaDwxaGwyMSiz1SX6sIXfgk4xM5nmGj5pIxZy1vr65m8ZajrN3bQ96Ra+SeuE3euX7yOv9CTvdfWd39Vz7r+AtL2r5hUccPLOp+wYKevzPjxLck7bhK7PYrJOy6Q1TdTWJ33SdWPJqd94nbeY+E+rsk7rhD0o5bJNZdJ67+Iom7LpC2+yKZuy6SvaOXiVvamVJ8ihkFhxm3pJYRMzcSmjIXj8AxGPYETOYoLOYIrGYJF0OxWcKxKiqtrkcLEKwyk0+prv62Sy8iHA7Jb0isGxZDyKz3SN5QQExJKYFFxThLSvEvq8BfSnWbSojaXE5yUTkJ6zcRsuhTnLPew4iIw3BKtj8Ak0cwNqskUMXqipS4lq2SxN2bgHcfCq9A+8pK/t7vuZN36oB7Sct1DQpxu/US0omQh81PHWyxE6fx2ZYaPj9xmsJjJyjq7Ca/vYN1rS1saD/Lpu4WSnpbKe89R2XPWSrbTzIjbxX22FgMKUXL5xQGqBgas3A/3mDaubPJ6vS1SgwwBM/ARGbMXcGOg6203vgv2u48puvBE3oePuf8oxd0PPiJ1jvfc/bGt+w83stHa0sZEpepYlGRHRJZabtVrNYr+Z3fe5P+nT8npTqnKQI/Yyg+RhheqkyhZ6UbvtE4ojOZvKqUdyv2sXBfDx8fucFbe6+SWX+R9PrLjNl1nUnVXzFzay8zy1pJnFuO/8iPMZwZWJypmGW6pykYm0mkpuRButx5eYhqCRFD2haDFVFDKJmKfadceh+8DG9l5UXnzm5o0CsVFaEKW4YgMa/NMRSzdAJKjkWsv188zths4id9xKh5eSzZcohP68+w+sAF1p+6zcbWAfLbvyav9SErzj1kcee3LOj5gY97nzL95COS6i8QW9tL4u5rRNVfJm73TeJ26RXfcIOEnddJrL9GUt0Vkuu+InF7B2k72sms72Lcjk7GbzlD9qYvGLNqJ2OXbCUyeynO2LcwPERpVyS2h+KwDsMustMKUEPxsEciQ0l0Rltq00EK8P8qhhe328tTGn90x5l9eCbB789n6Io1hKxbT2D+RsJLywgrLCJiYyGJ+ZtJyysgbvEKfCe+jRGfrkUyxEuwBWK3h+Ap3aGKBSlZcyd2s9TJXYCXJKHLwss+/LPuvMKWCu/cbeIuLr7qSnQND5HktjQFiZqQ6P4PjSVz9lyWlVaxef8hKtu6KWxpZ9PZcxS3t1HV003V+Q6Kzhwn/9B+PhLd/fHjMURTT0qNUvVRhDTh1Qu78zcB749Fap6yTIH4h49g8rtLaTjSxf7Wq5y69JD2249pv/OYM1e+4WDHbXafuMCcJfmEJmZh2IOxeodhcUiM5o3DJUHl1tv6dwL59/4uodp6GGH4GBF4KgKM0Az9VcJGPVhLAL5xmaTMWcoHpc0saz7P/D0XmL69iwnV3Uyr6WVc/lGm5x9m3Gc7caZ/hBGQiWGKxOodrwQlxZ0XwEvSTsXvL8EuoJcNJAQN0ZWXGehaT1wOBqX5bvLG06zdes010KAX8pC2QlqX3yLNSLLpJcsqNWCZw+YThRGUTOjIOcRMWUTmxwXMym9gUfVJVjf3su7Lq+Qcu8mSE7dY1NLH4raHvHP4BqO2tzGiupVR9T2k7+ghva6XjLoLeu3oJWP7eTKqu0jf2kFG1TnSS44wsvhLRm06QEZeI8lLqoicvY7gsQvxFxEL3+EYngl6oIQpTJFmdGOJMMwCsFs04O2KYqznDUgrp4phRXnXlbSTyTcyXlxJoon1U9Rpf7wsQYgajvSoC5feOnw0zrfeJWD+IvyXfEr0hgIic9YTtSKHhGVrSPp4GcOmvos9NsMl/KjvnWTg7eYgvAxZ2tNSgDcNAvy/2aV/BXi31Js+RJS6j0s7UA4/8QDUUnMXArAFRpA+eRYL8ovZtO8I+fuPsunLE5SfbOHz0+co/OIQy7Zu44P8jUSPn4QlNEJpPVq8hmCSOQlGIB4iG2YI6N8oy8k/CkVVEQnU5pTZ4K5lDSYybSJZsxeyIKeUtSU7yatoZHnBdmZ+nMuICR/oA0Iy4OJGSDZczUuXGM1bUWv/k4AXr0XTC/VGFEae5kPL9fkqrrQSEPCLwj9pEnFTPyFtXiEjFlWRuGAbCR9WEZS9AueIjzCHy6SZNCW6KFZMur3sikAipB/tzr8GeGFXKR11dz1ZYkQXC+tl+7AOeyzKugvYNcFIkp2yhMsgEsSGWZaMEfZSrZoK/Op3S1urMCQjMQKG4xU9kdCMD0iYvIyM2XlkzCtg0sY6plU0M6v6MNO3fElWUTOjCprJLj3E1G1nGVt6lKzSY4wtOcrY4sOMKjjAiHVNpK7ZScry7YTMzCN4yiqcWYtxpErP/UQMZzqGPQ7DJIMghXw0FJNZEnPC6RBOgvZ4JNQR1pwk7fSr1px3N6HIM3gJeNcwhcH7RZKuvgqkWk9B7S/pxgxPwEjOwBiZhdf02XhMnYlj3FTsGVlYRY8uQFqQhQUph6O+70LoERq5p+Gv9P+8DEmg6pq7Aqb7oFZkGQ1M+fu/17j82s8NBry8l58Rr+EXS65TPAu5VsGQWGlZnsGMmjWfcfOXKWTmSgAAC/BJREFUMWvFBj7IKWT28jzGvvcRMaMnEpQwQpUtVcgjeo+KxiseTDAeQudW4eSbgFe8YLE8g0Hvog26J3r6RRAQlU5YwljCk8YRGp+Fd3CK7vwSvrrIT0lPtdqE0tHmh0mUNUU84D8Yw6swRTrUBBRCg3RNs5EOKJFTsohwv8zUk5stTTc+8RjBo7BGTMERPwfvpPcxnKM00K2ywSOVyyrikWYpMdlCXoJdM7S0Fr9y518C3vUQ1b3R7C6l/iqgl/ujLJxLsNFFQnGTUZTWuNmBYXEvT6VYKv3ZCvTKIsmzkgy/cM6jMTwTMfmkYvEbgSkgnbAxc4iYPJe4txYSNW0BIePmETBmLkMmLCJq+koipq1k2NSVhE9eztCJyxgyfglBYxcQOHo+gSNFRms8RnAWhr/ch+GvgK7GSIsopwa6VCoE7NIwouSqlNsqDLM/B3gBpijPSKZbWUH5zNIrETBMt7VGJmAMi8MIjcIIEL182Y9SBtUtq1Jmk+crCVwBuPw+kQCTVwmfBHyqovIG4AXs/xbAu0g4bsD/GujVYSHMU/EArYF6SalWFHP9hmELjsUvcjiBsRn4R6biERiF4VKslX0g3H050KT062GIylGg0tqTV/n+4MPI0L3pGvAvQa+ojS5XVG6EuJNqc4mLKhbLFQdLkk/F/SHaZZVEjPpZ2ZD/DwBeHraMBBIBCil9qZsjGVMNeOFIS2JRDRMQ5p5kks2isyb19XhdVrJKok++limn4cqym6S8ZApQ3sLLcovozKsebnf87jqxBejijro0xVUpRt0jP22tXwJfwP9qCSlFTRIRhVKrA8PqgWFxA16GH+gavtkmuumhmC0ypkri5MFLMuP6OsxS55fDWXjqCqzSAx+LxZGkMuqGRQ40IchEYRiR+nCTA059PxaTKRqTEYHZlQeRcEkAIVZTuAUS0gjYJfvsHoQhbrl0bP0ZCy/xtgBehCWEtKLo1eICy76UUMcnWDXBGKKbL4kvs3DJ/XGaggmwyKAQ7R2IDt1gwIul/y3AC0Dks4nn9m+J43+Pp+CimgtrU7H/JLnoHnstXocq3Qbpw0Cw6PqdGuivFHT1gRaAjxGgvJk3Dy3jFa9dQP8K+FJOkgPAIqeMxOWycd2nlXgDynLKyBtZIvYXqAQq9EaUDemlRDD+oxbe7dLJtYvFVYB3TUhVkkriNkvzix+e9mC8PMPx9IrE5iEZcpFfCsfqFYPVKxqrRyRWR7gSs1Dtm8riiFiDtE/K79Ttu3La6oSd/D23q+Y+NN3/9sareyrML15dXoBFGoHEE3FNOVEhwau+AnluEprJM7OoJTP9ZGlFVS+bE1+PYHxs4ubpRiPJafhaI/GzxeBjicbTiMBhhOMwRKMtHB9rBD62KLztMXjZYvC2RuFlDsfLNARPYcy9BKI0nOg+drkPrx96ElL9ccC7gSextgBUhE68pSKi9qEel6W6z7wDVC1bNW2JtLZS7RXlXskjiKurhScF4PJ7BBQCfjkE1J52GzV5dQ3s0GHanwf8K+q3poL/OhXXRROX56iSiKLtICtQqfOaXPtXOAIyV07m2gmHwNOqPUy5P3Iw6p4AfUCKcKl8/QvAi7vjBr2a7qHcAHEFZGkBfm3hxVUXYoIb+HKRWjxPBPTUYaE2u2xS2ZzC+BGX+T9Xlnv5MF+CUDdDCDg1v1lruslgA7ss0R63+GOz6tFCVpGCEqkg1agjn1eSK+JaypgnWV4ugQTZ6DLvTSedNOjFRXvDnXp5YLqSb3Ig/WK5XMyX5J3f+Nr1uyTJJcBwx4XygNVSRCCZdONQY618LFIRkOk0snxVG6ifEYyvIZzrYCXEKGKMGhBiIYLwNYXgZQ7F0xyqYkJxF5Wii2uent1wqNZlGY4p3tJLwMu1S5ikssUSv/+xGN7dfCL3XBiTvpYA/M2BqrtNBm9InkMdhHbRjhNuuoSS8mzlM+qBnZKzkWtxx/ACdFnimcj3XrrzyuvS91rupUro/WkLL89flhx8gptfW5KMdR8GUtUJVIKUGvAyPFJ0HDUzT3EXxItyeR9yKMl1uq9V9Aql28+9tEf0eh7CEGukNqZraqsA/ZV8j7hDYkl8FBXQ03MInjKD230yqpsmlkVzkDXDzG3dZbidpvkNjiH+t9/rm+MiPqhauXbV3Ce43SqZZJkII+6iHFBeerSV4eGSxHZl35Uogv53+TmraOtZdXig+v4HccEVCF2DHeSmK+FI5ZLqvy0bTe6ZlK3cAgqvXl/fFCLvpZcWWXBvHvczUJtA3GilBCQ0YtcYIocTu0PGSVuxWqzYzDZsZg81vVZLSukhFRLnicUWMLvHJ4klVEvcTHVgy73R2usy/VaGZ8pB4jDs6lUP0/RSrcna5ZYNLJ9NykJ/AvDK8kp4KLkgHzV1RmSqRXff16U7J80ihuQ5pAYtii9CPFE69lpUQ+1J0bEfZOXls4l1l+8pwLvBLq/Szu2iQIsn8edcev2c9bN+/bkqjoYaBTUI8EpzMFB5zGJEzWLhRXXH7sTq8Mdml4EXMi9AJ4pfHu4uNp+u7uimNUn46uk9vwp47faIhXeDXZIe+qaIVRMQeOPpCMbLLioabquif148Acm8qoy3xJ7Kuv/nAS83RGI/97w1sU4q3nS108p1q1hIAKNGUvtitkkm3I5hsmCYrDisvjjMYmGk3Vcn+qxmb2wWH9WK6K5GSMZZj3F290zrhyIDFGQElLDrtJslYNIiiOJ+S63UvVRPgwKJBrl20SUOda8Q5aqrcEtdu9vrEECISrDE+J4YdlleGB6ijW7BsJswbGYteGjzVPRLBSJXHmBwE4l2H8UqaiHSV3kF4b17Kvlom9mBw+xQswFsMobKcKgKg2w4DRA5nKRXXIxD6B+38AJ4u4zl0qAXL0rupZ/hja/hiYfhwKbm1nvpz+yQVx+sVh88ZNS1TMdVh4b2YuWglT0t1l1ie53QGxRuuQAv+0Z7Mr90id17//e9/l7Au0DvArzkyXSYLPtTQmOdu5HJwG5rrz078Z5lCd/FtQdeM1oyYfgNwOv6p469xJpri+i2gn7YJCMsp6ic6jYnHjaJF+XB+iCzud2sJdWHrsbVCtBFfcPhehXXV/eo/2+/iiUW6SRRIB2smaYy6ooVJ4eZ26q7rtlsx2SxY7basFgdmAyb0sGX0cwy7tksmulmLaPsllKW0c0a+LoUqdx7V9gg7q4IPMg1aCknPX9dQgq5d2IRBSSvWxL9IOV7skmlni0bVN7L89E/qx+06PuZVdZe4nwBsyT57K5lxeTtgeFlx/C0qwPA5OmNxcsXs4cfJrsvJpuvmvtu9fDH5hmARZJfdgGYlAElWSgHoOu9yYZhWDAZZsyuZTVZsZpsWAwHUl7UFQa5tldGQWrBL0txKrkp+00UkaTsKBNQZcmB4mqmce0XlbNw+GF4iMa7TMXVnAVhJ4owiqgFO6wyZ02uz66X7Dt5Tmq5RjKJ3Jo6sHW5U5U81d8X4yThpztHIoemWEYRvNBLW8k/un9FI0GWfp4CThUWDs7VuOW0VKgoh6wrGauot/Lzrn2pXj2RkeAW8SyVmKvcYx1eaqPs8k4V/rSHqv/91fUbMnL4t5fcPHnIv7bsGMbgNfhnZBaZew3+/v/+exla8eYS8JoMAbMsee9eNkwmWVa9DCtmk/13rFdzut3zuvWr/F7LS3AISORr9xLw/PMl91Dusd7E+nXwPZdrc2ByLzmsXls2TFYrJqvFteS9FbNFlk0t0UH7fcuC2Tx4mTGbZQ3+ntwvWTbXGnyf3ff7zXvuvve/fFWfVxkOMR76/wuQ9eHieq4vP7sDk1nuhQywcA+ykO/Z1Oczm62opa7PdZ1mub/mX11yqMlz+vW9/2ofv9o7v7z+1/fZq88/+Hm+GvfsHvv8r1/l8+klFSbB76vf/eb7X1z/v7pgDdx/tTH/3/13k2Hlz6xXm9e9if8vXtWGMmEYxh9c8n9lQ/72/f2n12e2YrHIsvzm0qB1g/ff/WrBZJID7o8+A9ugw/jXAfX6AfvmwWt3HUi//bn++bP51/f/j382fU/+6fNTxubNz/T61/+3+P3/Afj9DXJ99csZAAAAAElFTkSuQmCC;" parent="1" vertex="1">
          <mxGeometry x="199.99999999999997" y="535" width="95.45" height="50" as="geometry" />
        </mxCell>
        <mxCell id="YTty48DpWNWT5Ns5Sw20-10" value="&lt;font style=&quot;font-size: 18px&quot;&gt;&lt;b&gt;IaaS&lt;/b&gt;&lt;/font&gt;" style="text;html=1;strokeColor=none;fillColor=none;align=center;verticalAlign=middle;whiteSpace=wrap;rounded=0;" parent="1" vertex="1">
          <mxGeometry x="410" y="655" width="40" height="20" as="geometry" />
        </mxCell>
        <mxCell id="YTty48DpWNWT5Ns5Sw20-11" value="" style="outlineConnect=0;dashed=0;verticalLabelPosition=bottom;verticalAlign=top;align=center;html=1;shape=mxgraph.aws3.android;fillColor=#115193;gradientColor=none;" parent="1" vertex="1">
          <mxGeometry x="283" y="441" width="36" height="42" as="geometry" />
        </mxCell>
        <mxCell id="YTty48DpWNWT5Ns5Sw20-12" value="" style="outlineConnect=0;dashed=0;verticalLabelPosition=bottom;verticalAlign=top;align=center;html=1;shape=mxgraph.aws3.android;fillColor=#115193;gradientColor=none;" parent="1" vertex="1">
          <mxGeometry x="363" y="439" width="36" height="42" as="geometry" />
        </mxCell>
        <mxCell id="YTty48DpWNWT5Ns5Sw20-13" value="" style="outlineConnect=0;dashed=0;verticalLabelPosition=bottom;verticalAlign=top;align=center;html=1;shape=mxgraph.aws3.android;fillColor=#EE472A;gradientColor=none;" parent="1" vertex="1">
          <mxGeometry x="218" y="441" width="38" height="45" as="geometry" />
        </mxCell>
        <mxCell id="YTty48DpWNWT5Ns5Sw20-14" value="" style="outlineConnect=0;dashed=0;verticalLabelPosition=bottom;verticalAlign=top;align=center;html=1;shape=mxgraph.aws3.router;fillColor=#F58536;gradientColor=none;" parent="1" vertex="1">
          <mxGeometry x="231" y="289.5" width="45" height="44" as="geometry" />
        </mxCell>
        <mxCell id="YTty48DpWNWT5Ns5Sw20-17" value="" style="outlineConnect=0;dashed=0;verticalLabelPosition=bottom;verticalAlign=top;align=center;html=1;shape=mxgraph.aws3.router;fillColor=#F58536;gradientColor=none;" parent="1" vertex="1">
          <mxGeometry x="527.5" y="289.5" width="45" height="44" as="geometry" />
        </mxCell>
        <mxCell id="YTty48DpWNWT5Ns5Sw20-19" value="&lt;font style=&quot;font-size: 14px&quot;&gt;&lt;b&gt;PCF Routers&lt;/b&gt;&lt;/font&gt;" style="text;html=1;strokeColor=none;fillColor=none;align=center;verticalAlign=middle;whiteSpace=wrap;rounded=0;" parent="1" vertex="1">
          <mxGeometry x="337" y="301.5" width="96" height="20" as="geometry" />
        </mxCell>
        <mxCell id="DSYIpopSQqV4eHAveuQ3-1" value="" style="outlineConnect=0;dashed=0;verticalLabelPosition=bottom;verticalAlign=top;align=center;html=1;shape=mxgraph.aws3.android;fillColor=#FFD44F;gradientColor=none;" vertex="1" parent="1">
          <mxGeometry x="415.5" y="438.5" width="41.5" height="41.5" as="geometry" />
        </mxCell>
        <mxCell id="DSYIpopSQqV4eHAveuQ3-2" value="" style="outlineConnect=0;dashed=0;verticalLabelPosition=bottom;verticalAlign=top;align=center;html=1;shape=mxgraph.aws3.android;fillColor=#8CC64F;gradientColor=none;" vertex="1" parent="1">
          <mxGeometry x="505" y="438.5" width="40" height="41" as="geometry" />
        </mxCell>
        <mxCell id="DSYIpopSQqV4eHAveuQ3-3" value="" style="outlineConnect=0;dashed=0;verticalLabelPosition=bottom;verticalAlign=top;align=center;html=1;shape=mxgraph.aws3.android;fillColor=#5A69A4;gradientColor=none;" vertex="1" parent="1">
          <mxGeometry x="559" y="437" width="40" height="44" as="geometry" />
        </mxCell>
        <mxCell id="DSYIpopSQqV4eHAveuQ3-12" value="" style="edgeStyle=orthogonalEdgeStyle;rounded=0;orthogonalLoop=1;jettySize=auto;html=1;entryX=0.452;entryY=0.018;entryDx=0;entryDy=0;entryPerimeter=0;" edge="1" parent="1" source="DSYIpopSQqV4eHAveuQ3-4" target="YTty48DpWNWT5Ns5Sw20-15">
          <mxGeometry relative="1" as="geometry" />
        </mxCell>
        <mxCell id="DSYIpopSQqV4eHAveuQ3-4" value="" style="outlineConnect=0;dashed=0;verticalLabelPosition=bottom;verticalAlign=top;align=center;html=1;shape=mxgraph.aws3.application_load_balancer;fillColor=#a0522d;strokeColor=#6D1F00;fontColor=#ffffff;" vertex="1" parent="1">
          <mxGeometry x="351.5" y="176" width="69" height="72" as="geometry" />
        </mxCell>
        <mxCell id="DSYIpopSQqV4eHAveuQ3-5" value="" style="aspect=fixed;pointerEvents=1;shadow=0;dashed=0;html=1;strokeColor=none;labelPosition=center;verticalLabelPosition=bottom;verticalAlign=top;align=center;fillColor=#00188D;shape=mxgraph.mscae.enterprise.workstation_client" vertex="1" parent="1">
          <mxGeometry x="316" y="56" width="50" height="50" as="geometry" />
        </mxCell>
        <mxCell id="DSYIpopSQqV4eHAveuQ3-6" value="" style="shape=image;html=1;verticalAlign=top;verticalLabelPosition=bottom;labelBackgroundColor=#ffffff;imageAspect=0;aspect=fixed;image=https://cdn4.iconfinder.com/data/icons/free-social-media-icons/48/People.png" vertex="1" parent="1">
          <mxGeometry x="410" y="56" width="48" height="48" as="geometry" />
        </mxCell>
        <mxCell id="DSYIpopSQqV4eHAveuQ3-8" value="&lt;b&gt;Clients and Users&lt;/b&gt;" style="text;html=1;strokeColor=none;fillColor=none;align=center;verticalAlign=middle;whiteSpace=wrap;rounded=0;" vertex="1" parent="1">
          <mxGeometry x="335" y="110" width="106" height="20" as="geometry" />
        </mxCell>
        <mxCell id="DSYIpopSQqV4eHAveuQ3-16" value="Diego VM&amp;nbsp;" style="text;html=1;strokeColor=none;fillColor=none;align=center;verticalAlign=middle;whiteSpace=wrap;rounded=0;" vertex="1" parent="1">
          <mxGeometry x="231" y="367" width="67" height="20" as="geometry" />
        </mxCell>
        <mxCell id="DSYIpopSQqV4eHAveuQ3-17" value="Diego VM&amp;nbsp;" style="text;html=1;strokeColor=none;fillColor=none;align=center;verticalAlign=middle;whiteSpace=wrap;rounded=0;" vertex="1" parent="1">
          <mxGeometry x="374" y="370" width="67" height="20" as="geometry" />
        </mxCell>
        <mxCell id="DSYIpopSQqV4eHAveuQ3-18" value="Diego VM&amp;nbsp;" style="text;html=1;strokeColor=none;fillColor=none;align=center;verticalAlign=middle;whiteSpace=wrap;rounded=0;" vertex="1" parent="1">
          <mxGeometry x="513" y="370" width="67" height="20" as="geometry" />
        </mxCell>
        <mxCell id="DSYIpopSQqV4eHAveuQ3-20" style="edgeStyle=orthogonalEdgeStyle;rounded=0;orthogonalLoop=1;jettySize=auto;html=1;fontSize=14;" edge="1" parent="1" source="DSYIpopSQqV4eHAveuQ3-19">
          <mxGeometry relative="1" as="geometry">
            <mxPoint x="718" y="304" as="targetPoint" />
          </mxGeometry>
        </mxCell>
        <mxCell id="DSYIpopSQqV4eHAveuQ3-21" style="edgeStyle=orthogonalEdgeStyle;rounded=0;orthogonalLoop=1;jettySize=auto;html=1;fontSize=14;" edge="1" parent="1" source="DSYIpopSQqV4eHAveuQ3-19">
          <mxGeometry relative="1" as="geometry">
            <mxPoint x="719" y="501" as="targetPoint" />
          </mxGeometry>
        </mxCell>
        <mxCell id="DSYIpopSQqV4eHAveuQ3-19" value="" style="fillColor=none;dashed=1;verticalAlign=top;fontStyle=0;fontColor=#5A6C86;fontSize=13;strokeColor=#00CC66;" vertex="1" parent="1">
          <mxGeometry x="162" y="255" width="511" height="259" as="geometry" />
        </mxCell>
      </root>
    </mxGraphModel>
  </diagram>
</mxfile>
